<svg width="180" height="94" viewBox="0 0 180 94" fill="none" xmlns="http://www.w3.org/2000/svg">
<path d="M79.1422 42.9526L77.9495 34.9235C77.5656 32.2862 76.3594 29.8372 74.5024 27.9255C72.6455 26.0137 70.2327 24.7367 67.6077 24.2763L63.9713 23.6363C64.0467 21.7141 64.4698 16.1238 64.4077 14.24H15.2586C14.974 14.2441 14.6968 14.3317 14.4614 14.4918C14.2261 14.6519 14.0429 14.8776 13.9345 15.1408C13.8261 15.404 13.7974 15.6932 13.8518 15.9727C13.9062 16.2521 14.0413 16.5094 14.2406 16.7127L22.7495 25.2364L24.7423 60.96C24.8367 62.6881 25.5672 64.3202 26.7932 65.5418C24.6196 66.3968 22.7537 67.8863 21.4384 69.8164C20.1231 71.7465 19.4193 74.0279 19.4186 76.3636V85.8181C19.4197 86.2035 19.5733 86.5728 19.8459 86.8454C20.1184 87.1179 20.4877 87.2715 20.8732 87.2726H65.7604C66.1459 87.2715 66.5152 87.1179 66.7877 86.8454C67.0603 86.5728 67.2139 86.2035 67.215 85.8181V76.3635C67.2143 74.0278 66.5105 71.7465 65.1952 69.8163C63.8799 67.8862 62.014 66.3967 59.8404 65.5417C61.0664 64.3201 61.797 62.688 61.8913 60.9599L62.0368 58.3999C62.0591 58.3881 62.0844 58.3831 62.1095 58.3853L68.6259 57.3381C71.9102 56.7884 74.849 54.9756 76.8142 52.2874C78.7794 49.5992 79.615 46.2488 79.1422 42.9526ZM43.3168 81.6581C35.8535 81.472 35.855 70.5268 43.3169 70.3417C50.7801 70.5279 50.7785 81.473 43.3168 81.6581H43.3168ZM68.1604 54.4581L61.6731 55.5199C61.3317 55.5853 60.7722 55.5305 60.364 55.5926C60.0345 55.6576 59.7379 55.8356 59.5255 56.0958C59.3131 56.356 59.1981 56.6822 59.2004 57.0181L58.9968 60.7999C58.9341 61.8587 58.4707 62.8539 57.7008 63.5834C56.9308 64.3128 55.9119 64.7217 54.8513 64.7271H31.7822C30.7216 64.7218 29.7027 64.3128 28.9327 63.5833C28.1628 62.8539 27.6994 61.8586 27.6368 60.7998L25.6295 24.5089C25.6013 24.1518 25.4465 23.8166 25.1931 23.5634L18.7786 17.1489H61.4113L60.9895 24.8143C60.9382 25.8897 61.8721 26.3987 62.8368 26.3853L67.0986 27.1417C69.1231 27.4959 70.9845 28.4793 72.4181 29.952C73.8517 31.4248 74.7845 33.312 75.084 35.3454L76.2622 43.3744C76.6271 45.9141 75.9836 48.4957 74.4695 50.567C72.9554 52.6383 70.6909 54.0349 68.1603 54.4581H68.1604Z" fill="#A8A29E"/>
<path d="M57.2803 36.3345L57.5713 31.0981C53.7436 31.1492 49.9742 32.0432 46.5312 33.7164C49.8901 35.3359 53.553 36.2281 57.2803 36.3345Z" fill="#A8A29E"/>
<path d="M42.6331 34.9963C38.5173 32.5577 33.8448 31.2155 29.0623 31.0981L30.7786 62.0218H55.855L57.1204 39.2291C52.0151 39.0413 47.0365 37.5867 42.6331 34.9963Z" fill="#A8A29E"/>
<path d="M72.4076 35.7382C72.1932 34.2668 71.5194 32.9006 70.4823 31.8349C69.4453 30.7691 68.0981 30.0582 66.633 29.8037L62.4149 29.0619C62.32 29.037 62.2219 29.0272 62.124 29.0328C61.929 29.034 61.7363 29.0745 61.5574 29.1519C61.3784 29.2293 61.2169 29.3419 61.0825 29.4831C60.9481 29.6243 60.8435 29.7912 60.775 29.9737C60.7065 30.1563 60.6756 30.3507 60.684 30.5455L59.5058 51.331C59.4989 51.5284 59.5314 51.7253 59.6013 51.91C59.6713 52.0948 59.7772 52.2639 59.913 52.4073C60.074 52.584 60.2774 52.7167 60.5038 52.7931C60.7303 52.8694 60.9725 52.8868 61.2076 52.8437L67.724 51.7964C69.5552 51.4908 71.1946 50.4818 72.2924 48.9845C73.3902 47.4872 73.8596 45.6203 73.6003 43.7819L72.4076 35.7382ZM67.273 48.931L62.5167 49.6873L63.5058 32.2037L66.1385 32.6691C66.9997 32.8185 67.7915 33.2367 68.4003 33.8639C69.0091 34.491 69.4037 35.2948 69.5275 36.1601L70.7202 44.2037C70.8729 45.2852 70.5983 46.3836 69.9548 47.2661C69.3113 48.1485 68.3494 48.7457 67.273 48.931H67.273Z" fill="#A8A29E"/>
<path d="M43.3168 73.251C42.5944 73.2612 41.9051 73.5554 41.3979 74.0698C40.8908 74.5843 40.6064 75.2777 40.6064 76.0001C40.6065 76.7226 40.8908 77.4159 41.398 77.9304C41.9052 78.4448 42.5945 78.7389 43.3169 78.7492C44.0392 78.7389 44.7285 78.4447 45.2357 77.9303C45.7429 77.4158 46.0272 76.7224 46.0272 76C46.0272 75.2776 45.7428 74.5842 45.2356 74.0698C44.7284 73.5553 44.0391 73.2612 43.3168 73.251Z" fill="#A8A29E"/>
<path d="M57.3386 5.81812H29.2949C27.6912 5.82013 26.1357 6.36665 24.8831 7.36817C23.6306 8.36969 22.7552 9.76685 22.4004 11.3308H64.2331C63.8783 9.76685 63.0029 8.36969 61.7504 7.36817C60.4978 6.36665 58.9423 5.82013 57.3386 5.81812Z" fill="#A8A29E"/>
<path d="M93.2316 31.8828L96.2081 15.3945C96.2238 15.332 96.2628 15.3008 96.3253 15.3008H99.8058C99.8683 15.3008 99.9073 15.332 99.923 15.3945L102.782 31.8828C102.79 31.9609 102.759 32 102.689 32H100.028C99.9503 32 99.9073 31.9609 99.8995 31.8828L99.6417 30.125H96.3722L96.1144 31.8828C96.1066 31.9609 96.0675 32 95.9972 32H93.3253C93.2628 32 93.2316 31.9609 93.2316 31.8828ZM97.9308 20.8203L96.8527 27.5586H99.1613L98.1769 20.8203L98.0363 19.9297L97.9308 20.8203ZM107.095 32H104.376C104.314 32 104.282 31.9609 104.282 31.8828L104.329 15.3945C104.329 15.332 104.36 15.3008 104.423 15.3008H107.353C107.415 15.3008 107.47 15.332 107.517 15.3945L109.708 18.5586L111.888 15.3945C111.935 15.332 111.993 15.3008 112.064 15.3008H115.005C115.075 15.3008 115.11 15.332 115.11 15.3945L115.157 31.8828C115.157 31.9609 115.126 32 115.064 32H112.345C112.282 32 112.251 31.9609 112.251 31.8828L112.228 19.6367L109.708 23.293L107.212 19.6367L107.189 31.8828C107.189 31.9609 107.157 32 107.095 32ZM116.364 31.8828L119.341 15.3945C119.357 15.332 119.396 15.3008 119.458 15.3008H122.939C123.001 15.3008 123.04 15.332 123.056 15.3945L125.915 31.8828C125.923 31.9609 125.892 32 125.821 32H123.161C123.083 32 123.04 31.9609 123.032 31.8828L122.775 30.125H119.505L119.247 31.8828C119.239 31.9609 119.2 32 119.13 32H116.458C116.396 32 116.364 31.9609 116.364 31.8828ZM121.064 20.8203L119.985 27.5586H122.294L121.31 20.8203L121.169 19.9297L121.064 20.8203ZM135.724 32H126.771C126.693 32 126.653 31.9609 126.653 31.8828L126.677 29.2695L132.56 18.0312H126.993C126.923 18.0312 126.888 18 126.888 17.9375V15.418C126.888 15.3398 126.923 15.3008 126.993 15.3008H135.677C135.755 15.3008 135.794 15.3398 135.794 15.418V18.0078L129.946 29.1875H135.724C135.786 29.1875 135.818 29.2305 135.818 29.3164L135.841 31.8828C135.841 31.9609 135.802 32 135.724 32ZM140.189 32H137.47C137.392 32 137.353 31.9609 137.353 31.8828L137.376 15.3945C137.376 15.332 137.407 15.3008 137.47 15.3008H140.165C140.228 15.3008 140.259 15.332 140.259 15.3945L140.282 31.8828C140.282 31.9609 140.251 32 140.189 32ZM145.005 32H142.603C142.478 32 142.415 31.9453 142.415 31.8359L142.392 15.4883C142.392 15.3633 142.454 15.3008 142.579 15.3008H144.747L148.802 24.7578L148.685 15.4883C148.685 15.3633 148.755 15.3008 148.896 15.3008H151.275C151.368 15.3008 151.415 15.3633 151.415 15.4883L151.439 31.8594C151.439 31.9531 151.4 32 151.321 32H149.212L145.052 23.1641L145.228 31.8125C145.228 31.9375 145.153 32 145.005 32ZM157.919 32.2344C157.052 32.2344 156.271 32.0195 155.575 31.5898C154.872 31.1602 154.306 30.582 153.876 29.8555C153.454 29.1289 153.243 28.3164 153.243 27.418V19.8125C153.243 18.9375 153.458 18.1406 153.888 17.4219C154.31 16.6953 154.876 16.1172 155.587 15.6875C156.298 15.25 157.075 15.0312 157.919 15.0312C158.802 15.0312 159.599 15.2422 160.31 15.6641C161.021 16.0938 161.583 16.668 161.997 17.3867C162.419 18.1055 162.63 18.9141 162.63 19.8125V20.9141C162.63 20.9766 162.591 21.0078 162.513 21.0078H159.818C159.755 21.0078 159.724 20.9766 159.724 20.9141V20C159.724 19.3906 159.552 18.8867 159.208 18.4883C158.864 18.0898 158.435 17.8906 157.919 17.8906C157.458 17.8906 157.048 18.082 156.689 18.4648C156.329 18.8477 156.15 19.2969 156.15 19.8125V27.418C156.15 27.9414 156.325 28.3945 156.677 28.7773C157.028 29.1523 157.443 29.3398 157.919 29.3398C158.435 29.3398 158.864 29.1562 159.208 28.7891C159.552 28.4141 159.724 27.957 159.724 27.418V26.2344H158.048C157.962 26.2344 157.919 26.1953 157.919 26.1172V23.4336C157.919 23.3555 157.962 23.3164 158.048 23.3164H162.536C162.599 23.3164 162.63 23.3555 162.63 23.4336V27.418C162.63 28.3164 162.419 29.1289 161.997 29.8555C161.568 30.582 161.001 31.1602 160.298 31.5898C159.595 32.0195 158.802 32.2344 157.919 32.2344ZM98.4347 75H94.1339C94.0714 75 94.0402 74.9609 94.0402 74.8828L94.087 58.3945C94.087 58.332 94.1183 58.3008 94.1808 58.3008H98.798C99.6964 58.3008 100.513 58.5195 101.247 58.957C101.966 59.3945 102.532 59.9766 102.946 60.7031C103.36 61.4219 103.568 62.2031 103.568 63.0469C103.568 63.7344 103.411 64.375 103.099 64.9688C102.786 65.5625 102.415 66.043 101.985 66.4102C102.446 66.8711 102.806 67.4062 103.064 68.0156C103.321 68.625 103.45 69.2656 103.45 69.9375C103.45 70.8672 103.228 71.7148 102.782 72.4805C102.329 73.2461 101.724 73.8594 100.966 74.3203C100.208 74.7734 99.3644 75 98.4347 75ZM98.798 61.1484H96.9698V64.9219H98.798C99.3527 64.9219 99.8019 64.7266 100.146 64.3359C100.489 63.9375 100.661 63.5078 100.661 63.0469C100.661 62.5391 100.478 62.0977 100.11 61.7227C99.7433 61.3398 99.3058 61.1484 98.798 61.1484ZM98.4347 67.8281H96.9698L96.9464 72.0703H98.4347C99.0128 72.0703 99.5089 71.8594 99.923 71.4375C100.337 71.0156 100.544 70.5156 100.544 69.9375C100.544 69.3594 100.337 68.8633 99.923 68.4492C99.5089 68.0352 99.0128 67.8281 98.4347 67.8281ZM113.025 75H105.267C105.204 75 105.173 74.9609 105.173 74.8828L105.196 58.418C105.196 58.3398 105.235 58.3008 105.314 58.3008H107.985C108.064 58.3008 108.103 58.3398 108.103 58.418L108.079 72.0469H113.025C113.103 72.0469 113.142 72.0859 113.142 72.1641V74.8828C113.142 74.9609 113.103 75 113.025 75ZM122.564 75H114.806C114.743 75 114.712 74.9609 114.712 74.8828L114.735 58.3945C114.735 58.332 114.767 58.3008 114.829 58.3008H122.54C122.603 58.3008 122.634 58.3398 122.634 58.418V61.1016C122.634 61.1641 122.603 61.1953 122.54 61.1953H117.618V64.9453H122.54C122.603 64.9453 122.634 64.9766 122.634 65.0391L122.657 67.7578C122.657 67.8203 122.626 67.8516 122.564 67.8516H117.618V72.0469H122.564C122.626 72.0469 122.657 72.0859 122.657 72.1641V74.9062C122.657 74.9688 122.626 75 122.564 75ZM127.403 75H125.001C124.876 75 124.814 74.9453 124.814 74.8359L124.79 58.4883C124.79 58.3633 124.853 58.3008 124.978 58.3008H127.146L131.2 67.7578L131.083 58.4883C131.083 58.3633 131.153 58.3008 131.294 58.3008H133.673C133.767 58.3008 133.814 58.3633 133.814 58.4883L133.837 74.8594C133.837 74.9531 133.798 75 133.72 75H131.61L127.45 66.1641L127.626 74.8125C127.626 74.9375 127.552 75 127.403 75ZM140.341 74.9766L136.04 75C135.962 75 135.923 74.9609 135.923 74.8828L135.97 58.3945C135.97 58.332 136.001 58.3008 136.064 58.3008L140.552 58.2773C141.443 58.2539 142.247 58.457 142.966 58.8867C143.693 59.3164 144.271 59.8984 144.7 60.6328C145.138 61.3594 145.357 62.1641 145.357 63.0469V69.9375C145.357 70.8594 145.134 71.7031 144.689 72.4688C144.235 73.2266 143.634 73.832 142.884 74.2852C142.134 74.7305 141.286 74.9609 140.341 74.9766ZM140.552 61.1484L138.876 61.1719L138.853 72.0469H140.341C140.935 72.0469 141.435 71.8398 141.841 71.4258C142.247 71.0117 142.45 70.5156 142.45 69.9375V63.0234C142.45 62.5156 142.263 62.0742 141.888 61.6992C141.513 61.3164 141.068 61.1328 140.552 61.1484ZM155.095 75H147.337C147.275 75 147.243 74.9609 147.243 74.8828L147.267 58.3945C147.267 58.332 147.298 58.3008 147.36 58.3008H155.071C155.134 58.3008 155.165 58.3398 155.165 58.418V61.1016C155.165 61.1641 155.134 61.1953 155.071 61.1953H150.15V64.9453H155.071C155.134 64.9453 155.165 64.9766 155.165 65.0391L155.189 67.7578C155.189 67.8203 155.157 67.8516 155.095 67.8516H150.15V72.0469H155.095C155.157 72.0469 155.189 72.0859 155.189 72.1641V74.9062C155.189 74.9688 155.157 75 155.095 75ZM160.134 75H157.415C157.353 75 157.321 74.9609 157.321 74.8828L157.368 58.3945C157.368 58.332 157.4 58.3008 157.462 58.3008H162.314C163.181 58.3008 163.978 58.5117 164.704 58.9336C165.431 59.3555 166.009 59.9219 166.439 60.6328C166.876 61.3438 167.095 62.1484 167.095 63.0469C167.095 63.6328 167.005 64.1641 166.825 64.6406C166.646 65.1172 166.435 65.5195 166.193 65.8477C165.958 66.1758 165.743 66.418 165.548 66.5742C166.415 67.5352 166.849 68.6641 166.849 69.9609L166.872 74.8828C166.872 74.9609 166.833 75 166.755 75H164.036C163.974 75 163.943 74.9766 163.943 74.9297V69.9609C163.943 69.3828 163.739 68.8828 163.333 68.4609C162.927 68.0391 162.427 67.8281 161.833 67.8281H160.251L160.228 74.8828C160.228 74.9609 160.196 75 160.134 75ZM162.314 61.1719H160.251V64.9453H162.314C162.806 64.9453 163.243 64.7617 163.626 64.3945C164.017 64.0273 164.212 63.5781 164.212 63.0469C164.212 62.5391 164.025 62.1016 163.65 61.7344C163.275 61.3594 162.829 61.1719 162.314 61.1719ZM172.978 75.2344C172.126 75.2344 171.341 75.0156 170.622 74.5781C169.911 74.1406 169.341 73.5586 168.911 72.832C168.489 72.0977 168.278 71.293 168.278 70.418V69.3164C168.278 69.2305 168.318 69.1875 168.396 69.1875H171.091C171.153 69.1875 171.185 69.2305 171.185 69.3164V70.418C171.185 70.9414 171.36 71.3945 171.712 71.7773C172.064 72.1523 172.485 72.3398 172.978 72.3398C173.478 72.3398 173.903 72.1484 174.255 71.7656C174.607 71.375 174.782 70.9258 174.782 70.418C174.782 69.832 174.4 69.3203 173.634 68.8828C173.509 68.8047 173.345 68.7109 173.142 68.6016C172.946 68.4844 172.712 68.3516 172.439 68.2031C172.165 68.0547 171.9 67.9102 171.642 67.7695C171.384 67.6211 171.134 67.4805 170.892 67.3477C170.017 66.832 169.364 66.1875 168.935 65.4141C168.513 64.6328 168.302 63.7578 168.302 62.7891C168.302 61.8984 168.521 61.0938 168.958 60.375C169.396 59.6641 169.966 59.1016 170.669 58.6875C171.38 58.2656 172.15 58.0547 172.978 58.0547C173.829 58.0547 174.61 58.2656 175.321 58.6875C176.032 59.1172 176.599 59.6875 177.021 60.3984C177.45 61.1094 177.665 61.9062 177.665 62.7891V64.7578C177.665 64.8203 177.634 64.8516 177.571 64.8516H174.876C174.814 64.8516 174.782 64.8203 174.782 64.7578L174.759 62.7891C174.759 62.2266 174.583 61.7695 174.232 61.418C173.88 61.0664 173.462 60.8906 172.978 60.8906C172.485 60.8906 172.064 61.0781 171.712 61.4531C171.36 61.8281 171.185 62.2734 171.185 62.7891C171.185 63.3125 171.294 63.75 171.513 64.1016C171.739 64.4531 172.15 64.7891 172.743 65.1094C172.806 65.1406 172.95 65.2188 173.177 65.3438C173.403 65.4688 173.653 65.6094 173.927 65.7656C174.208 65.9141 174.462 66.0508 174.689 66.1758C174.915 66.293 175.052 66.3633 175.099 66.3867C175.896 66.832 176.525 67.3789 176.985 68.0273C177.454 68.6758 177.689 69.4727 177.689 70.418C177.689 71.332 177.478 72.1523 177.056 72.8789C176.626 73.6055 176.056 74.1797 175.345 74.6016C174.634 75.0234 173.845 75.2344 172.978 75.2344Z" fill="#A8A29E"/>
</svg>
