<svg width="164" height="165" viewBox="0 0 164 165" fill="none" xmlns="http://www.w3.org/2000/svg">
<g clip-path="url(#clip0_8_72)">
<path d="M131.158 48.2979L125.022 50.4628C118.542 41.6959 109.49 35.0428 98.8171 31.4544L97.6199 35.0157C112.39 39.9815 123.831 51.2469 129.01 65.9231C138.224 92.0382 124.475 120.781 98.3596 129.996C72.2445 139.21 43.5017 125.46 34.2871 99.3453C25.0726 73.2302 38.8222 44.4874 64.9373 35.2729C74.0132 32.0705 83.7394 31.5332 93.0646 33.7192L93.9222 30.061C83.8965 27.7109 73.4414 28.2879 63.6871 31.7296C50.0903 36.5272 39.175 46.3328 32.9528 59.34C29.0921 67.4106 27.3268 76.1146 27.6876 84.8068L21.5537 86.9711C18.4929 88.0511 16.8813 91.4199 17.9613 94.4808L24.6291 113.378C25.7091 116.439 29.078 118.051 32.1389 116.971L38.2727 114.806C43.4466 121.8 50.2833 127.469 58.3539 131.33C71.3611 137.552 86.013 138.336 99.6098 133.539C113.207 128.741 124.122 118.936 130.344 105.928C134.205 97.8576 135.97 89.1538 135.609 80.4616L141.743 78.2973C144.804 77.2173 146.416 73.8485 145.336 70.7876L138.668 51.8903C137.588 48.8294 134.219 47.2179 131.158 48.2979ZM36.0755 111.597L30.8886 113.427C29.7815 113.818 28.563 113.235 28.1724 112.128L21.5046 93.2306C21.1139 92.1234 21.6968 90.905 22.8039 90.5143L27.9908 88.6842C28.4511 92.6989 29.366 96.6907 30.7439 100.596C32.1217 104.5 33.9144 108.182 36.0755 111.597ZM141.792 72.0378C142.183 73.1449 141.6 74.3635 140.493 74.7541L135.306 76.5842C134.846 72.5694 133.931 68.5775 132.553 64.6728C131.174 60.7644 129.381 57.0819 127.223 53.6708L132.408 51.8411C133.515 51.4506 134.734 52.0334 135.125 53.1405L141.792 72.0378Z" fill="#FECACA" fill-opacity="0.25"/>
<path d="M74.0971 78.9237C78.1184 90.3206 90.6619 96.321 102.059 92.2997C113.456 88.2783 119.456 75.7348 115.435 64.3379C111.414 52.9409 98.8701 46.9405 87.4731 50.9619C76.0762 54.9832 70.0757 67.5267 74.0971 78.9237ZM88.7233 54.5051C98.1665 51.1731 108.56 56.1449 111.892 65.5881C115.224 75.0313 110.252 85.4245 100.809 88.7565C91.3655 92.0884 80.9723 87.1167 77.6403 77.6735C74.3084 68.2303 79.2801 57.8371 88.7233 54.5051Z" fill="#FECACA" fill-opacity="0.25"/>
<path d="M124.994 67.34C116.561 43.4392 90.2553 30.8552 66.3542 39.2886C42.4532 47.7219 29.8695 74.0276 38.3028 97.9285C43.2729 112.014 54.8355 122.843 69.2329 126.894L70.2508 123.277C57.0287 119.557 46.41 109.613 41.846 96.6783C34.1021 74.7312 45.6573 50.5757 67.6044 42.8318C89.5515 35.0879 113.707 46.6431 121.451 68.5902C129.195 90.5373 117.64 114.693 95.6925 122.437C88.6948 124.906 81.1643 125.493 73.9151 124.135L73.2233 127.828C81.121 129.307 89.3228 128.669 96.9427 125.98C120.844 117.547 133.427 91.2408 124.994 67.34Z" fill="#FECACA" fill-opacity="0.25"/>
<path d="M70.8215 118.197C71.5295 117.947 72.1587 117.573 72.6962 117.111L73.5378 119.496C74.6178 122.557 77.9867 124.168 81.0475 123.088C84.1084 122.008 85.72 118.64 84.64 115.579L73.9715 85.343C72.8915 82.2821 69.5226 80.6706 66.4618 81.7506C65.7541 82.0003 65.1238 82.3725 64.5864 82.8346L63.7455 80.4512C62.6655 77.3903 59.2966 75.7788 56.2357 76.8588C55.5278 77.1086 54.8985 77.482 54.361 77.9445L53.5194 75.5594C52.4394 72.4985 49.0706 70.887 46.0097 71.967C42.9488 73.047 41.3373 76.4158 42.4173 79.4767L53.0857 109.712C54.1658 112.773 57.5346 114.385 60.5955 113.305C61.3032 113.055 61.9334 112.683 62.4708 112.221L63.3118 114.604C64.3918 117.665 67.7606 119.277 70.8215 118.197ZM66.4126 88.0101C66.0219 86.903 66.6051 85.6844 67.712 85.2938C68.8189 84.9033 70.0376 85.4861 70.4283 86.5932L81.0967 116.829C81.4874 117.936 80.9042 119.155 79.7973 119.545C78.6904 119.936 77.4717 119.353 77.081 118.246L66.4126 88.0101ZM56.1866 83.1183C55.7959 82.0112 56.379 80.7926 57.4859 80.402C58.5928 80.0115 59.8116 80.5943 60.2022 81.7014L70.8707 111.937C71.2613 113.044 70.6782 114.263 69.5713 114.653C68.4644 115.044 67.2457 114.461 66.855 113.354L56.1866 83.1183ZM59.3453 109.762C58.2384 110.152 57.0196 109.569 56.629 108.462L45.9605 78.2265C45.5699 77.1194 46.153 75.9008 47.2599 75.5102C48.3668 75.1197 49.5855 75.7025 49.9762 76.8096L60.6447 107.045C61.0353 108.152 60.4522 109.371 59.3453 109.762Z" fill="#FECACA" fill-opacity="0.25"/>
<path d="M98.0582 80.9613C103.203 79.146 105.912 73.4834 104.096 68.3386C102.281 63.1938 96.6185 60.4849 91.4737 62.3002C86.3289 64.1156 83.6201 69.7782 85.4354 74.923C87.2507 80.0678 92.9134 82.7766 98.0582 80.9613ZM92.7239 65.8435C95.9152 64.7175 99.4273 66.3977 100.553 69.5888C101.679 72.7798 99.9992 76.2921 96.808 77.4181C93.6167 78.5441 90.1046 76.8638 88.9787 73.6728C87.8527 70.4818 89.5327 66.9695 92.7239 65.8435Z" fill="#FECACA" fill-opacity="0.25"/>
<path d="M84.4679 96.6472L88.2474 95.3137L89.4976 98.8569L85.7181 100.19L84.4679 96.6472Z" fill="#FECACA" fill-opacity="0.25"/>
<path d="M82.0217 101.76L85.8014 100.427L87.0516 103.97L83.2719 105.304L82.0217 101.76Z" fill="#FECACA" fill-opacity="0.25"/>
<path d="M76.5802 44.1804L80.3599 42.8467L81.6101 46.39L77.8304 47.7236L76.5802 44.1804Z" fill="#FECACA" fill-opacity="0.25"/>
<path d="M74.1344 49.2934L77.9139 47.9598L79.1641 51.5031L75.3846 52.8366L74.1344 49.2934Z" fill="#FECACA" fill-opacity="0.25"/>
<path d="M98.7218 118.977C100.638 118.301 102.13 116.955 103.029 115.295C103.263 115.236 103.495 115.168 103.724 115.087C106.751 114.019 108.718 111.282 108.962 108.272C111.212 106.147 112.028 102.862 110.985 99.9078C109.538 95.805 105.022 93.6448 100.919 95.0924C97.9651 96.1348 95.9197 98.8303 95.677 101.916C95.0742 102.486 94.5609 103.151 94.161 103.888C93.9301 103.947 93.6998 104.015 93.4709 104.096C89.3681 105.543 87.2079 110.059 88.6556 114.162C90.1032 118.265 94.619 120.425 98.7218 118.977ZM102.169 98.6357C104.319 97.8774 106.684 99.0089 107.442 101.158C107.679 101.829 107.73 102.531 107.619 103.204C106.028 100.87 103.281 99.5556 100.466 99.7816C100.92 99.2734 101.499 98.8723 102.169 98.6357ZM99.7236 103.749C101.873 102.99 104.238 104.122 104.996 106.271C105.556 107.857 105.084 109.559 103.935 110.648C103.869 110.067 103.74 109.485 103.537 108.911C102.733 106.633 100.984 104.955 98.8844 104.16C99.1462 103.994 99.4262 103.854 99.7236 103.749ZM94.7211 107.639C96.8702 106.88 99.2356 108.012 99.9939 110.161C100.752 112.31 99.6207 114.676 97.4716 115.434C95.3225 116.192 92.9571 115.061 92.1988 112.912C91.4405 110.762 92.572 108.397 94.7211 107.639Z" fill="#FECACA" fill-opacity="0.25"/>
<path d="M63.3521 48.8478C61.4357 49.524 59.9435 50.8697 59.0447 52.5298C58.8111 52.5889 58.5788 52.657 58.3497 52.7379C55.3231 53.8058 53.3559 56.5433 53.112 59.5529C50.8615 61.6783 50.046 64.9628 51.0884 67.9171C52.5361 72.02 57.0518 74.1802 61.1547 72.7325C64.1088 71.6902 66.154 68.9947 66.3969 65.9093C66.9997 65.339 67.5128 64.674 67.9129 63.9365C68.1438 63.8779 68.3741 63.8102 68.6032 63.7293C72.7061 62.2817 74.8662 57.7659 73.4186 53.6631C71.9709 49.5602 67.4549 47.4001 63.3521 48.8478ZM59.9045 69.1893C57.7554 69.9475 55.39 68.816 54.6317 66.6669C54.395 65.9963 54.3439 65.2934 54.4547 64.6214C56.0455 66.9551 58.7928 68.2693 61.6081 68.0433C61.1544 68.5514 60.5751 68.9526 59.9045 69.1893ZM62.3504 64.0762C60.2013 64.8345 57.8359 63.703 57.0776 61.5539C56.5178 59.9675 56.9901 58.2655 58.1389 57.1767C58.2046 57.7576 58.3341 58.3398 58.5367 58.914C59.3405 61.1919 61.0902 62.8695 63.1895 63.6646C62.9277 63.8311 62.6475 63.9714 62.3504 64.0762ZM67.3528 60.1862C65.2037 60.9445 62.8383 59.8129 62.08 57.6638C61.3217 55.5147 62.4532 53.1493 64.6023 52.391C66.7514 51.6327 69.1168 52.7643 69.8751 54.9134C70.6334 57.0625 69.5019 59.4279 67.3528 60.1862Z" fill="#FECACA" fill-opacity="0.25"/>
</g>
<defs>
<clipPath id="clip0_8_72">
<rect width="128" height="128" fill="white" transform="translate(0 43.5762) rotate(-19.4351)"/>
</clipPath>
</defs>
</svg>
