<svg width="64" height="64" viewBox="0 0 64 64" fill="none" xmlns="http://www.w3.org/2000/svg">
<path fill-rule="evenodd" clip-rule="evenodd" d="M5.18748 19.8C5.18748 19.0625 5.79071 18.4594 6.5281 18.4594H15.9125V29.1844H5.18748V19.8ZM18.5937 18.4594H29.3187V29.1844H18.5937V18.4594ZM32 18.4594H42.725V29.1844H32V18.4594ZM45.4062 18.4594H54.3214C55.595 18.4594 56.7346 19.3977 56.9356 20.6711L58.4774 30.1899C58.6114 31.1953 58.7455 32.2008 58.7455 33.2063H49.4281L45.4062 29.1844V18.4594ZM2.50623 18.4594V42.5907C2.50623 44.0653 3.71279 45.2719 5.18748 45.2719H5.32154C5.25455 44.8695 5.18748 44.4004 5.18748 43.9313C5.18748 40.2446 8.20391 37.2282 11.8906 37.2282C15.5774 37.2282 18.5937 40.2446 18.5937 43.9313C18.5937 44.4004 18.5267 44.8695 18.4597 45.2719H42.859C42.7921 44.8695 42.725 44.4004 42.725 43.9313C42.725 40.2446 45.7414 37.2282 49.4281 37.2282C53.1148 37.2282 56.1312 40.2446 56.1312 43.9313C56.1312 44.4004 56.0642 44.8695 55.9972 45.2719H58.8125C60.2872 45.2719 61.4937 44.0653 61.4937 42.5907V34.0106C61.4937 32.6027 61.3596 31.1281 61.1586 29.7203L59.6169 20.1352C59.1477 17.5879 56.9356 15.7109 54.3214 15.7109H5.18748C3.71279 15.7781 2.50623 16.9844 2.50623 18.4594Z" fill="#EF4444"/>
<path fill-rule="evenodd" clip-rule="evenodd" d="M54.1203 43.9314C54.1203 46.5228 52.0196 48.6236 49.4281 48.6236C46.8367 48.6236 44.736 46.5228 44.736 43.9314C44.736 41.3401 46.8367 39.2393 49.4281 39.2393C52.0196 39.2393 54.1203 41.3401 54.1203 43.9314Z" fill="#EF4444"/>
<path fill-rule="evenodd" clip-rule="evenodd" d="M16.5827 43.9314C16.5827 46.5228 14.482 48.6236 11.8906 48.6236C9.29909 48.6236 7.19836 46.5228 7.19836 43.9314C7.19836 41.3401 9.29909 39.2393 11.8906 39.2393C14.482 39.2393 16.5827 41.3401 16.5827 43.9314Z" fill="#EF4444"/>
</svg>
