<svg width="32" height="32" viewBox="0 0 32 32" fill="none" xmlns="http://www.w3.org/2000/svg">
<g clip-path="url(#clip0_7_63)">
<path d="M0.937576 26.3125H5.62507V29.1249C5.62507 29.6427 6.04482 30.0624 6.56256 30.0624H31.0625C31.5803 30.0624 32 29.6427 32 29.1249V4.74999C32 4.23225 31.5803 3.8125 31.0625 3.8125H26.375V2.875C26.375 2.35725 25.9553 1.9375 25.4375 1.9375C24.9198 1.9375 24.5 2.35725 24.5 2.875V3.8125H19.75V2.875C19.75 2.35725 19.3303 1.9375 18.8125 1.9375C18.2948 1.9375 17.875 2.35725 17.875 2.875V3.8125H13.1876V2.875C13.1876 2.35725 12.7678 1.9375 12.2501 1.9375C11.7323 1.9375 11.3126 2.35725 11.3126 2.875V3.8125H6.56256C6.04482 3.8125 5.62507 4.23225 5.62507 4.74999V10.375C5.62507 17.2843 2.75351 22.5997 0.33739 24.6548C0.0341406 24.9075 -0.0782966 25.323 0.0560156 25.6941C0.190453 26.0653 0.542827 26.3125 0.937576 26.3125ZM30.125 28.1874H7.50006V26.3125H25.4375C25.6568 26.3125 25.8692 26.2356 26.0377 26.0951C27.1647 25.1565 28.9104 22.9216 30.125 20.0592V28.1874ZM7.50006 5.68749H11.3126V6.62499C11.3126 7.14274 11.7323 7.56249 12.2501 7.56249C12.7678 7.56249 13.1876 7.14274 13.1876 6.62499V5.68749H17.875V6.62499C17.875 7.14274 18.2948 7.56249 18.8125 7.56249C19.3303 7.56249 19.75 7.14274 19.75 6.62499V5.68749H24.5V6.62499C24.5 7.14274 24.9198 7.56249 25.4375 7.56249C25.9553 7.56249 26.375 7.14274 26.375 6.62499V5.68749H30.125V9.43749H7.50006V5.68749ZM7.484 11.3119H30.1084C29.8971 17.259 27.6146 21.9383 25.0699 24.4375H3.07001C5.95332 20.7637 7.32931 15.9801 7.484 11.3119Z" fill="#292524"/>
</g>
<defs>
<clipPath id="clip0_7_63">
<rect width="32" height="32" fill="white"/>
</clipPath>
</defs>
</svg>
