<svg width="64" height="64" viewBox="0 0 64 64" fill="none" xmlns="http://www.w3.org/2000/svg">
<path fill-rule="evenodd" clip-rule="evenodd" d="M20.7734 41.0576C20.7734 43.8765 18.2603 46.162 15.1602 46.162C12.06 46.162 9.54688 43.8765 9.54688 41.0576C9.54688 38.2387 12.06 35.9531 15.1602 35.9531C18.2603 35.9531 20.7734 38.2387 20.7734 41.0576Z" fill="#EF4444"/>
<path fill-rule="evenodd" clip-rule="evenodd" d="M54.453 41.0576C54.453 43.8765 51.9398 46.162 48.8397 46.162C45.7396 46.162 43.2264 43.8765 43.2264 41.0576C43.2264 38.2387 45.7396 35.9531 48.8397 35.9531C51.9398 35.9531 54.453 38.2387 54.453 41.0576Z" fill="#EF4444"/>
<path fill-rule="evenodd" clip-rule="evenodd" d="M25.685 28.2967V20.6401H35.2978C36.0696 20.6401 36.7712 20.8951 37.2624 21.4057L44.8403 28.2967H25.685V28.2967ZM22.8784 28.2967H5.12643L12.7044 21.4057C13.2657 20.8952 13.9673 20.6401 14.669 20.6401H22.8784V28.2967ZM55.8563 28.2967H50.0326C49.2608 28.2967 48.5591 28.0417 48.068 27.5312L39.2271 19.5555C38.1745 18.5984 36.7712 18.0879 35.2276 18.0879H14.669C13.1955 18.0879 11.722 18.5984 10.6695 19.5555L1.96894 27.5311C1.4076 28.0417 1.12695 28.6797 1.12695 29.3813V35.9534C1.12695 38.7606 3.65294 41.0578 6.74023 41.0578H7.44189C7.44189 37.1655 10.8801 34.0392 15.1601 34.0392C19.4403 34.0392 22.8784 37.1655 22.8784 41.0578H41.1215C41.1215 37.1655 44.5597 34.0392 48.8398 34.0392C53.1199 34.0392 56.558 37.1655 56.558 41.0578H60.0663C61.61 41.0578 62.8729 39.9092 62.8729 38.5056V34.6773C62.8729 31.168 59.7155 28.2967 55.8563 28.2967Z" fill="#EF4444"/>
</svg>
