<svg width="149" height="149" viewBox="0 0 149 149" fill="none" xmlns="http://www.w3.org/2000/svg">
<g clip-path="url(#clip0_8_271)">
<path d="M111.519 77.7446C104.816 76.5753 98.412 81.0771 97.2427 87.7797C96.0734 94.4822 100.575 100.887 107.278 102.056C113.98 103.225 120.385 98.7234 121.554 92.0209C122.723 85.3184 118.222 78.9139 111.519 77.7446ZM100.937 88.4241C101.373 85.9236 102.857 83.864 104.857 82.6155L102.659 95.2169C101.199 93.3648 100.501 90.9246 100.937 88.4241ZM106.016 97.7937L108.889 81.3276C109.54 81.289 110.205 81.322 110.874 81.4388C111.545 81.5557 112.182 81.7501 112.781 82.007L109.909 98.4726C109.258 98.5114 108.592 98.4784 107.922 98.3615C107.253 98.2449 106.616 98.0506 106.016 97.7937ZM113.94 97.1842L116.138 84.5843C117.598 86.4364 118.296 88.8762 117.86 91.3762C117.424 93.8762 115.94 95.9356 113.94 97.1842Z" fill="#FECACA" fill-opacity="0.25"/>
<path d="M57.1823 41.9825C56.1622 41.8046 55.1909 42.4873 55.013 43.5074L55.0083 43.534C54.8304 44.5541 55.5131 45.5254 56.5332 45.7033C57.5533 45.8813 58.5246 45.1985 58.7025 44.1785L58.7072 44.1519C58.8851 43.1318 58.2024 42.1605 57.1823 41.9825Z" fill="#FECACA" fill-opacity="0.25"/>
<path d="M61.7557 46.8332C60.7356 46.6552 59.7644 47.3379 59.5864 48.358L59.5818 48.3846C59.4038 49.4047 60.0865 50.376 61.1066 50.554C62.1267 50.7319 63.098 50.0492 63.276 49.0291L63.2806 49.0025C63.4586 47.9824 62.7758 47.0111 61.7557 46.8332Z" fill="#FECACA" fill-opacity="0.25"/>
<path d="M52.7897 70.0114C51.7696 69.8334 50.7983 70.5162 50.6203 71.5363L50.6157 71.5629C50.4377 72.5829 51.1205 73.5542 52.1406 73.7322C53.1606 73.9102 54.1319 73.2274 54.3099 72.2073L54.3145 72.1807C54.4925 71.1604 53.8098 70.1893 52.7897 70.0114Z" fill="#FECACA" fill-opacity="0.25"/>
<path d="M57.3629 74.8618C56.3428 74.6838 55.3715 75.3665 55.1936 76.3866L55.1889 76.4132C55.011 77.4333 55.6937 78.4046 56.7138 78.5826C57.7339 78.7605 58.7052 78.0778 58.8831 77.0577L58.8878 77.0311C59.0657 76.011 58.383 75.0397 57.3629 74.8618Z" fill="#FECACA" fill-opacity="0.25"/>
<path d="M44.555 98.4658C43.5349 98.2878 42.5636 98.9706 42.3856 99.9907L42.381 100.017C42.203 101.037 42.8858 102.009 43.9059 102.187C44.926 102.365 45.8973 101.682 46.0752 100.662L46.0799 100.635C46.2578 99.615 45.5753 98.6438 44.555 98.4658Z" fill="#FECACA" fill-opacity="0.25"/>
<path d="M37.9332 101.893C36.9131 101.715 35.9418 102.398 35.7639 103.418L35.7592 103.445C35.5813 104.465 36.264 105.436 37.2841 105.614C38.3042 105.792 39.2755 105.109 39.4534 104.089L39.4581 104.063C39.6361 103.042 38.9533 102.071 37.9332 101.893Z" fill="#FECACA" fill-opacity="0.25"/>
<path d="M61.8797 107.974C62.0576 106.954 61.3749 105.983 60.3548 105.805C59.3347 105.627 58.3634 106.31 58.1855 107.33L58.1808 107.356C58.0029 108.376 58.6856 109.348 59.7057 109.526C60.7258 109.704 61.6971 109.021 61.875 108.001L61.8797 107.974Z" fill="#FECACA" fill-opacity="0.25"/>
<path d="M143.068 47.3608C145.518 33.3147 136.084 19.8939 122.039 17.4436C115.792 16.3539 109.671 17.6159 104.582 20.5869C98.5403 17.264 92.0054 14.971 85.1494 13.775C75.8075 12.1452 66.4761 12.6156 57.4136 15.1724C56.4169 15.4535 55.837 16.4895 56.1182 17.4862C56.3207 18.2034 56.9136 18.7047 57.6017 18.8248C57.8696 18.8715 58.1522 18.8604 58.432 18.7816C66.9489 16.3785 75.7211 15.9371 84.5046 17.4694C90.3326 18.4861 95.9127 20.345 101.125 22.999C99.7243 24.1553 98.442 25.4585 97.3057 26.8921C92.9809 24.8537 88.38 23.4004 83.6157 22.5693C73.4532 20.7964 63.0822 21.9628 53.6161 25.9412C49.2342 25.6556 44.9074 26.0727 40.7752 27.1247C43.759 25.0509 46.9346 23.2509 50.2876 21.7445C51.2321 21.32 51.6538 20.2102 51.2296 19.2657C50.8051 18.3212 49.6956 17.8995 48.7509 18.3237C41.4244 21.6153 34.8861 26.2136 29.3076 31.989C23.2612 35.7225 18.1461 41.0436 14.6206 47.6335C13.9415 48.9052 13.9131 50.4368 14.5441 51.7305C14.8485 52.3544 15.2789 52.8824 15.8004 53.2927C14.4096 56.9765 13.3611 60.8103 12.6799 64.7148C12.2037 67.4446 11.908 70.2234 11.7946 72.9829C11.2431 73.8513 10.7196 74.7444 10.2282 75.6629C9.54939 76.9339 9.52063 78.4647 10.1513 79.7576C10.5722 80.6208 11.2341 81.3016 12.047 81.7376C12.512 86.3991 13.5058 91.0034 15.0089 95.4575C12.9263 97.8192 11.0892 100.446 9.55487 103.315C8.87514 104.586 8.84588 106.116 9.47624 107.41C10.1137 108.718 11.3015 109.611 12.7351 109.862L23.2934 111.703C32.912 125.281 47.2003 134.321 63.6206 137.185C80.1024 140.061 96.7176 136.346 110.406 126.724C124.094 117.103 133.216 102.727 136.091 86.2448C137.531 77.9875 137.322 69.6909 135.475 61.5812C139.328 57.8989 142.084 53.0023 143.068 47.3608ZM139.374 46.7163C137.279 58.7252 125.804 66.7907 113.795 64.6957C101.786 62.6006 93.7205 51.1262 95.8155 39.1174C97.9105 27.1085 109.385 19.0428 121.394 21.1378C133.403 23.2328 141.469 34.7072 139.374 46.7163ZM106.9 104.223C99.002 102.845 93.6977 95.299 95.0755 87.4013C96.4533 79.5036 103.999 74.1993 111.897 75.5771C119.795 76.9549 125.099 84.501 123.721 92.3987C122.344 100.296 114.797 105.601 106.9 104.223ZM95.1715 30.0371C93.707 32.581 92.6543 35.4175 92.1214 38.4726C89.671 52.5185 99.1046 65.9392 113.151 68.3896C116.802 69.0267 120.411 68.8588 123.796 68.0174C124.356 71.713 124.494 75.4518 124.209 79.1916C121.513 75.4617 117.423 72.7347 112.542 71.8831C102.607 70.15 93.1144 76.8224 91.3812 86.7571C89.6481 96.6918 96.3205 106.184 106.255 107.917C108.338 108.281 110.399 108.27 112.376 107.942C101.002 121.249 83.3331 127.758 65.7989 124.699C57.8982 123.321 50.5647 120.127 44.2724 115.364L52.7804 116.848C53.8005 117.026 54.7718 116.344 54.9497 115.324C55.1277 114.303 54.445 113.332 53.4249 113.154L38.3102 110.517C38.2977 110.515 38.2853 110.513 38.2727 110.511L24.7253 108.147C24.716 108.146 24.7066 108.144 24.6973 108.143L21.4767 107.581C24.2246 103.178 28.1781 99.5232 32.8237 97.1447C38.416 94.2815 44.6533 93.3404 50.8613 94.4234C57.0693 95.5064 62.6192 98.5038 66.9119 103.092C70.4777 106.903 72.9605 111.681 74.0558 116.753L62.2274 114.69C61.2073 114.512 60.2361 115.195 60.0581 116.215C59.8801 117.235 60.5629 118.206 61.583 118.384L81.508 121.86C82.9416 122.11 84.3619 121.671 85.4046 120.657C86.4357 119.653 86.9265 118.203 86.7171 116.777C85.3373 107.377 80.846 99.036 74.2923 92.8296L82.1834 94.2062C83.6163 94.4562 85.036 94.0179 86.0785 93.004C87.1097 92.001 87.6007 90.5508 87.3924 89.1238C85.9159 79.0674 80.8773 70.2239 73.563 63.9089L86.5753 66.179C88.0076 66.4289 89.4271 65.9905 90.4699 64.9764C91.5017 63.9726 91.9934 62.5217 91.7849 61.0939C89.3641 44.604 77.368 31.3728 61.4589 27.2105C68.4353 25.3393 75.7595 25.0051 82.9718 26.2633C87.2093 27.0026 91.3059 28.2715 95.1715 30.0371ZM53.0018 82.154C47.5531 81.2034 42.116 81.3657 36.956 82.5094L22.1528 79.9269C24.9 75.5246 28.853 71.8695 33.4981 69.4912C39.0903 66.6279 45.3276 65.6869 51.5356 66.7699C57.7436 67.8529 63.2935 70.8503 67.5862 75.438C71.1518 79.2488 73.6337 84.0261 74.728 89.0989L67.9794 87.9216C63.5111 85.0982 58.4502 83.1045 53.0018 82.154ZM25.7133 86.8029C25.5173 85.9624 25.3433 85.1152 25.1912 84.2636L29.3538 84.9898C28.1116 85.5339 26.8963 86.1388 25.7133 86.8029ZM14.0538 78.514C13.7332 78.4581 13.583 78.2395 13.5217 78.1141C13.459 77.9857 13.3777 77.7261 13.5353 77.431C14.0413 76.4852 14.5844 75.5689 15.1599 74.6816C15.1983 74.6291 15.2345 74.5745 15.2671 74.5181C15.711 73.8418 16.1742 73.1826 16.6562 72.5419L17.2214 73.0146C17.4829 73.2333 17.7867 73.3685 18.1 73.4231C18.7383 73.5345 19.417 73.3113 19.8624 72.7787C20.5266 71.9843 20.421 70.8018 19.6266 70.1376L19.0576 69.662C21.1877 67.3537 23.5836 65.3423 26.1793 63.6584L26.5535 64.3038C26.8428 64.8029 27.3272 65.1186 27.8545 65.2106C28.2734 65.2837 28.7196 65.2153 29.1162 64.9856C30.0121 64.4661 30.3172 63.319 29.798 62.4231L29.4236 61.7774C32.1865 60.3559 35.1252 59.2797 38.1725 58.5804L38.3025 59.3104C38.4448 60.108 39.0718 60.6975 39.8261 60.8291C40.036 60.8657 40.2555 60.867 40.4773 60.8275C41.4967 60.6457 42.1759 59.672 41.9942 58.6526L41.8647 57.9257C44.9106 57.5425 48.0349 57.5318 51.1752 57.9213L51.0505 58.636C50.8726 59.6561 51.5553 60.6274 52.5754 60.8053C53.5955 60.9833 54.5668 60.3006 54.7447 59.2805L54.8694 58.5658C57.9563 59.2629 60.8922 60.3306 63.6285 61.7225L63.2605 62.3623C62.7443 63.2602 63.0537 64.4062 63.9513 64.9224C64.1467 65.0346 64.3537 65.1078 64.5635 65.1444C65.3179 65.276 66.1077 64.9339 66.5114 64.2313L66.8809 63.5888C69.5116 65.2785 71.9121 67.2859 74.0307 69.5591L73.4595 70.0401C72.6674 70.7071 72.5661 71.8901 73.2331 72.682C73.5285 73.0327 73.9251 73.2481 74.3441 73.3212C74.8711 73.4131 75.4338 73.2801 75.875 72.9084L76.4459 72.4276C78.3184 74.8911 79.8918 77.5952 81.1146 80.4882L80.4173 80.7434C79.445 81.0993 78.9452 82.1762 79.3011 83.1486C79.5398 83.8008 80.1029 84.2404 80.7413 84.3517C81.0546 84.4064 81.3862 84.3818 81.7063 84.2648L82.399 84.0113C82.9639 85.8398 83.3954 87.7286 83.6802 89.6677C83.7287 90.0002 83.5643 90.2169 83.4619 90.3166C83.362 90.4138 83.1464 90.5686 82.826 90.5127L78.6794 89.7893C77.6299 83.5097 74.6949 77.5494 70.3229 72.8768C65.4694 67.6895 59.1952 64.3005 52.1784 63.0764C45.1617 61.8523 38.1106 62.9166 31.7876 66.1541C26.0916 69.0706 21.3117 73.685 18.1981 79.238L14.0537 78.515L14.0538 78.514ZM53.6939 54.5046C53.6877 54.5035 53.6822 54.5015 53.6761 54.5004C53.6702 54.4994 53.6644 54.4992 53.6584 54.4984C49.2086 53.7238 44.7669 53.6923 40.4772 54.3303L26.5426 51.8993C29.2907 47.4964 33.245 43.8413 37.8909 41.4626C43.4832 38.5994 49.7205 37.6583 55.9284 38.7413C62.1364 39.8243 67.6864 42.8217 71.979 47.4095C75.5451 51.2208 78.0281 55.9991 79.1233 61.0723L66.1527 58.8095C62.3326 56.757 58.1428 55.2827 53.6939 54.5046ZM31.7784 56.6194C30.2611 57.2023 28.7801 57.8743 27.3436 58.6317C27.6569 57.7519 27.9948 56.8815 28.3565 56.0224L31.7784 56.6194ZM30.5724 35.6286L30.9469 36.2748C31.2362 36.7739 31.7206 37.0896 32.2479 37.1816C32.6668 37.2547 33.113 37.1864 33.5096 36.9566C34.4055 36.4371 34.7107 35.29 34.1914 34.3942L33.8165 33.7473C36.5797 32.3256 39.5181 31.2493 42.5656 30.5501L42.696 31.2809C42.8383 32.0785 43.4653 32.668 44.2196 32.7996C44.4295 32.8362 44.649 32.8375 44.8708 32.798C45.8902 32.6163 46.5694 31.6425 46.3877 30.6231L46.2581 29.8955C49.3042 29.5123 52.4286 29.5016 55.5691 29.8911L55.4442 30.6068C55.2663 31.6269 55.949 32.5982 56.9691 32.7761C57.9892 32.9541 58.9605 32.2714 59.1384 31.2513L59.2633 30.5356C62.3502 31.2327 65.2863 32.3005 68.0228 33.6927L67.6545 34.3332C67.1382 35.2311 67.4476 36.3771 68.3453 36.8933C68.5407 37.0055 68.7477 37.0787 68.9575 37.1153C69.7119 37.2469 70.5014 36.9047 70.9054 36.2022L71.2752 35.5589C73.9059 37.2487 76.3066 39.2564 78.4252 41.5296L77.8538 42.0108C77.0616 42.6778 76.9603 43.8607 77.6274 44.6527C77.9227 45.0034 78.3194 45.2188 78.7383 45.2919C79.2653 45.3838 79.8281 45.2508 80.2693 44.8791L80.8404 44.3981C82.7129 46.8618 84.2863 49.5657 85.5091 52.4589L84.8118 52.7141C83.8394 53.07 83.3397 54.1469 83.6956 55.1193C83.9343 55.7715 84.4974 56.2111 85.1358 56.3224C85.449 56.3771 85.7807 56.3525 86.1008 56.2355L86.7937 55.9818C87.3584 57.8101 87.79 59.6986 88.0746 61.6371C88.1233 61.9704 87.958 62.188 87.8552 62.2881C87.7553 62.3853 87.5397 62.5403 87.2198 62.4845L83.0741 61.7613C82.025 55.4813 79.0898 49.5202 74.7174 44.847C69.864 39.6597 63.5898 36.2707 56.573 35.0466C49.5562 33.8225 42.5052 34.8868 36.1822 38.1243C30.4857 41.0409 25.7054 45.6561 22.5919 51.2099L18.5408 50.5031C18.5364 50.5024 18.5319 50.5016 18.5275 50.5008L18.4457 50.4865C18.1261 50.4308 17.9757 50.2119 17.9146 50.0866C17.8518 49.9576 17.7699 49.6969 17.9281 49.4012C18.8526 47.6731 19.8982 46.0418 21.0489 44.5125L21.6148 44.9856C21.8763 45.2043 22.1801 45.3395 22.4934 45.3942C23.1317 45.5055 23.8104 45.2823 24.2559 44.7497C24.92 43.9553 24.8144 42.7728 24.02 42.1086L23.4504 41.6324C25.5805 39.3241 27.9766 37.3128 30.5724 35.6286ZM16.3741 65.3596C17.0249 61.6289 18.0321 57.968 19.3705 54.4548L24.5734 55.3624C23.75 57.4076 23.0525 59.5087 22.4891 61.6386C20.1654 63.3119 18.0074 65.2357 16.0568 67.3877C16.1508 66.7093 16.2566 66.0329 16.3741 65.3596ZM15.9209 82.6464L21.2766 83.5807C21.5502 85.3726 21.9153 87.1521 22.3676 88.8986C20.8303 89.9675 19.3624 91.1445 17.9756 92.4229C17.0119 89.2247 16.3251 85.9533 15.9209 82.6464ZM12.8471 105.768C12.7847 105.639 12.7033 105.38 12.8615 105.084C13.786 103.356 14.8317 101.725 15.9824 100.195L16.5476 100.668C16.8092 100.886 17.113 101.022 17.4262 101.076C18.0646 101.188 18.7433 100.964 19.1887 100.432C19.8529 99.6374 19.7473 98.4549 18.9528 97.7908L18.387 97.3177C18.491 97.2262 18.5848 97.1249 18.6652 97.0145C20.7242 94.8322 23.0232 92.9216 25.5057 91.3113L25.88 91.957C26.1693 92.4561 26.6535 92.7718 27.1808 92.8638C27.5997 92.9368 28.0458 92.8685 28.4425 92.6385C29.3384 92.119 29.6433 90.9718 29.124 90.076L28.7495 89.43C31.462 88.0342 34.3439 86.9719 37.3319 86.272C37.3884 86.2626 37.4442 86.2507 37.4993 86.2362L37.6288 86.9631C37.7711 87.7606 38.3981 88.3502 39.1525 88.4818C39.3623 88.5184 39.5819 88.5196 39.8037 88.4802C40.8231 88.2984 41.5023 87.3246 41.3205 86.3052L41.1909 85.5779C44.2368 85.1946 47.3611 85.1839 50.5017 85.5734L50.3768 86.2889C50.1989 87.309 50.8816 88.2803 51.9017 88.4582C52.9218 88.6362 53.8931 87.9535 54.071 86.9334L54.1959 86.2179C57.2828 86.9148 60.2189 87.9828 62.9551 89.3748L62.5869 90.015C62.0706 90.9129 62.3801 92.0589 63.2777 92.5751C63.4731 92.6873 63.6801 92.7605 63.8899 92.7971C64.6443 92.9287 65.4338 92.5865 65.8378 91.884L66.2057 91.2442C66.2531 91.2768 66.3023 91.3073 66.353 91.3356C68.9265 93.0058 71.2778 94.9807 73.3571 97.2118L72.7859 97.6928C71.9937 98.3598 71.8924 99.5427 72.5595 100.335C72.8549 100.685 73.2515 100.901 73.6704 100.974C74.1975 101.066 74.7602 100.933 75.2014 100.561L75.7722 100.081C77.6444 102.544 79.2176 105.248 80.4404 108.141L79.744 108.396C78.7716 108.752 78.2718 109.829 78.6277 110.801C78.8665 111.454 79.4295 111.893 80.0679 112.004C80.3812 112.059 80.7128 112.035 81.0329 111.918L81.7247 111.664C82.2896 113.493 82.7211 115.382 83.0058 117.321C83.0546 117.653 82.8902 117.869 82.788 117.969C82.688 118.067 82.4725 118.221 82.1516 118.165L78.0059 117.442C76.9565 111.163 74.0215 105.202 69.6495 100.529C64.796 95.3419 58.5219 91.953 51.5051 90.7289C44.4883 89.5047 37.4372 90.569 31.1143 93.8065C25.418 96.723 20.6383 101.338 17.5246 106.891L13.3793 106.168C13.0586 106.112 12.9082 105.893 12.8471 105.768ZM108.249 123.656C95.3807 132.702 79.7603 136.194 64.265 133.491C50.119 131.023 37.6547 123.682 28.71 112.649L37.0579 114.105C44.7919 121.596 54.493 126.533 65.1547 128.393C86.0437 132.037 107.11 123.05 118.948 105.484C123.268 102.833 126.478 98.4173 127.416 93.0433C127.867 90.4578 127.744 87.9037 127.147 85.507C127.198 85.2415 127.25 84.9765 127.297 84.7103C128.337 78.7444 128.373 72.7351 127.407 66.8311C129.095 66.1353 130.702 65.264 132.202 64.2367C133.574 71.2773 133.644 78.4535 132.397 85.6001C129.694 101.096 121.118 114.611 108.249 123.656Z" fill="#FECACA" fill-opacity="0.25"/>
<path d="M114.365 61.4282C122.699 62.8821 131.024 58.5503 134.609 50.894C135.048 49.9563 134.644 48.84 133.706 48.4007C132.768 47.9615 131.651 48.3657 131.212 49.3037C128.343 55.431 121.68 58.8975 115.009 57.7337C106.839 56.3084 101.352 48.5017 102.777 40.3313C104.202 32.161 112.009 26.6735 120.179 28.0988C126.829 29.2589 131.923 34.7584 132.566 41.4728C132.665 42.5034 133.58 43.2586 134.611 43.1604C135.642 43.0616 136.398 42.1458 136.299 41.115C135.495 32.7255 129.132 25.854 120.824 24.4046C110.617 22.6239 100.864 29.4795 99.0828 39.6868C97.3023 49.8945 104.158 59.6475 114.365 61.4282Z" fill="#FECACA" fill-opacity="0.25"/>
</g>
<defs>
<clipPath id="clip0_8_271">
<rect width="128" height="128" fill="white" transform="translate(22.0497) rotate(9.89595)"/>
</clipPath>
</defs>
</svg>
