<svg width="64" height="64" viewBox="0 0 64 64" fill="none" xmlns="http://www.w3.org/2000/svg">
<g clip-path="url(#clip0_15_117)">
<path d="M52.0834 28.1171C51.1208 28.1171 50.1847 28.2326 49.2878 28.4491L44.5484 17.0746L48.6598 15.7042C49.6421 15.3767 50.173 14.3148 49.8455 13.3324C49.518 12.3502 48.4568 11.8188 47.4738 12.1467L41.3206 14.2031C40.3647 14.6014 39.9128 15.6991 40.311 16.6549L41.4891 19.4823L25.055 23.7551L23.367 19.8171H25.975C27.0105 19.8171 27.85 18.9776 27.85 17.9421C27.85 16.9066 27.0105 16.0671 25.975 16.0671H17.9416C16.9061 16.0671 16.0666 16.9066 16.0666 17.9421C16.0666 18.9776 16.9061 19.8171 17.9416 19.8171H19.287L21.7835 25.6413L18.1495 29.8811C16.335 28.7631 14.2 28.1171 11.9167 28.1171C5.34587 28.1171 0 33.4628 0 40.0337C0 46.6046 5.34587 51.9503 11.9166 51.9503C17.8496 51.9503 22.7832 47.5918 23.6852 41.9087H29.9915C30.5905 41.9087 31.1535 41.6224 31.5065 41.1383L43.601 24.5514L45.8275 29.8952C42.4328 31.9974 40.1664 35.7556 40.1664 40.0336C40.1664 46.6044 45.5121 51.9502 52.083 51.9502C58.6539 51.9502 64 46.6046 64 40.0337C64 33.4628 58.6541 28.1171 52.0834 28.1171ZM11.9166 48.2004C7.41363 48.2004 3.75 44.5368 3.75 40.0337C3.75 35.5306 7.41363 31.8671 11.9166 31.8671C13.2669 31.8671 14.5405 32.1984 15.6636 32.7812L10.493 38.8136C10.0164 39.3696 9.90713 40.1521 10.2131 40.8173C10.5191 41.4826 11.1844 41.9088 11.9166 41.9088H19.8635C19.0138 45.5107 15.7745 48.2004 11.9166 48.2004ZM15.9934 38.1587L23.4299 29.4827L27.1481 38.1587H15.9934ZM30.4174 36.2673L26.5491 27.2412L39.4435 23.8886L30.4174 36.2673ZM52.0834 48.2004C47.5802 48.2004 43.9168 44.5368 43.9168 40.0338C43.9168 37.3174 45.2511 34.9081 47.2974 33.4226L50.3525 40.7549C50.7508 41.7108 51.8486 42.1628 52.8044 41.7646C53.7603 41.3662 54.2122 40.2686 53.814 39.3127L50.7573 31.9764C51.1891 31.9056 51.6316 31.8671 52.0832 31.8671C56.5864 31.8671 60.2499 35.5307 60.2499 40.0337C60.2499 44.5367 56.5864 48.2004 52.0834 48.2004Z" fill="#EF4444"/>
</g>
<defs>
<clipPath id="clip0_15_117">
<rect width="64" height="64" fill="white"/>
</clipPath>
</defs>
</svg>
