<svg width="153" height="153" viewBox="0 0 153 153" fill="none" xmlns="http://www.w3.org/2000/svg">
<g clip-path="url(#clip0_8_121)">
<path d="M126.463 37.8402C126.004 37.5294 125.437 37.4187 124.894 37.5361L67.3049 49.9895C66.7619 50.1069 66.2911 50.442 66.0017 50.9147C65.7112 51.3877 65.6275 51.9597 65.7703 52.4973L73.8742 83.0297C74.1614 84.1128 75.2923 84.7717 76.3593 84.4719C77.4441 84.1843 78.0896 83.0703 77.8021 81.9855L70.2443 53.5115L123.674 41.9575L137.493 124.196L92.8949 133.84C91.7982 134.077 91.101 135.157 91.3384 136.255C91.5758 137.353 92.6571 138.049 93.7538 137.812L140.247 127.758C141.308 127.528 142.001 126.506 141.822 125.436L127.328 39.1858C127.235 38.6373 126.923 38.1509 126.463 37.8402Z" fill="#FECACA" fill-opacity="0.25"/>
<path d="M105.038 118.742L33.5483 134.201C32.4516 134.438 31.7544 135.519 31.9918 136.616C33.6492 144.281 41.2337 149.169 48.8988 147.511L96.5589 137.205C104.224 135.548 109.111 127.962 107.454 120.298C107.216 119.2 106.135 118.505 105.038 118.742ZM95.7 133.233L48.0399 143.54C43.2445 144.577 38.4933 142.027 36.5926 137.7L103.712 123.186C103.768 127.912 100.495 132.196 95.7 133.233Z" fill="#FECACA" fill-opacity="0.25"/>
<path d="M102.462 106.827L30.9718 122.286C26.5921 123.233 23.7987 127.566 24.7461 131.947C25.6934 136.328 30.0272 139.12 34.4072 138.173L105.897 122.714C110.277 121.767 113.07 117.433 112.123 113.052C111.176 108.672 106.842 105.88 102.462 106.827ZM105.038 118.742L33.5483 134.201C31.3579 134.675 29.1913 133.278 28.7179 131.088C28.2445 128.899 29.6405 126.732 31.8307 126.258L103.321 110.799C105.511 110.325 107.678 111.722 108.151 113.911C108.625 116.101 107.229 118.268 105.038 118.742Z" fill="#FECACA" fill-opacity="0.25"/>
<path d="M100.26 67.8076C91.1992 69.7669 84.6158 77.5977 84.249 86.8482C84.2042 87.9705 85.0772 88.9141 86.1986 88.96C87.3217 89.0015 88.2645 88.1317 88.3093 87.0094C88.6018 79.6093 93.8691 73.3468 101.119 71.7792C109.878 69.8849 118.546 75.4704 120.44 84.2304C122.335 92.9903 116.749 101.658 107.989 103.552C106.167 103.946 104.317 104.028 102.491 103.793C101.38 103.654 100.36 104.437 100.218 105.55C100.075 106.663 100.862 107.68 101.975 107.823C104.26 108.116 106.573 108.016 108.848 107.524C119.799 105.156 126.78 94.3211 124.412 83.3715C122.044 72.422 111.21 65.4396 100.26 67.8076Z" fill="#FECACA" fill-opacity="0.25"/>
<path d="M63.8176 81.9241L55.8741 83.6418C37.2589 87.6673 25.3898 106.086 29.4152 124.701C29.6526 125.799 30.7339 126.495 31.8306 126.258L103.321 110.798C104.417 110.561 105.115 109.481 104.877 108.383C100.852 89.7681 82.4327 77.8987 63.8176 81.9241ZM33.0235 121.842C30.6967 106.118 40.9753 91.0212 56.733 87.6137L64.6765 85.896C80.4342 82.4884 96.0318 91.9894 100.41 107.27L33.0235 121.842Z" fill="#FECACA" fill-opacity="0.25"/>
<path d="M46.5355 98.1331L42.564 98.9919L43.4228 102.964L47.3944 102.105L46.5355 98.1331Z" fill="#FECACA" fill-opacity="0.25"/>
<path d="M46.2672 106.506L42.2957 107.365L43.1545 111.336L47.1261 110.477L46.2672 106.506Z" fill="#FECACA" fill-opacity="0.25"/>
<path d="M67.9502 91.4235L63.9786 92.2823L64.8375 96.2539L68.809 95.3951L67.9502 91.4235Z" fill="#FECACA" fill-opacity="0.25"/>
<path d="M82.0123 98.776L78.0408 99.6348L78.8996 103.606L82.8712 102.748L82.0123 98.776Z" fill="#FECACA" fill-opacity="0.25"/>
<path d="M64.5692 104.627L60.5977 105.486L61.4565 109.457L65.4281 108.598L64.5692 104.627Z" fill="#FECACA" fill-opacity="0.25"/>
<path d="M127.149 28.734L59.63 43.3346C58.5333 43.5717 57.8361 44.6521 58.0735 45.7499L59.7912 53.6934C60.0286 54.7909 61.1099 55.487 62.2066 55.2499L129.725 40.6493C130.822 40.4122 131.519 39.3318 131.282 38.2339L129.564 30.2905C129.326 29.1927 128.245 28.4969 127.149 28.734ZM126.88 37.1066L63.3336 50.8483L62.4747 46.8767L126.021 33.135L126.88 37.1066Z" fill="#FECACA" fill-opacity="0.25"/>
<path d="M75.8122 41.4774L63.8427 14.9641C63.3814 13.9433 62.1791 13.4847 61.1549 13.95C60.1322 14.4108 59.6771 15.6155 60.1388 16.6383L72.1083 43.1516C72.5092 44.0393 73.4712 44.4991 74.3878 44.3009C74.5254 44.2711 74.6632 44.2267 74.7961 44.1657C75.8192 43.7048 76.2742 42.4999 75.8122 41.4774Z" fill="#FECACA" fill-opacity="0.25"/>
</g>
<defs>
<clipPath id="clip0_8_121">
<rect width="128" height="128" fill="white" transform="translate(0 27.1267) rotate(-12.202)"/>
</clipPath>
</defs>
</svg>
