<svg width="175" height="174" viewBox="0 0 175 174" fill="none" xmlns="http://www.w3.org/2000/svg">
<g clip-path="url(#clip0_8_173)">
<path d="M140.944 122.079L131.792 117.099C132.993 116.129 134.027 114.914 134.81 113.476C138.005 107.603 135.827 100.226 129.955 97.0302L128.381 96.1738C129.581 95.2037 130.614 93.9872 131.397 92.5495C134.534 86.7839 132.489 79.571 126.856 76.2857L135.891 66.622C138.243 64.1071 139.319 60.7062 138.846 57.2915C138.383 53.9552 136.479 51.0525 133.625 49.3283C133.478 49.2393 133.328 49.1532 133.175 49.0701C128.345 46.4422 122.34 47.6399 118.896 51.9179C117.785 53.297 111.594 60.0109 106.705 65.2638C101.903 62.2635 99.3675 58.0152 99.1688 52.6167C98.996 47.9274 100.642 44.0357 100.652 44.0107L103.741 36.9783L96.2962 38.8683C87.4831 41.1057 81.8901 46.7266 79.1048 50.2926L74.936 48.0242C69.0633 44.8288 61.6859 47.0069 58.4904 52.8796C57.7081 54.3173 57.2479 55.8457 57.0852 57.3803L55.5113 56.5239C49.6386 53.3285 42.2612 55.5066 39.0657 61.3793C38.2832 62.8174 37.825 64.3458 37.6623 65.8809L28.5105 60.9013L24.9259 67.4892L31.9825 71.3288C32.0292 82.5093 29.7236 93.3463 25.127 103.541C22.6586 109.015 24.857 115.551 30.1317 118.421L91.7677 151.959C97.0425 154.829 103.725 153.124 106.98 148.079C113.043 138.682 120.89 130.86 130.304 124.827L137.36 128.667L140.944 122.079ZM124.737 56.6215C125.944 55.1232 128.068 54.7337 129.746 55.7476C130.994 56.5009 131.328 57.6841 131.417 58.3222C131.578 59.4865 131.212 60.6446 130.413 61.5L120.057 72.5759L113.477 68.9952C117.392 64.7809 123.435 58.2393 124.737 56.6215ZM45.6535 64.9641C46.8724 62.724 49.6865 61.8932 51.9266 63.112L63.3456 69.3254L66.9302 62.7375C64.6901 61.5186 63.8593 58.7045 65.0782 56.4644C66.2971 54.2243 69.1112 53.3935 71.3513 54.6124L81.7739 60.3031L83.5662 57.0092C83.6012 56.946 86.2942 52.2059 91.8328 48.8126C91.7015 49.9881 91.6318 51.2512 91.6641 52.5697C91.8123 58.6243 94.1215 67.0021 104.281 72.5303L122.957 82.6918C125.197 83.9107 126.027 86.7247 124.809 88.9648C123.59 91.205 120.776 92.0358 118.536 90.8169L110.667 86.5353L107.082 93.1232L126.37 103.618C128.61 104.837 129.441 107.651 128.222 109.891C127.003 112.131 124.189 112.962 121.949 111.743L47.5056 71.2371C45.2655 70.0183 44.4346 67.2042 45.6535 64.9641ZM95.352 145.371L33.716 111.833C31.8691 110.829 31.0995 108.54 31.9638 106.623C34.0883 101.912 35.7611 97.0736 36.9881 92.1362L110.113 131.925C106.634 135.637 103.48 139.669 100.678 144.012C99.5383 145.779 97.1988 146.376 95.352 145.371ZM115.747 126.452L38.524 84.4338C38.9765 81.4408 39.2745 78.4179 39.4048 75.368L122.88 120.789C120.39 122.555 118.014 124.447 115.747 126.452Z" fill="#FECACA" fill-opacity="0.25"/>
<path d="M92.705 76.762L101.883 81.7558L98.2982 88.3437L89.1203 83.3499L92.705 76.762Z" fill="#FECACA" fill-opacity="0.25"/>
</g>
<defs>
<clipPath id="clip0_8_173">
<rect width="128" height="128" fill="white" transform="translate(61.6481) rotate(28.5515)"/>
</clipPath>
</defs>
</svg>
