<svg width="56" height="56" viewBox="0 0 56 56" fill="none" xmlns="http://www.w3.org/2000/svg">
<path d="M33.3594 28C33.3594 30.96 30.96 33.3594 28 33.3594C25.04 33.3594 22.6406 30.96 22.6406 28C22.6406 25.04 25.04 22.6406 28 22.6406C30.96 22.6406 33.3594 25.04 33.3594 28Z" fill="#FCA5A5"/>
<path d="M40.5337 18.5175C40.2761 17.8194 39.8651 17.1875 39.331 16.6688C38.8123 16.1348 38.1808 15.7238 37.4823 15.4661C36.9158 15.2461 36.0647 14.9842 34.4971 14.9128C32.8014 14.8355 32.293 14.8188 28 14.8188C23.7066 14.8188 23.1982 14.8351 21.5029 14.9124C19.9353 14.9842 19.0838 15.2461 18.5177 15.4661C17.8192 15.7238 17.1873 16.1348 16.669 16.6688C16.1349 17.1875 15.7239 17.819 15.4659 18.5175C15.2458 19.084 14.9839 19.9355 14.9126 21.5031C14.8353 23.1984 14.8186 23.7068 14.8186 28.0002C14.8186 32.2932 14.8353 32.8016 14.9126 34.4974C14.9839 36.0649 15.2458 36.916 15.4659 37.4825C15.7239 38.1811 16.1345 38.8126 16.6686 39.3312C17.1873 39.8653 17.8187 40.2763 18.5173 40.5339C19.0838 40.7544 19.9353 41.0163 21.5029 41.0876C23.1982 41.165 23.7062 41.1812 27.9996 41.1812C32.2934 41.1812 32.8018 41.165 34.4967 41.0876C36.0643 41.0163 36.9158 40.7544 37.4823 40.5339C38.8845 39.993 39.9928 38.8848 40.5337 37.4825C40.7537 36.916 41.0156 36.0649 41.0874 34.4974C41.1647 32.8016 41.181 32.2932 41.181 28.0002C41.181 23.7068 41.1647 23.1984 41.0874 21.5031C41.0161 19.9355 40.7542 19.084 40.5337 18.5175ZM28 36.2559C23.44 36.2559 19.7435 32.5598 19.7435 27.9998C19.7435 23.4398 23.44 19.7437 28 19.7437C32.5596 19.7437 36.2561 23.4398 36.2561 27.9998C36.2561 32.5598 32.5596 36.2559 28 36.2559ZM36.5825 21.3467C35.517 21.3467 34.6531 20.4828 34.6531 19.4173C34.6531 18.3517 35.517 17.4879 36.5825 17.4879C37.6481 17.4879 38.512 18.3517 38.512 19.4173C38.5115 20.4828 37.6481 21.3467 36.5825 21.3467Z" fill="#FCA5A5"/>
<path d="M28 0C12.5384 0 0 12.5384 0 28C0 43.4616 12.5384 56 28 56C43.4616 56 56 43.4616 56 28C56 12.5384 43.4616 0 28 0ZM43.9811 34.6287C43.9034 36.3403 43.6312 37.5088 43.2339 38.5316C42.3986 40.6913 40.6913 42.3986 38.5316 43.2339C37.5092 43.6312 36.3403 43.903 34.6292 43.9811C32.9146 44.0593 32.3669 44.0781 28.0004 44.0781C23.6335 44.0781 23.0862 44.0593 21.3713 43.9811C19.6602 43.903 18.4912 43.6312 17.4688 43.2339C16.3956 42.8301 15.424 42.1974 14.6208 41.3792C13.803 40.5764 13.1703 39.6044 12.7665 38.5316C12.3692 37.5092 12.097 36.3403 12.0193 34.6292C11.9402 32.9142 11.9219 32.3665 11.9219 28C11.9219 23.6335 11.9402 23.0858 12.0189 21.3713C12.0966 19.6597 12.3683 18.4912 12.7657 17.4684C13.1694 16.3956 13.8026 15.4236 14.6208 14.6208C15.4236 13.8026 16.3956 13.1699 17.4684 12.7661C18.4912 12.3688 19.6597 12.097 21.3713 12.0189C23.0858 11.9407 23.6335 11.9219 28 11.9219C32.3665 11.9219 32.9142 11.9407 34.6287 12.0193C36.3403 12.097 37.5088 12.3688 38.5316 12.7657C39.6044 13.1694 40.5764 13.8026 41.3796 14.6208C42.1974 15.424 42.8306 16.3956 43.2339 17.4684C43.6317 18.4912 43.9034 19.6597 43.9816 21.3713C44.0598 23.0858 44.0781 23.6335 44.0781 28C44.0781 32.3665 44.0598 32.9142 43.9811 34.6287Z" fill="#FCA5A5"/>
</svg>
