<svg width="32" height="32" viewBox="0 0 32 32" fill="none" xmlns="http://www.w3.org/2000/svg">
<g clip-path="url(#clip0_7_66)">
<path d="M15.2199 31.5825C15.3938 31.8433 15.6866 32 16 32C16.3134 32 16.6062 31.8434 16.7801 31.5825C18.9987 28.2546 22.2667 24.1445 24.5439 19.9644C26.3648 16.6222 27.25 13.7716 27.25 11.25C27.25 5.04675 22.2033 0 16 0C9.79675 0 4.75 5.04675 4.75 11.25C4.75 13.7716 5.63519 16.6222 7.45606 19.9644C9.73162 24.1413 13.0058 28.2614 15.2199 31.5825ZM16 1.875C21.1694 1.875 25.375 6.08063 25.375 11.25C25.375 13.4502 24.5646 16.0074 22.8974 19.0674C20.9345 22.6705 18.1334 26.3254 16 29.3981C13.8669 26.3259 11.0656 22.6707 9.10256 19.0674C7.43544 16.0074 6.625 13.4502 6.625 11.25C6.625 6.08063 10.8306 1.875 16 1.875Z" fill="#292524"/>
<path d="M16 16.875C19.1016 16.875 21.625 14.3516 21.625 11.25C21.625 8.14838 19.1016 5.625 16 5.625C12.8984 5.625 10.375 8.14838 10.375 11.25C10.375 14.3516 12.8984 16.875 16 16.875ZM16 7.5C18.0677 7.5 19.75 9.18225 19.75 11.25C19.75 13.3177 18.0677 15 16 15C13.9323 15 12.25 13.3177 12.25 11.25C12.25 9.18225 13.9323 7.5 16 7.5Z" fill="#292524"/>
</g>
<defs>
<clipPath id="clip0_7_66">
<rect width="32" height="32" fill="white"/>
</clipPath>
</defs>
</svg>
