<svg width="333" height="26" viewBox="0 0 333 26" fill="none" xmlns="http://www.w3.org/2000/svg">
<path d="M18.1055 17.7227L15.9961 22.4512C15.6328 23.248 15.3398 23.7871 15.1172 24.0684C14.8945 24.3379 14.6484 24.4727 14.3789 24.4727C14.1211 24.4727 13.8926 24.3613 13.6934 24.1387C13.5645 23.998 13.2656 23.4824 12.7969 22.5918C12.3398 21.7012 11.959 20.9102 11.6543 20.2188L9.33398 14.998C9.01758 14.2715 8.68359 13.9082 8.33203 13.9082C7.95703 13.9082 7.75195 14.2188 7.7168 14.8398C7.63477 16.2227 7.59375 17.5 7.59375 18.6719C7.59375 19.8906 7.65234 20.7168 7.76953 21.1504C7.85156 21.4082 7.95703 21.5957 8.08594 21.7129C8.22656 21.8301 8.5957 22.041 9.19336 22.3457C9.58008 22.5449 9.77344 22.8906 9.77344 23.3828C9.77344 24.6953 8.0918 25.3516 4.72852 25.3516C1.89258 25.3516 0.474609 24.7129 0.474609 23.4355C0.474609 23.1074 0.544922 22.873 0.685547 22.7324C0.837891 22.5801 1.21875 22.3574 1.82812 22.0645C2.21484 21.8887 2.47266 21.6484 2.60156 21.3438C2.74219 21.0391 2.85938 20.4473 2.95312 19.5684C3.05859 18.6309 3.1582 17.0957 3.25195 14.9629C3.3457 12.8184 3.39258 10.9844 3.39258 9.46094C3.39258 7.55078 3.24609 6.25586 2.95312 5.57617C2.84766 5.3418 2.72461 5.16602 2.58398 5.04883C2.45508 4.93164 2.20312 4.7793 1.82812 4.5918C0.996094 4.19336 0.580078 3.67773 0.580078 3.04492C0.580078 2.63477 0.732422 2.25977 1.03711 1.91992C1.35352 1.58008 1.76953 1.33984 2.28516 1.19922C2.80078 1.04687 3.48633 0.917969 4.3418 0.8125C5.20898 0.695312 5.94141 0.636719 6.53906 0.636719C8.03906 0.636719 9.09961 0.759766 9.7207 1.00586C10.0254 1.12305 10.2656 1.28125 10.4414 1.48047C10.6172 1.67969 10.8691 2.08984 11.1973 2.71094L14.8535 9.44336C15.252 10.1816 15.5273 10.6328 15.6797 10.7969C15.832 10.9609 16.043 11.043 16.3125 11.043C16.5469 11.043 16.752 10.9551 16.9277 10.7793C17.1152 10.6035 17.332 10.2754 17.5781 9.79492L20.0566 4.96094C20.3613 4.33984 20.5605 3.93555 20.6543 3.74805C21.2285 2.57617 21.7969 1.79688 22.3594 1.41016C23.0742 0.90625 24.375 0.654297 26.2617 0.654297C29.5781 0.654297 31.2363 1.41016 31.2363 2.92188C31.2363 3.26172 31.1719 3.53711 31.043 3.74805C30.9141 3.94727 30.6504 4.19336 30.252 4.48633C29.7129 4.89648 29.373 5.48828 29.2324 6.26172C28.9629 7.87891 28.8281 9.84766 28.8281 12.168C28.8281 15.1562 28.9688 17.7754 29.25 20.0254C29.3203 20.5762 29.4258 20.9512 29.5664 21.1504C29.7188 21.3496 30.0996 21.6484 30.709 22.0469C31.1309 22.3281 31.3418 22.7031 31.3418 23.1719C31.3418 23.9922 30.7969 24.5723 29.707 24.9121C29.1445 25.0996 28.5527 25.2227 27.9316 25.2812C27.3105 25.3398 26.3555 25.3691 25.0664 25.3691C23.0859 25.3691 21.6094 25.2285 20.6367 24.9473C19.5586 24.6309 19.0195 24.0918 19.0195 23.3301C19.0195 23.0488 19.0898 22.8203 19.2305 22.6445C19.3711 22.457 19.7344 22.123 20.3203 21.6426C20.625 21.3965 20.8301 20.9219 20.9355 20.2188C21.0527 19.5156 21.1113 18.3203 21.1113 16.6328C21.1113 15.6953 21.0645 15.0801 20.9707 14.7871C20.8887 14.4941 20.707 14.3477 20.4258 14.3477C20.0977 14.3477 19.7812 14.5762 19.4766 15.0332C19.1719 15.4785 18.7148 16.375 18.1055 17.7227ZM52.8398 5.80469L50.959 7.61523C50.2676 8.27148 49.9219 8.86914 49.9219 9.4082C49.9219 9.70117 49.998 9.99414 50.1504 10.2871C50.3145 10.5801 50.6133 10.9785 51.0469 11.4824L57.6211 19.0938C58.207 19.7734 58.6113 20.207 58.834 20.3945C59.0566 20.5703 59.3906 20.7578 59.8359 20.957C60.4688 21.2266 60.9141 21.5254 61.1719 21.8535C61.4414 22.1816 61.5762 22.6094 61.5762 23.1367C61.5762 24.3789 60.6914 25 58.9219 25H52.2598C51.8027 25 51.4395 24.9004 51.1699 24.7012C50.9121 24.502 50.4961 24.0098 49.9219 23.2246C49.0078 21.9707 47.8008 20.5293 46.3008 18.9004C45.6445 18.1973 45.1816 17.7402 44.9121 17.5293C44.6543 17.3066 44.4141 17.1953 44.1914 17.1953C43.5117 17.1953 43.1719 17.834 43.1719 19.1113C43.1719 20.1543 43.3945 20.875 43.8398 21.2734C43.9219 21.332 44.1094 21.4609 44.4023 21.6602C45.0352 22.0703 45.3516 22.5801 45.3516 23.1895C45.3516 23.9629 44.8359 24.5195 43.8047 24.8594C42.7734 25.1875 41.0391 25.3516 38.6016 25.3516C36.4336 25.3516 34.8516 25.2227 33.8555 24.9648C33.4336 24.8477 33.0879 24.6367 32.8184 24.332C32.5605 24.0156 32.4316 23.6641 32.4316 23.2773C32.4316 22.6562 32.7832 22.123 33.4863 21.6777C33.8027 21.4668 34.0254 21.2383 34.1543 20.9922C34.2949 20.7344 34.4238 20.3066 34.541 19.709C34.7754 18.3848 34.8926 16.3457 34.8926 13.5918C34.8926 10.3105 34.7695 7.98438 34.5234 6.61328C34.4297 6.05078 34.3008 5.64648 34.1367 5.40039C33.9727 5.1543 33.6855 4.91406 33.2754 4.67969C32.6191 4.30469 32.291 3.7832 32.291 3.11523C32.291 2.55273 32.4961 2.10156 32.9062 1.76172C33.3164 1.42188 33.9727 1.16406 34.875 0.988281C36.0703 0.753906 37.5703 0.636719 39.375 0.636719C41.2148 0.636719 42.5801 0.8125 43.4707 1.16406C44.2676 1.49219 44.666 2.07812 44.666 2.92188C44.666 3.27344 44.6016 3.54883 44.4727 3.74805C44.3555 3.93555 44.0391 4.23438 43.5234 4.64453C43.3359 4.80859 43.1602 5.20117 42.9961 5.82227C42.8438 6.44336 42.7676 7.05273 42.7676 7.65039C42.7676 8.63477 42.9902 9.12695 43.4355 9.12695C43.7051 9.12695 43.9629 9.00977 44.209 8.77539C44.4668 8.54102 44.9766 7.95508 45.7383 7.01758C46.6172 5.92773 47.0566 5.18359 47.0566 4.78516C47.0566 4.57422 46.9453 4.25781 46.7227 3.83594C46.5703 3.54297 46.4941 3.27344 46.4941 3.02734C46.4941 2.16016 46.9629 1.55078 47.9004 1.19922C48.8379 0.835937 50.4375 0.654297 52.6992 0.654297C54.5039 0.654297 55.8398 0.771484 56.707 1.00586C57.7734 1.29883 58.3066 1.91992 58.3066 2.86914C58.3066 3.24414 58.1953 3.5957 57.9727 3.92383C57.75 4.24023 57.4746 4.44531 57.1465 4.53906C56.9004 4.62109 56.332 4.66797 55.4414 4.67969C54.8203 4.69141 54.3516 4.76758 54.0352 4.9082C53.7305 5.03711 53.332 5.33594 52.8398 5.80469ZM68.4316 1.00586H77.6953C78.6914 0.970703 79.5996 0.835937 80.4199 0.601562C80.7715 0.507813 81.082 0.460938 81.3516 0.460938C82.3008 0.460938 83.2207 1.16406 84.1113 2.57031C85.0137 3.97656 85.4648 5.42383 85.4648 6.91211C85.4648 7.93164 85.1543 8.67578 84.5332 9.14453C84.0645 9.49609 83.502 9.67188 82.8457 9.67188C82.2246 9.67188 81.6855 9.50195 81.2285 9.16211C80.7715 8.81055 80.3203 8.23633 79.875 7.43945C79.4883 6.71289 79.1836 6.23828 78.9609 6.01562C78.7383 5.79297 78.4688 5.68164 78.1523 5.68164C77.7188 5.68164 77.4082 5.86328 77.2207 6.22656C77.0332 6.58984 76.9395 7.1875 76.9395 8.01953V17.8633C76.9395 18.8711 77.0449 19.6035 77.2559 20.0605C77.4668 20.5176 77.8652 20.8691 78.4512 21.1152C79.084 21.3848 79.5117 21.6426 79.7344 21.8887C79.9688 22.123 80.0859 22.4512 80.0859 22.873C80.0859 23.7168 79.5117 24.3438 78.3633 24.7539C77.2266 25.1641 75.4746 25.3691 73.1074 25.3691C70.2012 25.3691 68.0449 25.1289 66.6387 24.6484C65.4551 24.25 64.8633 23.6055 64.8633 22.7148C64.8633 22.2344 65.0742 21.8594 65.4961 21.5898C65.6016 21.5312 66.0176 21.3906 66.7441 21.168C67.1895 21.0391 67.4941 20.793 67.6582 20.4297C67.834 20.0664 67.9746 19.3691 68.0801 18.3379C68.1738 17.4238 68.2617 15.9473 68.3438 13.9082C68.4258 11.8574 68.4668 10.082 68.4668 8.58203C68.4668 7.52734 68.3848 6.77734 68.2207 6.33203C68.0566 5.88672 67.7871 5.66406 67.4121 5.66406C66.9551 5.66406 66.5098 5.99219 66.0762 6.64844C65.291 7.84375 64.6465 8.63477 64.1426 9.02148C63.5449 9.47852 62.9648 9.70703 62.4023 9.70703C61.7695 9.70703 61.248 9.47266 60.8379 9.00391C60.4277 8.52344 60.2227 7.91406 60.2227 7.17578C60.2227 6.44922 60.3867 5.65234 60.7148 4.78516C61.043 3.90625 61.4824 3.09766 62.0332 2.35938C62.9238 1.16406 63.8027 0.566406 64.6699 0.566406C64.9043 0.566406 65.1738 0.601562 65.4785 0.671875C66.1113 0.800781 66.627 0.888672 67.0254 0.935547C67.4355 0.982422 67.9043 1.00586 68.4316 1.00586ZM110.795 7.24609L110.285 6.01562C109.969 5.30078 109.576 4.82617 109.107 4.5918C108.264 4.14648 107.842 3.58398 107.842 2.9043C107.842 1.4043 110.092 0.654297 114.592 0.654297C116.842 0.654297 118.553 0.835937 119.725 1.19922C120.123 1.32812 120.439 1.5332 120.674 1.81445C120.92 2.0957 121.043 2.40625 121.043 2.74609C121.043 3.03906 120.984 3.26172 120.867 3.41406C120.762 3.56641 120.457 3.86523 119.953 4.31055C119.66 4.55664 119.514 4.81445 119.514 5.08398C119.514 5.49414 119.736 6.17383 120.182 7.12305L121.184 9.26758C121.641 10.2402 121.963 10.8613 122.15 11.1309C122.35 11.3887 122.572 11.5176 122.818 11.5176C123.088 11.5176 123.316 11.3652 123.504 11.0605C123.703 10.7559 123.955 10.1582 124.26 9.26758L125.104 6.80664C125.338 6.10352 125.455 5.57617 125.455 5.22461C125.455 4.75586 125.209 4.44531 124.717 4.29297C123.732 3.97656 123.24 3.41406 123.24 2.60547C123.24 1.90234 123.621 1.39844 124.383 1.09375C125.145 0.789063 126.398 0.636719 128.145 0.636719C129.281 0.636719 130.166 0.765625 130.799 1.02344C131.678 1.375 132.117 1.9375 132.117 2.71094C132.117 3.05078 132.035 3.34375 131.871 3.58984C131.719 3.83594 131.402 4.16406 130.922 4.57422C130.605 4.84375 130.359 5.13086 130.184 5.43555C130.02 5.74023 129.762 6.36719 129.41 7.31641L126.334 15.4902C124.799 19.2988 123.873 21.5664 123.557 22.293C123.24 23.0195 122.912 23.6699 122.572 24.2441C122.314 24.666 122.027 24.959 121.711 25.123C121.395 25.2988 120.973 25.3867 120.445 25.3867C119.742 25.3867 119.174 25.2344 118.74 24.9297C118.318 24.625 117.961 24.1211 117.668 23.418L114.188 15.1562C114 14.6992 113.859 14.4121 113.766 14.2949C113.672 14.1777 113.543 14.1191 113.379 14.1191C113.133 14.1191 112.922 14.2656 112.746 14.5586C112.57 14.8516 112.236 15.6074 111.744 16.8262L109.354 22.7676C108.908 23.8457 108.48 24.5605 108.07 24.9121C107.672 25.252 107.062 25.4219 106.242 25.4219C105.504 25.4219 104.918 25.2461 104.484 24.8945C104.062 24.543 103.676 23.9219 103.324 23.0312L96.8555 6.49023C96.5859 5.81055 96.3984 5.41211 96.293 5.29492C96.1992 5.16602 95.8887 4.96094 95.3613 4.67969C94.7637 4.375 94.4648 3.85937 94.4648 3.13281C94.4648 1.48047 96.5156 0.654297 100.617 0.654297C102.715 0.654297 104.232 0.800781 105.17 1.09375C106.072 1.38672 106.523 1.9668 106.523 2.83398C106.523 3.10352 106.5 3.30273 106.453 3.43164C106.406 3.54883 106.236 3.81836 105.943 4.24023C105.803 4.46289 105.732 4.73828 105.732 5.06641C105.732 5.65234 106.125 6.87109 106.91 8.72266L107.631 10.4102C107.936 11.1133 108.135 11.541 108.229 11.6934C108.334 11.834 108.48 11.9043 108.668 11.9043C109.125 11.9043 109.594 11.2539 110.074 9.95312L110.795 7.94922C110.854 7.80859 110.883 7.69727 110.883 7.61523C110.883 7.52148 110.854 7.39844 110.795 7.24609ZM136.248 1.00586H145.283C147.111 1.00586 148.441 0.970703 149.273 0.900391C150.117 0.818359 150.938 0.660156 151.734 0.425781C151.98 0.355469 152.174 0.320312 152.314 0.320312C152.924 0.320312 153.463 0.648438 153.932 1.30469C154.705 2.37109 155.092 3.66016 155.092 5.17188C155.092 5.93359 154.928 6.53711 154.6 6.98242C154.283 7.41602 153.844 7.63281 153.281 7.63281C152.895 7.63281 152.59 7.55664 152.367 7.4043C152.156 7.24023 151.869 6.88281 151.506 6.33203C150.99 5.54687 150.334 5.02539 149.537 4.76758C148.752 4.49805 147.457 4.36328 145.652 4.36328C144.305 4.36328 143.484 4.60352 143.191 5.08398C143.039 5.3418 142.945 5.6875 142.91 6.12109C142.887 6.55469 142.875 7.66211 142.875 9.44336C142.875 10.1465 142.992 10.5859 143.227 10.7617C143.461 10.9258 144.076 11.0078 145.072 11.0078C145.564 11.0078 145.922 10.9082 146.145 10.709C146.367 10.498 146.508 10.1289 146.566 9.60156C146.648 8.92188 146.73 8.45898 146.812 8.21289C146.906 7.95508 147.07 7.73242 147.305 7.54492C147.551 7.33398 147.838 7.22852 148.166 7.22852C148.646 7.22852 149.057 7.45703 149.396 7.91406C149.643 8.25391 149.848 8.85742 150.012 9.72461C150.188 10.5801 150.275 11.4766 150.275 12.4141C150.275 14.2656 149.988 15.7832 149.414 16.9668C149.098 17.6113 148.617 17.9336 147.973 17.9336C147.574 17.9336 147.299 17.834 147.146 17.6348C146.994 17.4238 146.877 16.9961 146.795 16.3516C146.619 15.0273 145.846 14.3652 144.475 14.3652C143.947 14.3652 143.584 14.5352 143.385 14.875C143.197 15.2031 143.104 15.8184 143.104 16.7207C143.104 17.2715 143.139 17.9863 143.209 18.8652C143.291 19.7324 143.373 20.3066 143.455 20.5879C143.549 20.9395 143.836 21.1855 144.316 21.3262C144.809 21.4551 145.623 21.5195 146.76 21.5195C148.518 21.5195 149.842 21.2969 150.732 20.8516C151.623 20.3945 152.35 19.5742 152.912 18.3906C153.24 17.7109 153.533 17.2539 153.791 17.0195C154.061 16.7852 154.406 16.668 154.828 16.668C155.32 16.668 155.725 16.8848 156.041 17.3184C156.369 17.7402 156.533 18.2734 156.533 18.918C156.533 19.6211 156.352 20.5 155.988 21.5547C155.625 22.6094 155.18 23.5469 154.652 24.3672C154.383 24.7656 154.16 25.0293 153.984 25.1582C153.809 25.2988 153.586 25.3691 153.316 25.3691C153.094 25.3691 152.771 25.334 152.35 25.2637C151.6 25.123 150.598 25.0352 149.344 25H134.438C133.84 25 133.377 24.8711 133.049 24.6133C132.721 24.3438 132.557 23.9688 132.557 23.4883C132.557 23.1484 132.627 22.9023 132.768 22.75C132.908 22.5977 133.23 22.4043 133.734 22.1699C134.086 22.0176 134.344 21.8301 134.508 21.6074C134.684 21.3848 134.818 21.0566 134.912 20.623C135.299 18.8535 135.492 16.4688 135.492 13.4688C135.492 8.94531 135.211 6.0918 134.648 4.9082C134.531 4.67383 134.402 4.50977 134.262 4.41602C134.121 4.32227 133.828 4.21094 133.383 4.08203C132.715 3.88281 132.381 3.4375 132.381 2.74609C132.381 2.37109 132.492 2.03711 132.715 1.74414C132.938 1.45117 133.23 1.25781 133.594 1.16406C134.051 1.05859 134.936 1.00586 136.248 1.00586ZM167.027 24.9824L164.672 25C163.02 25.0234 161.812 25.0586 161.051 25.1055C160.371 25.1641 159.885 25.1934 159.592 25.1934C158.877 25.1934 158.309 25.0117 157.887 24.6484C157.477 24.2852 157.271 23.8516 157.271 23.3477C157.271 23.0195 157.348 22.7617 157.5 22.5742C157.652 22.3867 158.021 22.0938 158.607 21.6953C158.947 21.4609 159.182 21.0977 159.311 20.6055C159.439 20.1016 159.58 19.0293 159.732 17.3887C159.955 14.834 160.066 11.6875 160.066 7.94922C160.066 6.57812 159.973 5.66992 159.785 5.22461C159.609 4.76758 159.188 4.39258 158.52 4.09961C157.746 3.77148 157.359 3.29102 157.359 2.6582C157.359 2.14258 157.588 1.7207 158.045 1.39258C158.514 1.06445 159.111 0.900391 159.838 0.900391C160.236 0.900391 160.746 0.917969 161.367 0.953125C162.398 1 163.512 1.02344 164.707 1.02344C165.586 1.02344 167.314 0.988281 169.893 0.917969C170.701 0.894531 171.434 0.882812 172.09 0.882812C173.648 0.882812 174.902 1.01172 175.852 1.26953C176.812 1.51562 177.645 1.9375 178.348 2.53516C179.496 3.50781 180.07 4.80859 180.07 6.4375C180.07 7.24609 179.9 8.03711 179.561 8.81055C179.221 9.57227 178.764 10.1816 178.189 10.6387C177.779 10.9668 177.574 11.2656 177.574 11.5352C177.574 11.8281 177.82 12.0742 178.312 12.2734C179.273 12.6602 180.146 13.3105 180.932 14.2246C181.74 15.1738 182.145 16.3633 182.145 17.793C182.145 19.4805 181.529 21.0215 180.299 22.416C178.67 24.2559 176.262 25.1758 173.074 25.1758C172.641 25.1758 171.574 25.1465 169.875 25.0879C168.328 25.0293 167.379 24.9941 167.027 24.9824ZM168.24 5.91016V9.53125C168.24 10.1055 168.311 10.5098 168.451 10.7441C168.604 10.9785 168.861 11.0957 169.225 11.0957C170.092 11.0957 170.73 10.832 171.141 10.3047C171.551 9.76562 171.756 8.92773 171.756 7.79102C171.756 6.68945 171.545 5.83984 171.123 5.24219C170.701 4.63281 170.104 4.32812 169.33 4.32812C168.92 4.32812 168.633 4.44531 168.469 4.67969C168.316 4.90234 168.24 5.3125 168.24 5.91016ZM168.24 16.0352V17.7051C168.24 19.2402 168.352 20.2598 168.574 20.7637C168.797 21.2676 169.248 21.5195 169.928 21.5195C171.709 21.5195 172.6 20.4766 172.6 18.3906C172.6 15.7891 171.604 14.4883 169.611 14.4883C169.096 14.4883 168.738 14.5996 168.539 14.8223C168.34 15.0449 168.24 15.4492 168.24 16.0352ZM190.705 25H189.439C188.701 25 187.875 25.0352 186.961 25.1055C186.387 25.1523 185.988 25.1758 185.766 25.1758C184.98 25.1758 184.342 24.9941 183.85 24.6309C183.357 24.2676 183.111 23.793 183.111 23.207C183.111 22.7969 183.217 22.4805 183.428 22.2578C183.65 22.0234 184.008 21.8359 184.5 21.6953C184.969 21.5781 185.285 21.3906 185.449 21.1328C185.613 20.8633 185.742 20.3477 185.836 19.5859C185.93 18.707 186.012 16.9961 186.082 14.4531C186.164 11.9102 186.205 9.38477 186.205 6.87695C186.205 5.89258 186.129 5.23633 185.977 4.9082C185.824 4.58008 185.467 4.31641 184.904 4.11719C184.096 3.8125 183.691 3.29102 183.691 2.55273C183.691 1.97852 183.967 1.5332 184.518 1.2168C185.08 0.888672 185.859 0.724609 186.855 0.724609C187.184 0.724609 187.57 0.730469 188.016 0.742188C189 0.777344 189.715 0.794922 190.16 0.794922C191.836 0.794922 193.729 0.742188 195.838 0.636719C196.283 0.613281 196.84 0.601562 197.508 0.601562C200.191 0.601562 202.312 0.90625 203.871 1.51562C206.191 2.42969 207.938 3.96484 209.109 6.12109C210.152 8.01953 210.674 10.2812 210.674 12.9062C210.674 14.2305 210.48 15.5605 210.094 16.8965C209.707 18.2207 209.186 19.3691 208.529 20.3418C207.17 22.3105 205.295 23.6934 202.904 24.4902C201.498 24.959 199.998 25.1934 198.404 25.1934L196.277 25.123L194.449 25.0703C193.031 25.0234 191.783 25 190.705 25ZM194.396 5.94531V19.5508C194.396 20.2891 194.555 20.8164 194.871 21.1328C195.188 21.4375 195.715 21.5898 196.453 21.5898C199.875 21.5898 201.586 18.9883 201.586 13.7852C201.586 10.9141 201.188 8.6875 200.391 7.10547C199.512 5.35938 198.023 4.48633 195.926 4.48633C195.363 4.48633 194.965 4.59766 194.73 4.82031C194.508 5.04297 194.396 5.41797 194.396 5.94531ZM215.877 1.00586H224.912C226.74 1.00586 228.07 0.970703 228.902 0.900391C229.746 0.818359 230.566 0.660156 231.363 0.425781C231.609 0.355469 231.803 0.320312 231.943 0.320312C232.553 0.320312 233.092 0.648438 233.561 1.30469C234.334 2.37109 234.721 3.66016 234.721 5.17188C234.721 5.93359 234.557 6.53711 234.229 6.98242C233.912 7.41602 233.473 7.63281 232.91 7.63281C232.523 7.63281 232.219 7.55664 231.996 7.4043C231.785 7.24023 231.498 6.88281 231.135 6.33203C230.619 5.54687 229.963 5.02539 229.166 4.76758C228.381 4.49805 227.086 4.36328 225.281 4.36328C223.934 4.36328 223.113 4.60352 222.82 5.08398C222.668 5.3418 222.574 5.6875 222.539 6.12109C222.516 6.55469 222.504 7.66211 222.504 9.44336C222.504 10.1465 222.621 10.5859 222.855 10.7617C223.09 10.9258 223.705 11.0078 224.701 11.0078C225.193 11.0078 225.551 10.9082 225.773 10.709C225.996 10.498 226.137 10.1289 226.195 9.60156C226.277 8.92188 226.359 8.45898 226.441 8.21289C226.535 7.95508 226.699 7.73242 226.934 7.54492C227.18 7.33398 227.467 7.22852 227.795 7.22852C228.275 7.22852 228.686 7.45703 229.025 7.91406C229.271 8.25391 229.477 8.85742 229.641 9.72461C229.816 10.5801 229.904 11.4766 229.904 12.4141C229.904 14.2656 229.617 15.7832 229.043 16.9668C228.727 17.6113 228.246 17.9336 227.602 17.9336C227.203 17.9336 226.928 17.834 226.775 17.6348C226.623 17.4238 226.506 16.9961 226.424 16.3516C226.248 15.0273 225.475 14.3652 224.104 14.3652C223.576 14.3652 223.213 14.5352 223.014 14.875C222.826 15.2031 222.732 15.8184 222.732 16.7207C222.732 17.2715 222.768 17.9863 222.838 18.8652C222.92 19.7324 223.002 20.3066 223.084 20.5879C223.178 20.9395 223.465 21.1855 223.945 21.3262C224.438 21.4551 225.252 21.5195 226.389 21.5195C228.146 21.5195 229.471 21.2969 230.361 20.8516C231.252 20.3945 231.979 19.5742 232.541 18.3906C232.869 17.7109 233.162 17.2539 233.42 17.0195C233.689 16.7852 234.035 16.668 234.457 16.668C234.949 16.668 235.354 16.8848 235.67 17.3184C235.998 17.7402 236.162 18.2734 236.162 18.918C236.162 19.6211 235.98 20.5 235.617 21.5547C235.254 22.6094 234.809 23.5469 234.281 24.3672C234.012 24.7656 233.789 25.0293 233.613 25.1582C233.438 25.2988 233.215 25.3691 232.945 25.3691C232.723 25.3691 232.4 25.334 231.979 25.2637C231.229 25.123 230.227 25.0352 228.973 25H214.066C213.469 25 213.006 24.8711 212.678 24.6133C212.35 24.3438 212.186 23.9688 212.186 23.4883C212.186 23.1484 212.256 22.9023 212.396 22.75C212.537 22.5977 212.859 22.4043 213.363 22.1699C213.715 22.0176 213.973 21.8301 214.137 21.6074C214.312 21.3848 214.447 21.0566 214.541 20.623C214.928 18.8535 215.121 16.4688 215.121 13.4688C215.121 8.94531 214.84 6.0918 214.277 4.9082C214.16 4.67383 214.031 4.50977 213.891 4.41602C213.75 4.32227 213.457 4.21094 213.012 4.08203C212.344 3.88281 212.01 3.4375 212.01 2.74609C212.01 2.37109 212.121 2.03711 212.344 1.74414C212.566 1.45117 212.859 1.25781 213.223 1.16406C213.68 1.05859 214.564 1.00586 215.877 1.00586ZM247.746 0.513672C248.953 0.513672 250.535 0.8125 252.492 1.41016C252.727 1.48047 252.914 1.51562 253.055 1.51562C253.172 1.51562 253.523 1.41016 254.109 1.19922C254.297 1.12891 254.496 1.09375 254.707 1.09375C255.492 1.09375 256.318 1.71484 257.186 2.95703C258.064 4.19922 258.504 5.38281 258.504 6.50781C258.504 7.16406 258.305 7.7207 257.906 8.17773C257.52 8.62305 257.045 8.8457 256.482 8.8457C256.014 8.8457 255.633 8.75195 255.34 8.56445C255.047 8.37695 254.402 7.82031 253.406 6.89453C252 5.58203 250.617 4.92578 249.258 4.92578C248.602 4.92578 248.074 5.08398 247.676 5.40039C247.289 5.7168 247.096 6.13281 247.096 6.64844C247.096 7.66797 247.992 8.43555 249.785 8.95117C252.211 9.66602 253.764 10.1875 254.443 10.5156C257.432 11.9688 258.926 14.1074 258.926 16.9316C258.926 19.4277 257.906 21.4668 255.867 23.0488C253.781 24.666 251.057 25.4746 247.693 25.4746C246.193 25.4746 244.611 25.2988 242.947 24.9473C241.283 24.584 240.082 24.1621 239.344 23.6816C238.781 23.3066 238.271 22.4922 237.814 21.2383C237.369 19.9727 237.146 18.7422 237.146 17.5469C237.146 16.9727 237.264 16.5391 237.498 16.2461C237.791 15.8711 238.16 15.6836 238.605 15.6836C239.051 15.6836 239.479 15.9121 239.889 16.3691C240.135 16.627 240.715 17.4531 241.629 18.8477C242.062 19.5039 242.748 20.0488 243.686 20.4824C244.635 20.916 245.613 21.1328 246.621 21.1328C247.488 21.1328 248.191 20.9746 248.73 20.6582C249.27 20.3301 249.539 19.9141 249.539 19.4102C249.539 18.9414 249.328 18.5371 248.906 18.1973C248.484 17.8574 247.799 17.541 246.85 17.248C245.174 16.7207 243.896 16.2402 243.018 15.8066C242.139 15.3613 241.318 14.8047 240.557 14.1367C238.705 12.4961 237.779 10.6328 237.779 8.54688C237.779 7.51562 238.02 6.51367 238.5 5.54102C238.98 4.55664 239.66 3.70703 240.539 2.99219C242.508 1.33984 244.91 0.513672 247.746 0.513672ZM267.891 0.636719C269.227 0.636719 270.486 0.753906 271.67 0.988281C273.264 1.30469 274.061 1.97852 274.061 3.00977C274.061 3.34961 273.979 3.60742 273.814 3.7832C273.662 3.94727 273.264 4.19336 272.619 4.52148C272.08 4.79102 271.723 5.38281 271.547 6.29688C271.383 7.21094 271.301 8.99219 271.301 11.6406C271.301 16.1172 271.412 18.8887 271.635 19.9551C271.717 20.2949 271.84 20.5586 272.004 20.7461C272.18 20.9219 272.479 21.1152 272.9 21.3262C273.674 21.6777 274.061 22.1875 274.061 22.8555C274.061 23.793 273.346 24.4375 271.916 24.7891C270.369 25.1641 268.477 25.3516 266.238 25.3516C262.418 25.3516 260.508 24.625 260.508 23.1719C260.508 22.6445 260.883 22.1523 261.633 21.6953C262.207 21.3438 262.547 20.8633 262.652 20.2539C262.875 18.918 262.986 16.082 262.986 11.7461C262.986 8.74609 262.834 6.82422 262.529 5.98047C262.365 5.5 261.973 5.06641 261.352 4.67969C260.871 4.36328 260.549 4.09961 260.385 3.88867C260.221 3.67773 260.139 3.4082 260.139 3.08008C260.139 2.57617 260.379 2.17773 260.859 1.88477C261.352 1.58008 262.213 1.31055 263.443 1.07617C264.908 0.783203 266.391 0.636719 267.891 0.636719ZM288.791 0.513672C290.326 0.513672 291.773 0.730469 293.133 1.16406C293.742 1.36328 294.158 1.46289 294.381 1.46289C294.615 1.46289 295.107 1.32812 295.857 1.05859C296.104 0.976562 296.355 0.935547 296.613 0.935547C297.27 0.935547 297.896 1.32227 298.494 2.0957C299.455 3.33789 299.936 4.69727 299.936 6.17383C299.936 7.18164 299.678 7.99609 299.162 8.61719C298.658 9.23828 297.99 9.54883 297.158 9.54883C296.479 9.54883 295.811 9.30273 295.154 8.81055C294.955 8.6582 294.469 8.10742 293.695 7.1582C292.406 5.57617 290.924 4.78516 289.248 4.78516C287.725 4.78516 286.512 5.3418 285.609 6.45508C284.719 7.56836 284.273 9.06836 284.273 10.9551C284.273 13.7559 284.988 16.1406 286.418 18.1094C286.957 18.8242 287.602 19.3984 288.352 19.832C289.102 20.2539 289.846 20.4648 290.584 20.4648C291.193 20.4648 291.691 20.2656 292.078 19.8672C292.477 19.457 292.676 18.9355 292.676 18.3027C292.676 17.7402 292.512 17.3418 292.184 17.1074C292.055 17.0137 291.932 16.9609 291.814 16.9492C291.709 16.9258 291.375 16.9141 290.812 16.9141C290.309 16.9141 289.887 16.7559 289.547 16.4395C289.219 16.1113 289.055 15.7012 289.055 15.209C289.055 14.2363 289.699 13.5449 290.988 13.1348C292.406 12.6895 294.041 12.4668 295.893 12.4668C297.873 12.4668 299.537 12.6719 300.885 13.082C302.162 13.4805 302.801 14.2012 302.801 15.2441C302.801 15.666 302.654 16.0352 302.361 16.3516C302.068 16.6562 301.688 16.8379 301.219 16.8965C300.809 16.9551 300.539 17.0488 300.41 17.1777C300.293 17.2949 300.17 17.5938 300.041 18.0742C299.537 19.9375 298.553 21.4961 297.088 22.75C296.08 23.6055 294.861 24.2734 293.432 24.7539C292.014 25.2344 290.52 25.4746 288.949 25.4746C286.383 25.4746 284.027 24.8828 281.883 23.6992C279.68 22.4922 278.004 20.8047 276.855 18.6367C275.895 16.832 275.414 14.8809 275.414 12.7832C275.414 10.6621 275.988 8.64648 277.137 6.73633C278.355 4.68555 280.061 3.10352 282.252 1.99023C284.162 1.00586 286.342 0.513672 288.791 0.513672ZM313.523 1.84961L322.277 9.51367C323.098 10.2285 323.689 10.5859 324.053 10.5859C324.662 10.5859 324.967 9.93555 324.967 8.63477C324.967 7.1582 324.879 6.15039 324.703 5.61133C324.527 5.07227 324.158 4.66797 323.596 4.39844C323.139 4.17578 322.816 3.94141 322.629 3.69531C322.441 3.4375 322.348 3.10938 322.348 2.71094C322.348 1.72656 323.021 1.09375 324.369 0.8125C324.92 0.695312 325.881 0.636719 327.252 0.636719C329.021 0.636719 330.246 0.742188 330.926 0.953125C332.004 1.28125 332.543 1.90234 332.543 2.81641C332.543 3.57812 332.104 4.15234 331.225 4.53906C330.873 4.69141 330.633 4.82617 330.504 4.94336C330.375 5.06055 330.264 5.23633 330.17 5.4707C329.854 6.24414 329.689 7.70898 329.678 9.86523V15.5957C329.678 16.4746 329.684 17.6758 329.695 19.1992C329.707 21.2617 329.584 22.75 329.326 23.6641C329.01 24.8008 328.436 25.3691 327.604 25.3691C327.24 25.3691 326.924 25.293 326.654 25.1406C326.396 24.9883 325.963 24.6367 325.354 24.0859L314.93 14.752C314.203 14.0957 313.6 13.7676 313.119 13.7676C312.404 13.7676 312.047 14.7578 312.047 16.7383C312.047 18.3672 312.135 19.4805 312.311 20.0781C312.498 20.6758 312.873 21.1152 313.436 21.3965C314.221 21.7832 314.613 22.2871 314.613 22.9082C314.613 24.5371 312.861 25.3516 309.357 25.3516C307.775 25.3516 306.545 25.1465 305.666 24.7363C304.799 24.3145 304.365 23.7227 304.365 22.9609C304.365 22.5625 304.447 22.2637 304.611 22.0645C304.775 21.8652 305.145 21.5957 305.719 21.2559C306.27 20.9277 306.604 20.3477 306.721 19.5156C306.92 18.0039 307.02 15.8301 307.02 12.9941C307.02 9.9707 306.844 7.76758 306.492 6.38477C306.363 5.88086 306.199 5.50586 306 5.25977C305.801 5.01367 305.473 4.7793 305.016 4.55664C304.488 4.29883 304.119 4.04688 303.908 3.80078C303.709 3.55469 303.609 3.25586 303.609 2.9043C303.609 1.7793 304.576 1.07031 306.51 0.777344C307.166 0.683594 308.314 0.636719 309.955 0.636719C310.893 0.636719 311.572 0.712891 311.994 0.865234C312.428 1.00586 312.938 1.33398 313.523 1.84961Z" fill="#A8A29E"/>
</svg>
