<svg width="168" height="167" viewBox="0 0 168 167" fill="none" xmlns="http://www.w3.org/2000/svg">
<g clip-path="url(#clip0_8_177)">
<path d="M143.007 87.784C146.137 76.469 140.98 64.4036 130.667 58.8353C129.604 51.4635 124.683 45.1376 117.654 42.3461C111.794 40.0191 105.361 40.469 100.041 43.3457C98.1089 37.5902 93.7306 32.8455 87.9021 30.5309C80.8742 27.7399 73.0032 28.9533 67.1786 33.5574C55.6964 30.2114 43.3657 35.4527 37.7917 46.0001L30.9177 43.2702L29.5309 46.7623C23.2213 62.6504 23.4766 80.0444 30.2494 95.7405C37.0224 111.437 49.5025 123.556 65.3904 129.865C81.2783 136.175 98.6725 135.919 114.369 129.147C130.065 122.374 142.184 109.894 148.493 94.0057L149.88 90.5136L143.007 87.784ZM122.051 56.0335C118.462 55.5501 114.791 55.8351 111.309 56.8882C109.636 53.9737 107.394 51.4261 104.742 49.3901C107.884 48.045 111.478 47.9792 114.88 49.3301C118.092 50.6058 120.617 53.0331 122.051 56.0335ZM92.3679 44.3591C88.9141 43.953 85.394 44.2568 82.0491 45.2684C80.3091 42.2369 77.9557 39.6002 75.1633 37.5259C78.2976 36.2695 81.8555 36.2152 85.1283 37.5149C88.3913 38.8107 90.9461 41.2936 92.3679 44.3591ZM66.6798 41.3212C71.3063 43.1585 74.8525 46.7294 76.6656 51.3761L78.1316 55.1332L81.7757 53.4054C86.2827 51.2687 91.3128 51.1036 95.9393 52.941C100.566 54.7783 104.112 58.3493 105.925 62.9959L107.391 66.753L111.035 65.0253C115.542 62.8885 120.572 62.7235 125.199 64.5608C133.431 67.83 137.869 76.6062 135.965 84.9873L44.8333 48.7965C49.1978 41.3923 58.4475 38.0519 66.6798 41.3212ZM68.164 122.881C40.3901 111.851 26.1941 81.1149 35.243 53.0735L140.008 94.6786C127.353 121.288 95.9379 133.911 68.164 122.881Z" fill="#FECACA" fill-opacity="0.25"/>
<path d="M46.4431 74.1395L55.5489 70.2103L58.5257 77.109L49.4199 81.0382L46.4431 74.1395Z" fill="#FECACA" fill-opacity="0.25"/>
<path d="M65.6924 81.7861L74.7982 77.8569L77.7751 84.7556L68.6693 88.6848L65.6924 81.7861Z" fill="#FECACA" fill-opacity="0.25"/>
<path d="M84.9418 89.4331L94.0476 85.5039L97.0245 92.4026L87.9187 96.3318L84.9418 89.4331Z" fill="#FECACA" fill-opacity="0.25"/>
<path d="M49.6169 96.7247L58.7227 92.7955L61.6996 99.6942L52.5938 103.623L49.6169 96.7247Z" fill="#FECACA" fill-opacity="0.25"/>
<path d="M68.8661 104.372L77.9719 100.442L80.9487 107.341L71.8429 111.27L68.8661 104.372Z" fill="#FECACA" fill-opacity="0.25"/>
<path d="M88.1154 112.019L97.2212 108.089L100.198 114.988L91.0922 118.917L88.1154 112.019Z" fill="#FECACA" fill-opacity="0.25"/>
<path d="M104.191 97.08L113.297 93.1507L116.274 100.049L107.168 103.979L104.191 97.08Z" fill="#FECACA" fill-opacity="0.25"/>
</g>
<defs>
<clipPath id="clip0_8_177">
<rect width="128" height="128" fill="white" transform="translate(48.1016) rotate(21.6595)"/>
</clipPath>
</defs>
</svg>
