<svg width="153" height="153" viewBox="0 0 153 153" fill="none" xmlns="http://www.w3.org/2000/svg">
<g clip-path="url(#clip0_8_84)">
<path d="M125.335 1.4015C124.527 0.883679 123.492 0.872825 122.676 1.37649L28.7649 59.1163C24.7785 57.7058 20.1951 58.1488 16.4496 60.7185C10.2326 64.9853 8.64556 73.5146 12.9122 79.7321C22.9735 94.3922 35.6323 106.741 50.5376 116.435C65.443 126.13 81.8638 132.694 99.3446 135.946C101.16 136.284 102.959 136.245 104.662 135.884C109.914 134.771 114.249 130.601 115.29 125.003C115.991 121.237 115.066 117.538 113.016 114.629L126.467 3.80735C126.582 2.85471 126.143 1.91957 125.335 1.4015ZM44.0843 55.5667L54.0373 49.4477C55.5865 50.5265 56.5953 52.2499 56.7457 54.177C56.8777 55.874 56.3414 57.5212 55.2353 58.8147C54.1291 60.1083 52.5862 60.8929 50.8881 61.0259C49.1915 61.1581 47.5446 60.622 46.251 59.5156C45.0591 58.4962 44.3001 57.1053 44.0843 55.5667ZM110.374 124.088C109.5 128.791 104.961 131.905 100.259 131.03C66.1963 124.693 36.6401 105.47 17.035 76.9025C15.7239 74.992 15.2353 72.6855 15.6591 70.4072C16.0829 68.1291 17.3685 66.1526 19.279 64.8414C21.1895 63.5303 23.4963 63.0416 25.7743 63.4655C28.0523 63.8893 30.0289 65.1748 31.3401 67.0853C39.7316 79.3135 50.2904 89.6133 62.723 97.6993C75.1556 105.785 88.8521 111.26 103.433 113.973C108.135 114.848 111.25 119.386 110.374 124.088ZM116.392 45.3192C116.169 45.3607 115.945 45.3949 115.718 45.4129C114.021 45.5451 112.374 45.0088 111.081 43.9026C109.787 42.7964 109.002 41.2524 108.87 39.5557C108.596 36.0528 111.223 32.9812 114.727 32.7071C115.808 32.6228 116.882 32.8216 117.855 33.2637L116.392 45.3192ZM118.474 28.1638C117.145 27.7674 115.744 27.6126 114.338 27.7223C108.085 28.2079 103.397 33.6928 103.885 39.9447C104.121 42.973 105.522 45.7282 107.831 47.7026C110.054 49.6043 112.863 50.5594 115.773 50.4157L113.923 65.6598L107.424 62.5543C106.179 61.9595 104.686 62.4863 104.091 63.7322C103.495 64.9781 104.023 66.4704 105.269 67.0657L113.288 70.8974L108.476 110.544C107.221 109.847 105.836 109.334 104.348 109.057C76.154 103.811 51.6906 87.9007 35.4639 64.2558C34.8997 63.4333 34.2587 62.6947 33.5606 62.0371L39.6153 58.3145C40.2619 60.2392 41.4181 61.961 43.0013 63.315C45.3096 65.2895 48.2491 66.2466 51.2773 66.0102C51.7846 65.9707 52.2835 65.8987 52.7732 65.795C55.2062 65.2796 57.3915 63.9861 59.0352 62.0645C61.0099 59.7557 61.9668 56.8168 61.7308 53.788C61.5185 51.0692 60.3462 48.5801 58.5004 46.7034L86.6061 29.4232L88.3476 31.9608C88.9375 32.82 89.9685 33.1957 90.9282 32.9924C91.24 32.9264 91.5442 32.7991 91.8236 32.6075C92.9619 31.8264 93.2514 30.2699 92.4702 29.1315L90.8711 26.8011L120.879 8.35132L118.474 28.1638Z" fill="#FECACA" fill-opacity="0.25"/>
<path d="M41.0049 87.0858C40.9951 87.0758 40.9683 87.0491 40.9581 87.0395C39.9712 86.0748 38.3917 86.0943 37.4264 87.0805C36.4628 88.0651 36.4797 89.6457 37.4603 90.6122C38.0811 91.2325 38.9478 91.459 39.7483 91.2895C40.2013 91.1935 40.6327 90.9708 40.9859 90.6212C41.9675 89.65 41.9759 88.0671 41.0049 87.0858Z" fill="#FECACA" fill-opacity="0.25"/>
<path d="M35.9981 81.7978C32.7295 78.1239 29.6606 74.2044 26.8769 70.1485C26.0957 69.0096 24.5388 68.721 23.4012 69.502C22.2626 70.2831 21.9734 71.8394 22.7547 72.9777C25.6565 77.2058 28.8556 81.2915 32.2627 85.1211C32.8815 85.8164 33.8012 86.0852 34.6508 85.9052C35.0617 85.8181 35.4562 85.6262 35.7921 85.3274C36.8235 84.4094 36.916 82.8292 35.9981 81.7978Z" fill="#FECACA" fill-opacity="0.25"/>
<path d="M83.8574 42.1575C83.3591 42.1961 82.86 42.2681 82.3738 42.3711C76.8178 43.548 72.9615 48.7105 73.4039 54.3794C73.8916 60.6311 79.3742 65.3206 85.6259 64.833C86.1242 64.7943 86.6233 64.7223 87.1095 64.6193C92.6652 63.4424 96.5216 58.2799 96.0793 52.6105C95.5914 46.3592 90.1088 41.6698 83.8574 42.1575ZM91.0947 52.9995C91.3425 56.1763 89.1838 59.0687 86.0733 59.7277C85.7999 59.7856 85.5184 59.8263 85.2371 59.8481C81.7339 60.1212 78.6622 57.4935 78.3887 53.9904C78.141 50.8138 80.2995 47.9217 83.41 47.2628C83.6834 47.2048 83.9649 47.1641 84.2462 47.1424C87.7492 46.8695 90.8214 49.4968 91.0947 52.9995Z" fill="#FECACA" fill-opacity="0.25"/>
<path d="M89.6655 72.7139C89.1669 72.7525 88.668 72.8245 88.1818 72.9275C82.6259 74.1044 78.7695 79.2669 79.212 84.9361C79.448 87.9646 80.8494 90.7195 83.158 92.6942C85.4663 94.6687 88.4054 95.6259 91.434 95.3898C91.932 95.351 92.4309 95.2788 92.9169 95.1759C98.4728 93.9989 102.329 88.8364 101.887 83.167C101.4 76.9158 95.917 72.2267 89.6655 72.7139ZM96.9028 83.5561C97.1505 86.733 94.9916 89.6254 91.8812 90.2843C91.608 90.3422 91.3265 90.3827 91.0454 90.4046C89.3485 90.5367 87.7016 90.0004 86.408 88.8942C85.1144 87.788 84.3292 86.2442 84.1968 84.547C83.9491 81.3704 86.1078 78.478 89.218 77.8192C89.4915 77.7612 89.7729 77.7205 90.0542 77.6987C93.5569 77.4257 96.6292 80.0533 96.9028 83.5561Z" fill="#FECACA" fill-opacity="0.25"/>
<path d="M71.3881 65.9989L63.6613 66.6015C62.2851 66.7073 61.2558 67.9117 61.3632 69.2881C61.4703 70.6648 62.6733 71.6936 64.0497 71.5862L71.7766 70.9836C71.888 70.9751 71.997 70.9591 72.1034 70.9366C73.3119 70.6806 74.1733 69.562 74.0745 68.2971C73.9676 66.9206 72.7647 65.8915 71.3881 65.9989Z" fill="#FECACA" fill-opacity="0.25"/>
<path d="M71.3999 84.855L69.6676 79.9516C69.2075 78.6496 67.7795 77.9668 66.4777 78.4273C65.1758 78.8873 64.4934 80.3153 64.9534 81.6172L66.686 86.5206C67.1086 87.7172 68.3493 88.3904 69.558 88.1344C69.6644 88.1119 69.7706 88.0822 69.8756 88.0449C71.1775 87.5848 71.8599 86.1569 71.3999 84.855Z" fill="#FECACA" fill-opacity="0.25"/>
</g>
<defs>
<clipPath id="clip0_8_84">
<rect width="128" height="128" fill="white" transform="translate(0.691772 27.0684) rotate(-11.9607)"/>
</clipPath>
</defs>
</svg>
