<svg width="208" height="96" viewBox="0 0 208 96" fill="none" xmlns="http://www.w3.org/2000/svg">
<g clip-path="url(#clip0_13_91)">
<path d="M87.9772 4.86513C81.2517 -1.62106 71.119 -1.62106 64.3936 4.86513C58.501 10.5546 55.2234 20.456 56.0428 30.0892C56.1771 31.6507 56.298 33.2641 56.4145 34.9018C56.934 42.0886 57.3189 49.8281 57.6459 56.4663C57.8742 61.0307 58.0757 65.0825 58.2772 68.0895C58.3354 68.9864 58.3803 69.9912 58.425 71.0683C58.8011 79.8808 59.428 94.2864 71.7056 95.8398V87.5319C67.7608 86.0464 64.9892 80.7334 64.9892 73.9749C64.9892 66.9362 67.9803 61.4349 72.1848 60.2218L72.4491 55.9577H69.467C68.2312 55.9577 67.2281 55.0608 67.2281 53.9557C67.2281 52.8507 68.2312 51.9538 69.467 51.9538H72.6999L72.9507 47.95H69.4716C68.2358 47.95 67.2327 47.0531 67.2327 45.948C67.2327 44.843 68.2358 43.9461 69.4716 43.9461H73.2015L73.4567 39.8462C74.1015 39.8823 74.7866 39.9543 75.3955 39.9543L76.2596 39.9423C76.7834 39.9264 77.3566 39.8862 77.9387 39.8462L77.6834 43.9502H80.6655C81.9013 43.9502 82.9044 44.8471 82.9044 45.9522C82.9044 47.0572 81.9013 47.9541 80.6655 47.9541H77.4326L77.1818 51.9579H80.6609C81.8967 51.9579 82.8998 52.8548 82.8998 53.9599C82.8998 55.0649 81.8967 55.9618 80.6609 55.9618H76.931L76.6399 60.6343C80.3339 62.3519 82.8996 67.4847 82.8996 73.979C82.8996 80.7414 80.128 86.0545 76.1832 87.536V96.0001C85.2547 96.0001 90.525 85.9385 91.8502 66.0916C92.1145 62.1519 92.907 56.6467 93.7443 50.817C94.4652 45.8043 95.2443 40.383 95.8354 35.0379V35.0298C96.019 33.3683 96.1846 31.7186 96.3234 30.0892C97.1518 20.4519 93.8742 10.5544 87.9772 4.86513ZM91.8683 29.7808C91.7698 30.9459 91.6578 32.123 91.5325 33.3082C91.2057 33.3963 90.8877 33.4884 90.5384 33.5764C89.9564 33.7245 89.3608 33.8728 88.7294 34.0209C88.1071 34.165 87.4711 34.3052 86.822 34.4412C86.1816 34.5773 85.5324 34.7016 84.8786 34.8256C84.1891 34.9538 83.5041 35.0779 82.8144 35.1899C82.1786 35.2941 81.5607 35.3821 80.9472 35.4701C80.2665 35.5623 79.6039 35.6503 78.9635 35.7143C77.9561 35.8224 76.9621 35.9185 76.1158 35.9425L75.3948 35.9464C74.8665 35.9464 74.2709 35.8864 73.7023 35.8584V35.8503C72.677 35.7942 71.5977 35.6903 70.4784 35.538C70.474 35.538 70.465 35.538 70.4606 35.5341C69.4441 35.3939 68.3785 35.2059 67.2995 34.9897C66.9995 34.9296 66.6994 34.8615 66.3951 34.7975C65.5712 34.6173 64.7294 34.417 63.8787 34.1969C63.2967 34.0447 62.7057 33.8726 62.11 33.7005C61.6711 33.5723 61.2325 33.4402 60.7892 33.3002C60.6995 32.103 60.6055 30.9258 60.5071 29.7769C59.7861 21.3368 62.6698 12.4164 67.6802 7.58365C72.74 2.70306 79.6354 2.70306 84.6952 7.58365C89.7056 12.4203 92.5846 21.3368 91.8683 29.7808Z" fill="#A8A29E"/>
<path d="M19.3804 4.86515C13.4924 10.5546 10.2148 20.456 11.0342 30.0892C11.173 31.7188 11.3388 33.3723 11.5222 35.0298V35.0338C12.1133 40.3789 12.8924 45.8 13.6133 50.8129C14.4552 56.6424 15.2477 62.1477 15.5074 66.0875C16.8328 85.9343 22.1029 95.996 31.1744 95.996V87.5319C27.2296 86.0464 24.458 80.7334 24.458 73.9749C24.458 67.4806 27.0237 62.3478 30.7177 60.6302L30.4266 55.9617H26.6967C25.4609 55.9617 24.4578 55.0647 24.4578 53.9597C24.4578 52.8546 25.4609 51.9577 26.6967 51.9577H30.1758L29.925 47.954H26.6921C25.4562 47.954 24.4532 47.057 24.4532 45.952C24.4532 44.8469 25.4562 43.95 26.6921 43.95H29.6741L29.4189 39.8461C29.9965 39.8902 30.5697 39.9301 31.098 39.9421L31.9621 39.9502C32.571 39.9502 33.2561 39.8781 33.9009 39.8421L34.1561 43.942H37.886C39.1218 43.942 40.1249 44.8389 40.1249 45.9439C40.1249 47.049 39.1218 47.9459 37.886 47.9459H34.4069L34.6577 51.9496H37.8906C39.1264 51.9496 40.1295 52.8466 40.1295 53.9516C40.1295 55.0567 39.1264 55.9536 37.8906 55.9536H34.9085L35.1728 60.2177C39.3772 61.4308 42.3684 66.9321 42.3684 73.9708C42.3684 80.7332 39.5968 86.0462 35.652 87.5277V95.8357C47.9339 94.2823 48.5609 79.8764 48.9326 71.0642C48.9773 69.9831 49.0222 68.9823 49.0804 68.0853C49.2819 65.0785 49.4833 61.0265 49.7117 56.4622C50.0431 49.8199 50.428 42.0845 50.9431 34.8977C51.0596 33.2602 51.1849 31.6426 51.3148 30.0851C52.1342 20.4519 48.8566 10.5505 42.964 4.86102C36.2386 -1.62103 26.1056 -1.62103 19.3804 4.86515ZM46.8593 29.7808C46.7609 30.93 46.6669 32.1071 46.5772 33.3041C46.134 33.4402 45.6951 33.5765 45.2564 33.7044C44.661 33.8726 44.0743 34.0488 43.4877 34.2009C42.637 34.421 41.7952 34.6213 40.9713 34.8014C40.6668 34.8696 40.3669 34.9336 40.0669 34.9936C38.9833 35.2059 37.9221 35.3939 36.9058 35.5381C36.9014 35.5381 36.8924 35.5381 36.888 35.542C35.7687 35.6942 34.6894 35.7982 33.6641 35.8504V35.8584C33.0999 35.8945 32.5045 35.9465 31.9716 35.9465L31.2506 35.9425C30.4043 35.9185 29.4059 35.8224 28.4029 35.7143C27.7625 35.6422 27.0999 35.5582 26.4192 35.466C25.8013 35.3819 25.1834 35.2898 24.552 35.1858C23.867 35.0777 23.1775 34.9536 22.4878 34.8215C21.834 34.7014 21.1848 34.5693 20.5444 34.4411C19.8953 34.305 19.2593 34.1609 18.637 34.0167C18.0101 33.8726 17.4102 33.7245 16.828 33.5763C16.4787 33.4841 16.1607 33.3922 15.8339 33.3081C15.7086 32.1189 15.5966 30.9499 15.4981 29.7806C14.7772 21.3366 17.6608 12.4202 22.6712 7.58349C27.731 2.7029 34.6264 2.7029 39.6862 7.58349C44.6966 12.4204 47.5759 21.3368 46.8593 29.7808Z" fill="#A8A29E"/>
</g>
<path d="M121.5 43.388C121.052 43.388 120.539 43.1453 119.96 42.66C119.381 42.1747 118.775 41.54 118.14 40.756C117.524 39.972 116.908 39.1133 116.292 38.18C115.695 37.228 115.125 36.276 114.584 35.324C114.043 34.372 113.585 33.5133 113.212 32.748C112.708 34.4653 112.223 36.164 111.756 37.844C111.308 39.5053 110.879 41.0453 110.468 42.464C109.927 42.464 109.413 42.3147 108.928 42.016C108.461 41.7173 108.228 41.3253 108.228 40.84C108.228 40.6347 108.275 40.392 108.368 40.112C108.461 39.832 108.545 39.5613 108.62 39.3C109.161 37.676 109.647 36.2293 110.076 34.96C110.505 33.672 110.907 32.496 111.28 31.432C111.672 30.3493 112.064 29.2853 112.456 28.24C112.867 27.176 113.315 26.0653 113.8 24.908C114.285 23.7507 114.845 22.444 115.48 20.988C114.752 21.1373 114.108 21.3333 113.548 21.576C113.007 21.8187 112.559 22.0333 112.204 22.22C111.868 22.4067 111.635 22.5 111.504 22.5C111.411 22.5 111.271 22.444 111.084 22.332C110.897 22.2013 110.729 22.052 110.58 21.884C110.449 21.6973 110.384 21.5387 110.384 21.408C110.907 21.2027 111.513 20.9787 112.204 20.736C112.913 20.4933 113.688 20.288 114.528 20.12C115.368 19.9333 116.236 19.84 117.132 19.84C117.972 19.84 118.84 19.9427 119.736 20.148C120.632 20.3347 121.463 20.6427 122.228 21.072C122.993 21.5013 123.609 22.0613 124.076 22.752C124.543 23.4427 124.776 24.2733 124.776 25.244C124.776 26.1213 124.58 26.8867 124.188 27.54C123.796 28.1747 123.273 28.716 122.62 29.164C121.967 29.612 121.248 29.976 120.464 30.256C119.68 30.536 118.887 30.76 118.084 30.928C117.281 31.0773 116.535 31.18 115.844 31.236C115.172 31.292 114.612 31.3293 114.164 31.348C114.761 32.3 115.349 33.224 115.928 34.12C116.507 35.016 117.123 35.912 117.776 36.808C118.448 37.6853 119.223 38.572 120.1 39.468C120.977 40.3453 122.013 41.2413 123.208 42.156C123.133 42.5293 122.9 42.828 122.508 43.052C122.135 43.276 121.799 43.388 121.5 43.388ZM113.856 30.508C114.901 30.4333 115.928 30.2653 116.936 30.004C117.963 29.7427 118.887 29.3787 119.708 28.912C120.548 28.4453 121.211 27.8667 121.696 27.176C122.2 26.4667 122.452 25.636 122.452 24.684C122.452 23.7133 122.209 22.9573 121.724 22.416C121.239 21.856 120.613 21.4547 119.848 21.212C119.083 20.9693 118.28 20.8387 117.44 20.82C116.805 22.0707 116.189 23.5453 115.592 25.244C114.995 26.924 114.416 28.6787 113.856 30.508ZM127.206 41.232C126.011 41.232 125.087 40.9053 124.434 40.252C123.799 39.6173 123.482 38.8147 123.482 37.844C123.482 37.0227 123.687 36.1547 124.098 35.24C124.527 34.3067 125.096 33.4387 125.806 32.636C126.515 31.8147 127.299 31.152 128.158 30.648C129.016 30.144 129.875 29.892 130.734 29.892C131.219 29.892 131.676 30.0227 132.106 30.284C132.554 30.5267 132.778 31.0213 132.778 31.768C132.778 32.4773 132.572 33.14 132.162 33.756C131.751 34.372 131.2 34.9227 130.51 35.408C129.819 35.8933 129.054 36.2947 128.214 36.612C127.392 36.9107 126.562 37.1067 125.722 37.2C125.703 37.2747 125.684 37.3587 125.666 37.452C125.666 37.5267 125.666 37.6573 125.666 37.844C125.666 37.9373 125.675 38.1053 125.694 38.348C125.731 38.572 125.815 38.8147 125.946 39.076C126.076 39.3373 126.291 39.5613 126.59 39.748C126.888 39.9347 127.299 40.028 127.822 40.028C128.606 40.028 129.39 39.8133 130.174 39.384C130.976 38.936 131.723 38.348 132.414 37.62C133.123 36.892 133.711 36.08 134.178 35.184L134.738 35.632C134.234 36.752 133.58 37.732 132.778 38.572C131.994 39.412 131.116 40.0653 130.146 40.532C129.194 40.9987 128.214 41.232 127.206 41.232ZM126.03 36.164C126.515 36.108 127.056 35.94 127.654 35.66C128.251 35.38 128.82 35.0253 129.362 34.596C129.922 34.1667 130.379 33.7 130.734 33.196C131.088 32.6733 131.266 32.1507 131.266 31.628C131.266 31.4227 131.228 31.2827 131.154 31.208C131.079 31.1333 130.958 31.096 130.79 31.096C130.36 31.096 129.912 31.2547 129.446 31.572C128.979 31.8707 128.522 32.272 128.074 32.776C127.626 33.2613 127.224 33.8027 126.87 34.4C126.515 34.9973 126.235 35.5853 126.03 36.164ZM142.936 40.56C142.208 40.56 141.648 40.3733 141.256 40C140.883 39.6453 140.696 39.188 140.696 38.628C140.696 38.2547 140.762 37.8627 140.892 37.452C141.023 37.0227 141.154 36.5933 141.284 36.164C141.415 35.7347 141.48 35.324 141.48 34.932C141.48 34.5213 141.378 34.2413 141.172 34.092C140.986 33.924 140.762 33.84 140.5 33.84C139.94 33.84 139.362 34.0733 138.764 34.54C138.186 34.988 137.616 35.5573 137.056 36.248C136.515 36.9387 136.002 37.6573 135.516 38.404C135.031 39.1507 134.611 39.8227 134.256 40.42C133.902 40.42 133.566 40.3547 133.248 40.224C132.931 40.112 132.66 39.9067 132.436 39.608C132.455 39.5147 132.567 39.2347 132.772 38.768C132.959 38.2827 133.174 37.7133 133.416 37.06C133.659 36.388 133.874 35.688 134.06 34.96C134.247 34.232 134.34 33.5693 134.34 32.972C134.471 32.8227 134.667 32.6733 134.928 32.524C135.208 32.3747 135.498 32.3 135.796 32.3C136.45 32.3 136.776 32.58 136.776 33.14C136.776 33.364 136.73 33.7 136.636 34.148C136.562 34.5773 136.45 35.072 136.3 35.632C136.786 34.9787 137.318 34.3627 137.896 33.784C138.475 33.2053 139.072 32.7387 139.688 32.384C140.323 32.0107 140.958 31.824 141.592 31.824C142.395 31.824 142.983 32.0947 143.356 32.636C143.748 33.1773 143.944 33.7747 143.944 34.428C143.944 34.988 143.851 35.5107 143.664 35.996C143.478 36.4813 143.291 36.9387 143.104 37.368C142.936 37.7973 142.852 38.2173 142.852 38.628C142.852 38.9267 142.918 39.1413 143.048 39.272C143.198 39.384 143.356 39.44 143.524 39.44C143.972 39.44 144.439 39.2253 144.924 38.796C145.41 38.3667 145.867 37.8253 146.296 37.172C146.744 36.5 147.136 35.828 147.472 35.156L147.948 35.548C147.556 36.4627 147.108 37.3027 146.604 38.068C146.119 38.8147 145.568 39.4213 144.952 39.888C144.355 40.336 143.683 40.56 142.936 40.56ZM156.171 40.56C155.443 40.56 154.883 40.3733 154.491 40C154.118 39.6453 153.931 39.188 153.931 38.628C153.931 38.2547 153.996 37.8627 154.127 37.452C154.258 37.0227 154.388 36.5933 154.519 36.164C154.65 35.7347 154.715 35.324 154.715 34.932C154.715 34.5213 154.612 34.2413 154.407 34.092C154.22 33.924 153.996 33.84 153.735 33.84C153.175 33.84 152.596 34.0733 151.999 34.54C151.42 34.988 150.851 35.5573 150.291 36.248C149.75 36.9387 149.236 37.6573 148.751 38.404C148.266 39.1507 147.846 39.8227 147.491 40.42C147.136 40.42 146.8 40.3547 146.483 40.224C146.166 40.112 145.895 39.9067 145.671 39.608C145.69 39.5147 145.802 39.2347 146.007 38.768C146.194 38.2827 146.408 37.7133 146.651 37.06C146.894 36.388 147.108 35.688 147.295 34.96C147.482 34.232 147.575 33.5693 147.575 32.972C147.706 32.8227 147.902 32.6733 148.163 32.524C148.443 32.3747 148.732 32.3 149.031 32.3C149.684 32.3 150.011 32.58 150.011 33.14C150.011 33.364 149.964 33.7 149.871 34.148C149.796 34.5773 149.684 35.072 149.535 35.632C150.02 34.9787 150.552 34.3627 151.131 33.784C151.71 33.2053 152.307 32.7387 152.923 32.384C153.558 32.0107 154.192 31.824 154.827 31.824C155.63 31.824 156.218 32.0947 156.591 32.636C156.983 33.1773 157.179 33.7747 157.179 34.428C157.179 34.988 157.086 35.5107 156.899 35.996C156.712 36.4813 156.526 36.9387 156.339 37.368C156.171 37.7973 156.087 38.2173 156.087 38.628C156.087 38.9267 156.152 39.1413 156.283 39.272C156.432 39.384 156.591 39.44 156.759 39.44C157.207 39.44 157.674 39.2253 158.159 38.796C158.644 38.3667 159.102 37.8253 159.531 37.172C159.979 36.5 160.371 35.828 160.707 35.156L161.183 35.548C160.791 36.4627 160.343 37.3027 159.839 38.068C159.354 38.8147 158.803 39.4213 158.187 39.888C157.59 40.336 156.918 40.56 156.171 40.56ZM163.217 41.232C162.023 41.232 161.099 40.9053 160.445 40.252C159.811 39.6173 159.493 38.8147 159.493 37.844C159.493 37.0227 159.699 36.1547 160.109 35.24C160.539 34.3067 161.108 33.4387 161.817 32.636C162.527 31.8147 163.311 31.152 164.169 30.648C165.028 30.144 165.887 29.892 166.745 29.892C167.231 29.892 167.688 30.0227 168.117 30.284C168.565 30.5267 168.789 31.0213 168.789 31.768C168.789 32.4773 168.584 33.14 168.173 33.756C167.763 34.372 167.212 34.9227 166.521 35.408C165.831 35.8933 165.065 36.2947 164.225 36.612C163.404 36.9107 162.573 37.1067 161.733 37.2C161.715 37.2747 161.696 37.3587 161.677 37.452C161.677 37.5267 161.677 37.6573 161.677 37.844C161.677 37.9373 161.687 38.1053 161.705 38.348C161.743 38.572 161.827 38.8147 161.957 39.076C162.088 39.3373 162.303 39.5613 162.601 39.748C162.9 39.9347 163.311 40.028 163.833 40.028C164.617 40.028 165.401 39.8133 166.185 39.384C166.988 38.936 167.735 38.348 168.425 37.62C169.135 36.892 169.723 36.08 170.189 35.184L170.749 35.632C170.245 36.752 169.592 37.732 168.789 38.572C168.005 39.412 167.128 40.0653 166.157 40.532C165.205 40.9987 164.225 41.232 163.217 41.232ZM162.041 36.164C162.527 36.108 163.068 35.94 163.665 35.66C164.263 35.38 164.832 35.0253 165.373 34.596C165.933 34.1667 166.391 33.7 166.745 33.196C167.1 32.6733 167.277 32.1507 167.277 31.628C167.277 31.4227 167.24 31.2827 167.165 31.208C167.091 31.1333 166.969 31.096 166.801 31.096C166.372 31.096 165.924 31.2547 165.457 31.572C164.991 31.8707 164.533 32.272 164.085 32.776C163.637 33.2613 163.236 33.8027 162.881 34.4C162.527 34.9973 162.247 35.5853 162.041 36.164ZM178.948 40.56C178.22 40.56 177.66 40.3733 177.268 40C176.895 39.6453 176.708 39.188 176.708 38.628C176.708 38.2547 176.774 37.8627 176.904 37.452C177.035 37.0227 177.166 36.5933 177.296 36.164C177.427 35.7347 177.492 35.324 177.492 34.932C177.492 34.5213 177.39 34.2413 177.184 34.092C176.998 33.924 176.774 33.84 176.512 33.84C175.952 33.84 175.374 34.0733 174.776 34.54C174.198 34.988 173.628 35.5573 173.068 36.248C172.527 36.9387 172.014 37.6573 171.528 38.404C171.043 39.1507 170.623 39.8227 170.268 40.42C169.914 40.42 169.578 40.3547 169.26 40.224C168.943 40.112 168.672 39.9067 168.448 39.608C168.467 39.5147 168.579 39.2347 168.784 38.768C168.971 38.2827 169.186 37.7133 169.428 37.06C169.671 36.388 169.886 35.688 170.072 34.96C170.259 34.232 170.352 33.5693 170.352 32.972C170.483 32.8227 170.679 32.6733 170.94 32.524C171.22 32.3747 171.51 32.3 171.808 32.3C172.462 32.3 172.788 32.58 172.788 33.14C172.788 33.364 172.742 33.7 172.648 34.148C172.574 34.5773 172.462 35.072 172.312 35.632C172.798 34.9787 173.33 34.3627 173.908 33.784C174.487 33.2053 175.084 32.7387 175.7 32.384C176.335 32.0107 176.97 31.824 177.604 31.824C178.407 31.824 178.995 32.0947 179.368 32.636C179.76 33.1773 179.956 33.7747 179.956 34.428C179.956 34.988 179.863 35.5107 179.676 35.996C179.49 36.4813 179.303 36.9387 179.116 37.368C178.948 37.7973 178.864 38.2173 178.864 38.628C178.864 38.9267 178.93 39.1413 179.06 39.272C179.21 39.384 179.368 39.44 179.536 39.44C179.984 39.44 180.451 39.2253 180.936 38.796C181.422 38.3667 181.879 37.8253 182.308 37.172C182.756 36.5 183.148 35.828 183.484 35.156L183.96 35.548C183.568 36.4627 183.12 37.3027 182.616 38.068C182.131 38.8147 181.58 39.4213 180.964 39.888C180.367 40.336 179.695 40.56 178.948 40.56ZM184.679 40.84C184.324 40.84 183.96 40.7467 183.587 40.56C183.232 40.392 182.933 40.1213 182.691 39.748C182.429 39.3747 182.299 38.8987 182.299 38.32C182.299 37.704 182.448 37.0133 182.747 36.248C183.045 35.4827 183.447 34.7173 183.951 33.952C184.473 33.1867 185.071 32.4867 185.743 31.852C186.433 31.2173 187.161 30.704 187.927 30.312C188.692 29.92 189.467 29.724 190.251 29.724C190.68 29.724 191.016 29.7987 191.259 29.948C191.501 30.0787 191.623 30.3027 191.623 30.62C191.623 30.7133 191.604 30.8253 191.567 30.956C191.529 31.068 191.436 31.1707 191.287 31.264C191.212 31.152 191.081 31.0773 190.895 31.04C190.708 30.984 190.512 30.956 190.307 30.956C189.691 30.956 189.103 31.1333 188.543 31.488C187.983 31.824 187.469 32.2627 187.003 32.804C186.536 33.3453 186.125 33.9333 185.771 34.568C185.435 35.2027 185.173 35.8187 184.987 36.416C184.8 36.9947 184.707 37.4987 184.707 37.928C184.707 38.2827 184.781 38.572 184.931 38.796C185.08 39.0013 185.304 39.104 185.603 39.104C186.107 39.104 186.704 38.8147 187.395 38.236C188.104 37.6387 188.823 36.7893 189.551 35.688C190.297 34.568 190.969 33.2333 191.567 31.684C191.977 30.62 192.407 29.5373 192.855 28.436C193.303 27.316 193.751 26.2427 194.199 25.216C194.647 24.1893 195.085 23.2747 195.515 22.472C195.963 21.6693 196.383 21.0347 196.775 20.568C197.185 20.0827 197.559 19.84 197.895 19.84C198.1 19.84 198.277 19.924 198.427 20.092C198.595 20.2413 198.679 20.4373 198.679 20.68C198.679 20.9973 198.52 21.5107 198.203 22.22C197.904 22.9107 197.512 23.7413 197.027 24.712C196.56 25.6827 196.047 26.7373 195.487 27.876C194.945 28.996 194.432 30.1533 193.947 31.348C193.48 32.524 193.088 33.6907 192.771 34.848C192.472 35.9867 192.323 37.06 192.323 38.068C192.323 38.516 192.36 38.824 192.435 38.992C192.528 39.1413 192.677 39.216 192.883 39.216C193.293 39.216 193.751 39.0573 194.255 38.74C194.759 38.4227 195.272 37.956 195.795 37.34C196.317 36.7053 196.793 35.9493 197.223 35.072L197.755 35.52C197.344 36.5467 196.821 37.452 196.187 38.236C195.552 39.02 194.871 39.6267 194.143 40.056C193.415 40.504 192.696 40.728 191.987 40.728C191.221 40.728 190.689 40.4853 190.391 40C190.092 39.5147 189.943 38.9453 189.943 38.292C189.943 37.9933 189.961 37.6947 189.999 37.396C190.055 37.0787 190.111 36.7707 190.167 36.472C189.588 37.312 188.972 38.068 188.319 38.74C187.684 39.3933 187.059 39.9067 186.443 40.28C185.827 40.6533 185.239 40.84 184.679 40.84ZM199.748 41.232C198.554 41.232 197.63 40.9053 196.976 40.252C196.342 39.6173 196.024 38.8147 196.024 37.844C196.024 37.0227 196.23 36.1547 196.64 35.24C197.07 34.3067 197.639 33.4387 198.348 32.636C199.058 31.8147 199.842 31.152 200.7 30.648C201.559 30.144 202.418 29.892 203.276 29.892C203.762 29.892 204.219 30.0227 204.648 30.284C205.096 30.5267 205.32 31.0213 205.32 31.768C205.32 32.4773 205.115 33.14 204.704 33.756C204.294 34.372 203.743 34.9227 203.052 35.408C202.362 35.8933 201.596 36.2947 200.756 36.612C199.935 36.9107 199.104 37.1067 198.264 37.2C198.246 37.2747 198.227 37.3587 198.208 37.452C198.208 37.5267 198.208 37.6573 198.208 37.844C198.208 37.9373 198.218 38.1053 198.236 38.348C198.274 38.572 198.358 38.8147 198.488 39.076C198.619 39.3373 198.834 39.5613 199.132 39.748C199.431 39.9347 199.842 40.028 200.364 40.028C201.148 40.028 201.932 39.8133 202.716 39.384C203.519 38.936 204.266 38.348 204.956 37.62C205.666 36.892 206.254 36.08 206.72 35.184L207.28 35.632C206.776 36.752 206.123 37.732 205.32 38.572C204.536 39.412 203.659 40.0653 202.688 40.532C201.736 40.9987 200.756 41.232 199.748 41.232ZM198.572 36.164C199.058 36.108 199.599 35.94 200.196 35.66C200.794 35.38 201.363 35.0253 201.904 34.596C202.464 34.1667 202.922 33.7 203.276 33.196C203.631 32.6733 203.808 32.1507 203.808 31.628C203.808 31.4227 203.771 31.2827 203.696 31.208C203.622 31.1333 203.5 31.096 203.332 31.096C202.903 31.096 202.455 31.2547 201.988 31.572C201.522 31.8707 201.064 32.272 200.616 32.776C200.168 33.2613 199.767 33.8027 199.412 34.4C199.058 34.9973 198.778 35.5853 198.572 36.164ZM113.884 76.436C112.801 76.436 111.765 76.2493 110.776 75.876C109.805 75.5027 109.012 74.9333 108.396 74.168C107.78 73.4027 107.472 72.4507 107.472 71.312C107.472 70.304 107.696 69.52 108.144 68.96C108.592 68.3813 109.152 67.98 109.824 67.756C110.496 67.532 111.149 67.42 111.784 67.42C111.187 68.0547 110.729 68.708 110.412 69.38C110.113 70.052 109.964 70.696 109.964 71.312C109.964 71.9467 110.123 72.544 110.44 73.104C110.776 73.6453 111.271 74.084 111.924 74.42C112.577 74.7747 113.389 74.952 114.36 74.952C115.2 74.952 116.012 74.812 116.796 74.532C117.599 74.252 118.252 73.832 118.756 73.272C119.279 72.712 119.54 72.012 119.54 71.172C119.54 70.4067 119.316 69.7533 118.868 69.212C118.439 68.652 117.879 68.1573 117.188 67.728C116.497 67.28 115.769 66.86 115.004 66.468C114.239 66.0573 113.511 65.6187 112.82 65.152C112.129 64.6853 111.56 64.144 111.112 63.528C110.683 62.912 110.468 62.1747 110.468 61.316C110.468 60.5507 110.655 59.7387 111.028 58.88C111.42 58.0027 111.971 57.1813 112.68 56.416C113.389 55.6507 114.248 55.0347 115.256 54.568C116.264 54.0827 117.384 53.84 118.616 53.84C119.904 53.84 120.809 54.1107 121.332 54.652C121.855 55.1933 122.116 55.9027 122.116 56.78C122.116 57.4707 121.995 58.208 121.752 58.992C121.509 59.776 121.211 60.5227 120.856 61.232C120.52 61.9413 120.193 62.548 119.876 63.052C119.465 62.9587 119.157 62.8 118.952 62.576C118.747 62.3333 118.644 62.016 118.644 61.624C118.644 61.232 118.719 60.7933 118.868 60.308C119.036 59.8227 119.223 59.3187 119.428 58.796C119.652 58.2733 119.839 57.7693 119.988 57.284C120.156 56.78 120.24 56.3413 120.24 55.968C120.24 55.632 120.137 55.3707 119.932 55.184C119.745 54.9973 119.353 54.904 118.756 54.904C117.86 54.904 117.039 55.1 116.292 55.492C115.545 55.884 114.892 56.3787 114.332 56.976C113.791 57.5733 113.371 58.208 113.072 58.88C112.773 59.5333 112.624 60.1307 112.624 60.672C112.624 61.344 112.839 61.9227 113.268 62.408C113.697 62.8747 114.248 63.304 114.92 63.696C115.611 64.088 116.329 64.48 117.076 64.872C117.841 65.264 118.56 65.7027 119.232 66.188C119.923 66.6733 120.483 67.252 120.912 67.924C121.341 68.596 121.556 69.4173 121.556 70.388C121.556 71.3587 121.332 72.2173 120.884 72.964C120.455 73.7107 119.867 74.336 119.12 74.84C118.373 75.3627 117.543 75.7547 116.628 76.016C115.732 76.296 114.817 76.436 113.884 76.436ZM126.411 75.568C125.44 75.568 124.637 75.26 124.003 74.644C123.387 74.0467 123.079 73.1227 123.079 71.872C123.079 70.9573 123.256 70.0613 123.611 69.184C123.965 68.3067 124.441 67.5227 125.039 66.832C125.636 66.1227 126.299 65.5627 127.027 65.152C127.773 64.7413 128.529 64.536 129.295 64.536C130.079 64.536 130.639 64.732 130.975 65.124C131.329 65.516 131.507 65.9733 131.507 66.496C131.507 67.0187 131.376 67.532 131.115 68.036C130.872 68.5213 130.536 68.764 130.107 68.764C129.752 68.764 129.463 68.5867 129.239 68.232C129.425 68.1013 129.621 67.8587 129.827 67.504C130.032 67.1493 130.135 66.692 130.135 66.132C130.135 65.9827 130.097 65.8707 130.023 65.796C129.948 65.7027 129.808 65.656 129.603 65.656C129.136 65.656 128.641 65.8707 128.119 66.3C127.615 66.7107 127.139 67.252 126.691 67.924C126.261 68.5773 125.907 69.2773 125.627 70.024C125.365 70.752 125.235 71.424 125.235 72.04C125.235 72.5627 125.365 73.048 125.627 73.496C125.907 73.9253 126.439 74.14 127.223 74.14C127.932 74.14 128.669 73.9347 129.435 73.524C130.2 73.1133 130.919 72.544 131.591 71.816C132.263 71.0693 132.804 70.1827 133.215 69.156L133.775 69.66C133.327 70.7987 132.701 71.816 131.899 72.712C131.115 73.5893 130.237 74.28 129.267 74.784C128.315 75.3067 127.363 75.568 126.411 75.568ZM133.859 75.064C133.448 75.064 133.149 74.7467 132.963 74.112C132.795 73.4773 132.711 72.74 132.711 71.9C132.711 71.0413 132.851 70.0053 133.131 68.792C133.429 67.5787 133.821 66.3 134.307 64.956C134.811 63.612 135.361 62.296 135.959 61.008C136.575 59.72 137.2 58.5533 137.835 57.508C138.488 56.444 139.104 55.5947 139.683 54.96C140.28 54.3253 140.803 54.008 141.251 54.008C141.643 54.008 141.941 54.2227 142.147 54.652C142.352 55.0813 142.455 55.5293 142.455 55.996C142.455 56.5 142.333 57.1253 142.091 57.872C141.867 58.6 141.549 59.384 141.139 60.224C140.728 61.064 140.243 61.8947 139.683 62.716C139.141 63.5187 138.544 64.256 137.891 64.928C137.256 65.6 136.593 66.1413 135.903 66.552C135.66 67.1867 135.464 67.784 135.315 68.344C135.184 68.8853 135.091 69.3987 135.035 69.884C134.979 70.3693 134.951 70.8453 134.951 71.312C134.951 71.4053 134.951 71.508 134.951 71.62C134.969 71.7133 134.979 71.8067 134.979 71.9C135.053 71.788 135.175 71.4987 135.343 71.032C135.511 70.5653 135.735 70.024 136.015 69.408C136.313 68.7733 136.677 68.1573 137.107 67.56C137.536 66.944 138.04 66.44 138.619 66.048C139.197 65.6373 139.86 65.432 140.607 65.432C141.241 65.432 141.736 65.5813 142.091 65.88C142.445 66.16 142.697 66.5147 142.847 66.944C142.996 67.3547 143.071 67.7747 143.071 68.204C143.071 68.8013 142.968 69.3613 142.763 69.884C142.576 70.4067 142.38 70.9013 142.175 71.368C141.988 71.816 141.895 72.2453 141.895 72.656C141.895 72.992 141.969 73.2253 142.119 73.356C142.268 73.4867 142.445 73.552 142.651 73.552C143.061 73.552 143.537 73.3467 144.079 72.936C144.639 72.5253 145.189 71.984 145.731 71.312C146.291 70.6213 146.767 69.8653 147.159 69.044L147.607 69.52C147.177 70.4533 146.673 71.312 146.095 72.096C145.516 72.88 144.881 73.5053 144.191 73.972C143.5 74.4387 142.753 74.672 141.951 74.672C141.241 74.672 140.7 74.4853 140.327 74.112C139.953 73.7387 139.767 73.272 139.767 72.712C139.767 72.32 139.832 71.8907 139.963 71.424C140.112 70.9387 140.252 70.4533 140.383 69.968C140.513 69.4827 140.579 69.044 140.579 68.652C140.579 68.204 140.476 67.896 140.271 67.728C140.084 67.56 139.851 67.476 139.571 67.476C139.104 67.476 138.684 67.6627 138.311 68.036C137.937 68.3907 137.601 68.8573 137.303 69.436C137.004 70.0147 136.724 70.6307 136.463 71.284C136.201 71.9187 135.94 72.5253 135.679 73.104C135.417 73.6827 135.137 74.1493 134.839 74.504C134.559 74.8773 134.232 75.064 133.859 75.064ZM136.491 64.76C136.976 64.3307 137.443 63.8173 137.891 63.22C138.339 62.6227 138.749 62.0067 139.123 61.372C139.515 60.7187 139.851 60.0933 140.131 59.496C140.429 58.88 140.663 58.3293 140.831 57.844C140.999 57.3587 141.092 56.9853 141.111 56.724C141.111 56.7053 141.111 56.696 141.111 56.696C141.111 56.6773 141.111 56.6587 141.111 56.64C140.999 56.64 140.756 56.8733 140.383 57.34C140.028 57.788 139.608 58.404 139.123 59.188C138.656 59.9533 138.18 60.8213 137.695 61.792C137.228 62.7627 136.827 63.752 136.491 64.76ZM148.535 74.84C147.9 74.84 147.377 74.5507 146.967 73.972C146.575 73.3747 146.379 72.6933 146.379 71.928C146.379 71.4053 146.463 70.7893 146.631 70.08C146.799 69.3707 147.013 68.68 147.275 68.008C147.555 67.336 147.835 66.776 148.115 66.328C148.413 65.88 148.684 65.656 148.927 65.656C149.057 65.656 149.253 65.7307 149.515 65.88C149.795 66.0107 150.037 66.1787 150.243 66.384C150.037 66.6827 149.785 67.14 149.487 67.756C149.207 68.372 148.955 69.0347 148.731 69.744C148.507 70.4533 148.395 71.0973 148.395 71.676C148.395 71.7507 148.404 71.928 148.423 72.208C148.46 72.488 148.535 72.7493 148.647 72.992C148.759 73.2347 148.955 73.356 149.235 73.356C149.552 73.356 149.888 73.188 150.243 72.852C150.616 72.4973 150.989 72.0493 151.363 71.508C151.755 70.948 152.128 70.3507 152.483 69.716C152.856 69.0813 153.183 68.4653 153.463 67.868C153.761 67.2707 154.004 66.7667 154.191 66.356C154.359 66.3747 154.573 66.4213 154.835 66.496C155.115 66.5707 155.357 66.6733 155.563 66.804C155.768 66.916 155.871 67.084 155.871 67.308C155.871 67.364 155.777 67.5973 155.591 68.008C155.423 68.4 155.217 68.876 154.975 69.436C154.751 69.996 154.545 70.5747 154.359 71.172C154.191 71.7507 154.107 72.264 154.107 72.712C154.107 72.9733 154.153 73.2067 154.247 73.412C154.359 73.5987 154.564 73.692 154.863 73.692C155.255 73.692 155.721 73.5147 156.263 73.16C156.804 72.8053 157.364 72.292 157.943 71.62C158.521 70.948 159.035 70.1453 159.483 69.212L159.903 69.548C159.492 70.556 158.96 71.4613 158.307 72.264C157.653 73.0667 156.953 73.692 156.207 74.14C155.46 74.6067 154.732 74.84 154.023 74.84C153.481 74.84 153.071 74.7093 152.791 74.448C152.529 74.2053 152.352 73.888 152.259 73.496C152.165 73.0853 152.109 72.6747 152.091 72.264C152.091 72.1707 152.091 72.0773 152.091 71.984C152.091 71.872 152.091 71.7787 152.091 71.704C151.773 72.208 151.428 72.7027 151.055 73.188C150.681 73.6547 150.28 74.0467 149.851 74.364C149.44 74.6813 149.001 74.84 148.535 74.84ZM160.054 75.064C159.643 75.064 159.345 74.7467 159.158 74.112C158.99 73.4773 158.906 72.74 158.906 71.9C158.906 71.0413 159.046 70.0053 159.326 68.792C159.625 67.5787 160.017 66.3 160.502 64.956C161.006 63.612 161.557 62.296 162.154 61.008C162.77 59.72 163.395 58.5533 164.03 57.508C164.683 56.444 165.299 55.5947 165.878 54.96C166.475 54.3253 166.998 54.008 167.446 54.008C167.838 54.008 168.137 54.2227 168.342 54.652C168.547 55.0813 168.65 55.5293 168.65 55.996C168.65 56.5 168.529 57.1253 168.286 57.872C168.062 58.6 167.745 59.384 167.334 60.224C166.923 61.064 166.438 61.8947 165.878 62.716C165.337 63.5187 164.739 64.256 164.086 64.928C163.451 65.6 162.789 66.1413 162.098 66.552C161.855 67.1867 161.659 67.784 161.51 68.344C161.379 68.8853 161.286 69.3987 161.23 69.884C161.174 70.3693 161.146 70.8453 161.146 71.312C161.146 71.4053 161.146 71.508 161.146 71.62C161.165 71.7133 161.174 71.8067 161.174 71.9C161.249 71.788 161.37 71.4987 161.538 71.032C161.706 70.5653 161.93 70.024 162.21 69.408C162.509 68.7733 162.873 68.1573 163.302 67.56C163.731 66.944 164.235 66.44 164.814 66.048C165.393 65.6373 166.055 65.432 166.802 65.432C167.437 65.432 167.931 65.5813 168.286 65.88C168.641 66.16 168.893 66.5147 169.042 66.944C169.191 67.3547 169.266 67.7747 169.266 68.204C169.266 68.8013 169.163 69.3613 168.958 69.884C168.771 70.4067 168.575 70.9013 168.37 71.368C168.183 71.816 168.09 72.2453 168.09 72.656C168.09 72.992 168.165 73.2253 168.314 73.356C168.463 73.4867 168.641 73.552 168.846 73.552C169.257 73.552 169.733 73.3467 170.274 72.936C170.834 72.5253 171.385 71.984 171.926 71.312C172.486 70.6213 172.962 69.8653 173.354 69.044L173.802 69.52C173.373 70.4533 172.869 71.312 172.29 72.096C171.711 72.88 171.077 73.5053 170.386 73.972C169.695 74.4387 168.949 74.672 168.146 74.672C167.437 74.672 166.895 74.4853 166.522 74.112C166.149 73.7387 165.962 73.272 165.962 72.712C165.962 72.32 166.027 71.8907 166.158 71.424C166.307 70.9387 166.447 70.4533 166.578 69.968C166.709 69.4827 166.774 69.044 166.774 68.652C166.774 68.204 166.671 67.896 166.466 67.728C166.279 67.56 166.046 67.476 165.766 67.476C165.299 67.476 164.879 67.6627 164.506 68.036C164.133 68.3907 163.797 68.8573 163.498 69.436C163.199 70.0147 162.919 70.6307 162.658 71.284C162.397 71.9187 162.135 72.5253 161.874 73.104C161.613 73.6827 161.333 74.1493 161.034 74.504C160.754 74.8773 160.427 75.064 160.054 75.064ZM162.686 64.76C163.171 64.3307 163.638 63.8173 164.086 63.22C164.534 62.6227 164.945 62.0067 165.318 61.372C165.71 60.7187 166.046 60.0933 166.326 59.496C166.625 58.88 166.858 58.3293 167.026 57.844C167.194 57.3587 167.287 56.9853 167.306 56.724C167.306 56.7053 167.306 56.696 167.306 56.696C167.306 56.6773 167.306 56.6587 167.306 56.64C167.194 56.64 166.951 56.8733 166.578 57.34C166.223 57.788 165.803 58.404 165.318 59.188C164.851 59.9533 164.375 60.8213 163.89 61.792C163.423 62.7627 163.022 63.752 162.686 64.76ZM175.85 75.232C174.655 75.232 173.731 74.9053 173.078 74.252C172.443 73.6173 172.126 72.8147 172.126 71.844C172.126 71.0227 172.331 70.1547 172.742 69.24C173.171 68.3067 173.741 67.4387 174.45 66.636C175.159 65.8147 175.943 65.152 176.802 64.648C177.661 64.144 178.519 63.892 179.378 63.892C179.863 63.892 180.321 64.0227 180.75 64.284C181.198 64.5267 181.422 65.0213 181.422 65.768C181.422 66.4773 181.217 67.14 180.806 67.756C180.395 68.372 179.845 68.9227 179.154 69.408C178.463 69.8933 177.698 70.2947 176.858 70.612C176.037 70.9107 175.206 71.1067 174.366 71.2C174.347 71.2747 174.329 71.3587 174.31 71.452C174.31 71.5267 174.31 71.6573 174.31 71.844C174.31 71.9373 174.319 72.1053 174.338 72.348C174.375 72.572 174.459 72.8147 174.59 73.076C174.721 73.3373 174.935 73.5613 175.234 73.748C175.533 73.9347 175.943 74.028 176.466 74.028C177.25 74.028 178.034 73.8133 178.818 73.384C179.621 72.936 180.367 72.348 181.058 71.62C181.767 70.892 182.355 70.08 182.822 69.184L183.382 69.632C182.878 70.752 182.225 71.732 181.422 72.572C180.638 73.412 179.761 74.0653 178.79 74.532C177.838 74.9987 176.858 75.232 175.85 75.232ZM174.674 70.164C175.159 70.108 175.701 69.94 176.298 69.66C176.895 69.38 177.465 69.0253 178.006 68.596C178.566 68.1667 179.023 67.7 179.378 67.196C179.733 66.6733 179.91 66.1507 179.91 65.628C179.91 65.4227 179.873 65.2827 179.798 65.208C179.723 65.1333 179.602 65.096 179.434 65.096C179.005 65.096 178.557 65.2547 178.09 65.572C177.623 65.8707 177.166 66.272 176.718 66.776C176.27 67.2613 175.869 67.8027 175.514 68.4C175.159 68.9973 174.879 69.5853 174.674 70.164Z" fill="#A8A29E"/>
<defs>
<clipPath id="clip0_13_91">
<rect width="107.36" height="96" fill="white"/>
</clipPath>
</defs>
</svg>
