<svg width="147" height="148" viewBox="0 0 147 148" fill="none" xmlns="http://www.w3.org/2000/svg">
<g clip-path="url(#clip0_8_198)">
<path d="M140.489 102.246L18.3151 121.831C17.1524 122.018 16.3597 123.11 16.5464 124.275C18.5945 137.051 30.6562 145.78 43.4318 143.732L123.477 130.9C136.252 128.852 144.981 116.79 142.933 104.014C142.746 102.849 141.654 102.059 140.489 102.246ZM122.801 126.687L42.7564 139.519C33.0141 141.08 23.7814 134.986 21.2128 125.688L138.939 106.815C139.406 116.45 132.543 125.125 122.801 126.687Z" fill="#FECACA" fill-opacity="0.25"/>
<path d="M74.3389 80.4415C74.3283 80.4432 74.3199 80.4445 74.3115 80.4459C66.01 81.7767 58.527 86.1113 53.2455 92.6533L56.5636 95.3321C61.1844 89.6133 67.7261 85.8228 74.9891 84.6585C74.9955 84.6574 75.0059 84.6558 75.0123 84.6547C86.6863 82.7833 97.6438 87.2793 102.928 96.1051L106.591 93.9146C100.404 83.5808 87.742 78.2928 74.3389 80.4415Z" fill="#FECACA" fill-opacity="0.25"/>
<path d="M92.719 92.0875C80.5493 84.9359 64.8308 89.0179 57.6765 101.184L61.3544 103.345C67.3151 93.2065 80.4153 89.8014 90.5536 95.7641C92.1999 96.734 93.7076 97.9182 95.0345 99.2804L98.0969 96.3069C96.5038 94.672 94.6946 93.2529 92.719 92.0875Z" fill="#FECACA" fill-opacity="0.25"/>
<path d="M89.6039 100.218C81.9213 94.7757 71.2515 96.6026 65.8102 104.279L69.293 106.745C73.3739 100.988 81.38 99.6199 87.1367 103.697C89.9272 105.672 91.8365 108.74 92.3781 112.119L96.5911 111.444C95.8691 106.94 93.3225 102.848 89.6039 100.218Z" fill="#FECACA" fill-opacity="0.25"/>
<path d="M98.9509 85.1382C98.9193 85.1432 98.8899 85.1479 98.8583 85.153L96.752 85.4907L97.4273 89.7036L99.5421 89.3646C111.508 87.494 123.201 95.0999 126.118 106.889L130.258 105.867C126.821 91.9617 113.077 82.8736 98.9509 85.1382Z" fill="#FECACA" fill-opacity="0.25"/>
<path d="M113.545 96.3996C109.229 93.6303 104.089 92.7019 99.0819 93.7986C94.0713 94.8892 89.7871 97.8684 87.0153 102.182L90.6044 104.489C92.7607 101.134 96.0922 98.8151 99.9899 97.9654C103.911 97.1272 107.881 97.8347 111.24 99.9884C114.268 101.934 116.492 104.907 117.505 108.363L121.601 107.162C120.299 102.721 117.437 98.8976 113.545 96.3996Z" fill="#FECACA" fill-opacity="0.25"/>
<path d="M104.127 101.913C98.2688 101.37 93.0697 105.703 92.5282 111.559L96.7781 111.949C97.1009 108.436 100.223 105.838 103.737 106.163C106.063 106.375 108.091 107.841 109.021 109.987L112.936 108.287C111.381 104.712 108.008 102.269 104.127 101.913Z" fill="#FECACA" fill-opacity="0.25"/>
<path d="M54.6747 92.2836C47.289 92.8584 40.5677 96.2694 35.7506 101.896C30.9316 107.524 28.5935 114.691 29.1657 122.075L33.4192 121.748C32.9335 115.497 34.9128 109.433 38.9897 104.674C43.0682 99.913 48.7535 97.0204 55.005 96.541C58.4726 96.2702 62.0217 96.7925 65.2691 98.0458L66.8064 94.0638C62.9671 92.5813 58.772 91.9661 54.6747 92.2836Z" fill="#FECACA" fill-opacity="0.25"/>
<path d="M56.202 100.733C45.6353 101.113 37.3259 110.038 37.7129 120.618L41.9766 120.462C41.675 112.233 48.1282 105.316 56.3561 104.995C63.215 104.746 69.3375 109.177 71.2437 115.77L75.3468 114.585C72.8939 106.107 65.0214 100.41 56.202 100.733Z" fill="#FECACA" fill-opacity="0.25"/>
<path d="M57.9389 109.371C55.1052 109.095 52.3291 109.944 50.1296 111.751C47.9288 113.562 46.5654 116.122 46.2917 118.958L50.5386 119.37C50.7044 117.669 51.523 116.131 52.8423 115.047C54.1612 113.961 55.8277 113.454 57.5287 113.62C59.8288 113.843 61.8374 115.295 62.7687 117.412L66.6715 115.691C65.1188 112.163 61.7728 109.742 57.9389 109.371Z" fill="#FECACA" fill-opacity="0.25"/>
<path d="M78.3888 105.719C73.7419 106.464 70.5689 110.849 71.3138 115.495L75.5268 114.82C75.1544 112.497 76.7408 110.304 79.0644 109.932C81.3877 109.559 83.5802 111.146 83.9527 113.469L88.1657 112.794C87.4203 108.147 83.0357 104.974 78.3888 105.719Z" fill="#FECACA" fill-opacity="0.25"/>
<path d="M39.2666 23.4072L22.415 26.1087L23.0904 30.3217L39.942 27.6202L39.2666 23.4072Z" fill="#FECACA" fill-opacity="0.25"/>
<path d="M40.6174 31.8332L27.9788 33.8593L28.6541 38.0722L41.2928 36.0461L40.6174 31.8332Z" fill="#FECACA" fill-opacity="0.25"/>
<path d="M23.6875 63.7235C20.8291 60.1782 20.0521 55.3314 21.6591 51.07C23.7967 45.4015 22.7624 38.9496 18.96 34.2333C16.1015 30.688 15.3245 25.8412 16.9315 21.5798C17.1996 20.8671 17.0693 20.0669 16.5877 19.4765C16.1068 18.8882 15.3475 18.5995 14.5976 18.7197L8.42566 19.7091L9.10103 23.9221L12.0501 23.4493C11.3099 28.1852 12.5749 33.1115 15.6382 36.9093C18.4966 40.4545 19.2736 45.3014 17.6666 49.5627C15.529 55.2313 16.5632 61.6832 20.3657 66.3995C23.2242 69.9448 24.0012 74.7916 22.3942 79.053C20.2568 84.7235 21.2908 91.1734 24.9799 95.735C25.8499 97.0387 26.6295 98.4111 27.2965 99.8079L31.1459 97.9702C30.391 96.3887 29.5102 94.8424 28.4151 93.2139C25.557 89.6707 24.7793 84.8196 26.3866 80.5605C28.5243 74.8917 27.49 68.4396 23.6875 63.7235Z" fill="#FECACA" fill-opacity="0.25"/>
<path d="M128.844 16.1555C127.683 10.0197 121.757 6.01776 115.607 7.12901L54.5165 18.7739L50.789 16.0767C48.4822 14.409 45.6635 13.7395 42.8556 14.1896C42.8514 14.1903 42.8472 14.191 42.845 14.1914L23.3183 17.3217C22.5622 17.4429 21.9297 17.959 21.6597 18.6742C19.5221 24.3428 20.5563 30.7947 24.3588 35.511C27.2173 39.0562 27.9943 43.9034 26.3873 48.1645C24.2496 53.833 25.2839 60.2849 29.0864 65.0012C31.9448 68.5465 32.7218 73.3933 31.1148 77.6547C28.9775 83.3252 30.0114 89.7751 33.8139 94.4914C34.1835 94.9507 34.5204 95.4348 34.8242 95.9413L38.4825 93.7473C38.0807 93.075 37.6265 92.4241 37.1358 91.8157C34.2776 88.2724 33.4999 83.4213 35.1073 79.1622C37.245 73.4936 36.2107 67.0418 32.4082 62.3254C29.5497 58.7802 28.7728 53.9333 30.3797 49.672C30.7948 48.5684 31.0912 47.4385 31.2687 46.2952L47.5703 43.6819C47.5745 43.6812 47.5767 43.6809 47.5809 43.6802C50.3908 43.2298 52.859 41.7107 54.5289 39.4055L57.205 35.7076L118.846 29.5076C119.067 29.4851 119.372 29.4319 119.502 29.422C125.666 28.4339 129.879 22.6163 128.895 16.4501L128.844 16.1555ZM118.825 25.209C118.657 25.1992 118.559 25.2474 118.423 25.2626L55.8251 31.56C55.2177 31.612 54.6671 31.9378 54.3097 32.4316L51.0729 36.9043C50.0714 38.2855 48.5927 39.1968 46.9033 39.4676C46.9011 39.468 46.8991 39.4683 46.8969 39.4686L31.3936 41.954C31.0717 38.6652 29.811 35.4776 27.6801 32.8333C25.0773 29.6036 24.2002 25.2913 25.2805 21.3283L43.5223 18.404C43.5245 18.4036 43.5265 18.4033 43.5287 18.403C45.214 18.1328 46.9053 18.5357 48.2887 19.5368L52.7615 22.7736C53.2355 23.1167 53.8472 23.265 54.4105 23.1402L116.402 11.3205C120.317 10.5827 123.926 13.1239 124.682 17.123C125.294 20.9678 122.667 24.5931 118.825 25.209Z" fill="#FECACA" fill-opacity="0.25"/>
<path d="M40.8319 60.9751C37.9734 57.4299 37.1964 52.583 38.8015 48.3242C39.409 46.7231 39.7712 45.0467 39.8799 43.3397L35.6215 43.0696C35.5395 44.351 35.2682 45.6108 34.8113 46.8163C32.6736 52.4849 33.7079 58.9368 37.5104 63.6531C40.3688 67.1983 41.1462 72.0474 39.5373 76.3111C37.5624 81.5796 38.2901 87.4932 41.4826 92.1258L44.9948 89.7069C42.5908 86.2204 42.0462 81.7728 43.5308 77.8121C45.6686 72.1433 44.6343 65.6914 40.8319 60.9751Z" fill="#FECACA" fill-opacity="0.25"/>
<path d="M13.9893 27.4594L9.77637 28.1348L10.4517 32.3477L14.6647 31.6723L13.9893 27.4594Z" fill="#FECACA" fill-opacity="0.25"/>
<path d="M17.4464 35.5476L11.1271 36.5607L11.8025 40.7736L18.1218 39.7606L17.4464 35.5476Z" fill="#FECACA" fill-opacity="0.25"/>
<path d="M20.9036 43.6357L12.4779 44.9864L13.1533 49.1993L21.579 47.8486L20.9036 43.6357Z" fill="#FECACA" fill-opacity="0.25"/>
</g>
<defs>
<clipPath id="clip0_8_198">
<rect width="128" height="128" fill="white" transform="translate(0 21.0598) rotate(-9.10754)"/>
</clipPath>
</defs>
</svg>
