<svg width="56" height="56" viewBox="0 0 56 56" fill="none" xmlns="http://www.w3.org/2000/svg">
<path d="M28 0C12.5384 0 0 12.5384 0 28C0 43.4616 12.5384 56 28 56C43.4616 56 56 43.4616 56 28C56 12.5384 43.4616 0 28 0ZM42.047 21.4236V25.2149C40.2593 25.2155 38.5223 24.8652 36.8841 24.1741C35.8307 23.7293 34.8493 23.1563 33.9516 22.4639L33.9785 34.1334C33.9673 36.7612 32.9277 39.2301 31.0461 41.0898C29.5148 42.6035 27.5745 43.5661 25.4715 43.8778C24.9773 43.9509 24.4744 43.9884 23.9658 43.9884C21.7145 43.9884 19.5772 43.2591 17.8289 41.9136C17.4999 41.6603 17.1852 41.3856 16.8856 41.0898C14.8465 39.0743 13.7949 36.3428 13.972 33.4692C14.1071 31.2818 14.9828 29.1957 16.4428 27.5606C18.3743 25.397 21.0766 24.196 23.9658 24.196C24.4744 24.196 24.9773 24.2342 25.4715 24.3074V25.7091V29.6086C25.0029 29.454 24.5025 29.369 23.9815 29.369C21.3418 29.369 19.2062 31.5226 19.2457 34.1643C19.2708 35.8544 20.194 37.3319 21.5557 38.1463C22.1957 38.5291 22.9319 38.7662 23.7175 38.8093C24.3331 38.8431 24.9242 38.7574 25.4715 38.5767C27.3574 37.9537 28.7179 36.1822 28.7179 34.093L28.7242 26.2784V12.0116H33.9453C33.9503 12.5289 34.0028 13.0337 34.1004 13.5228C34.4945 15.5026 35.6104 17.2202 37.1635 18.3912C38.5178 19.4126 40.2042 20.0181 42.0319 20.0181C42.0331 20.0181 42.0482 20.0181 42.0469 20.0169V21.4236H42.047Z" fill="#FCA5A5"/>
</svg>
