<svg width="128" height="128" viewBox="0 0 128 128" fill="none" xmlns="http://www.w3.org/2000/svg">
<g clip-path="url(#clip0_8_187)">
<path d="M122.114 48.094H115.607C112.413 37.6703 106.091 28.3847 97.2199 21.4494L94.9059 24.4094C107.182 34.0067 114.223 48.4369 114.223 64C114.223 91.6931 91.6931 114.223 64 114.223C36.3069 114.223 13.7769 91.6931 13.7769 64C13.7769 36.3069 36.3069 13.7769 64 13.7769C73.6245 13.7769 82.9753 16.5065 91.0416 21.6708L93.0675 18.5064C84.3953 12.9543 74.3439 10.0196 64 10.0196C49.5816 10.0196 36.0256 15.6346 25.8299 25.83C19.5038 32.1563 14.9429 39.777 12.391 48.094H5.8865C2.64066 48.094 0 50.7346 0 53.9804V74.0196C0 77.2654 2.64066 79.9061 5.8865 79.9061H12.391C14.9429 88.2231 19.5038 95.8437 25.8299 102.17C36.0256 112.365 49.5816 117.98 64 117.98C78.4184 117.98 91.9744 112.365 102.17 102.17C108.496 95.8437 113.057 88.2231 115.609 79.9061H122.114C125.359 79.9061 128 77.2654 128 74.0196V53.9804C128 50.7346 125.359 48.094 122.114 48.094ZM11.3867 76.1487H5.8865C4.71245 76.1487 3.75734 75.1934 3.75734 74.0196V53.9804C3.75734 52.8067 4.71245 51.8513 5.8865 51.8513H11.3867C10.485 55.7905 10.0196 59.8594 10.0196 64C10.0196 68.1406 10.485 72.2095 11.3867 76.1487ZM124.243 74.0196C124.243 75.1934 123.287 76.1487 122.114 76.1487H116.613C117.515 72.2095 117.98 68.1406 117.98 64C117.98 59.8554 117.515 55.786 116.615 51.8513H122.114C123.287 51.8513 124.243 52.8067 124.243 53.9804V74.0196Z" fill="#FECACA" fill-opacity="0.25"/>
<path d="M45.9648 89.9257C49.2106 89.9257 51.8513 87.285 51.8513 84.0392C51.8513 81.4503 50.1705 79.248 47.8435 78.4618V73.8943H52.7545L76.8018 49.8474H83.9139V38.0744H64.5275L74.5471 28.0548H57.21L49.9726 35.2924L43.9609 29.2807L29.2807 43.9609L35.2924 49.9726L29.4059 55.8591H41.4294L31.4099 65.8787H43.4331L39.1748 70.137H28.0548V81.91H40.4783C40.2211 82.5708 40.0783 83.2884 40.0783 84.0392C40.0783 87.285 42.7189 89.9257 45.9648 89.9257ZM48.0939 84.0392C48.0939 85.2129 47.1386 86.1683 45.9648 86.1683C44.791 86.1683 43.8356 85.2129 43.8356 84.0392C43.8356 82.8654 44.791 81.91 45.9648 81.91C47.1386 81.91 48.0939 82.8654 48.0939 84.0392ZM67.8826 41.8317H80.1566V46.09H67.8826V41.8317ZM64.7783 49.8474H71.4876L51.1983 70.137H44.4887L64.7783 49.8474ZM34.5941 43.9609L43.9609 34.5941L47.3159 37.9491L37.9491 47.3159L34.5941 43.9609ZM38.4767 52.1018L52.6293 37.9491L58.7663 31.8121H65.4761L45.1865 52.1018H38.4767ZM40.4806 62.1213L60.7702 41.8317H64.1253V45.1865L47.1904 62.1213H40.4806ZM31.8121 78.1527V73.8943H44.0861V78.1527H31.8121Z" fill="#FECACA" fill-opacity="0.25"/>
<path d="M109.965 64C109.965 38.6547 89.3453 18.0352 64 18.0352C38.6547 18.0352 18.0352 38.6547 18.0352 64C18.0352 78.9372 25.336 92.9959 37.5649 101.607L39.7283 98.535C28.4977 90.6265 21.7926 77.7163 21.7926 64C21.7926 40.7268 40.7268 21.7926 64 21.7926C87.2732 21.7926 106.207 40.7268 106.207 64C106.207 87.2732 87.2732 106.207 64 106.207C56.5798 106.207 49.283 104.255 42.8985 100.562L41.0174 103.815C47.9727 107.838 55.92 109.965 64 109.965C89.3453 109.965 109.965 89.3453 109.965 64Z" fill="#FECACA" fill-opacity="0.25"/>
<path d="M78.0274 28.0548H82.0352V31.8121H78.0274V28.0548Z" fill="#FECACA" fill-opacity="0.25"/>
<path d="M74.0196 32.0626H78.0274V35.82H74.0196V32.0626Z" fill="#FECACA" fill-opacity="0.25"/>
<path d="M50.9745 92.1801H54.9826V95.9374H50.9745V92.1801Z" fill="#FECACA" fill-opacity="0.25"/>
<path d="M46.9667 96.1879H50.9746V99.9452H46.9667V96.1879Z" fill="#FECACA" fill-opacity="0.25"/>
<path d="M88.1722 80.0313C88.1722 83.2772 90.8129 85.9178 94.0587 85.9178C97.3046 85.9178 99.9452 83.2772 99.9452 80.0313C99.9452 76.7855 97.3046 74.1448 94.0587 74.1448C90.8129 74.1448 88.1722 76.7855 88.1722 80.0313ZM96.1879 80.0313C96.1879 81.2051 95.2325 82.1605 94.0587 82.1605C92.8849 82.1605 91.9296 81.2051 91.9296 80.0313C91.9296 78.8575 92.8849 77.9022 94.0587 77.9022C95.2325 77.9022 96.1879 78.8575 96.1879 80.0313Z" fill="#FECACA" fill-opacity="0.25"/>
<path d="M97.9413 43.9608C97.9413 40.715 95.3006 38.0743 92.0548 38.0743C88.8089 38.0743 86.1683 40.715 86.1683 43.9608C86.1683 47.2067 88.8089 49.8473 92.0548 49.8473C95.3006 49.8473 97.9413 47.2067 97.9413 43.9608ZM89.9256 43.9608C89.9256 42.787 90.881 41.8317 92.0548 41.8317C93.2286 41.8317 94.1839 42.787 94.1839 43.9608C94.1839 45.1346 93.2286 46.09 92.0548 46.09C90.881 46.09 89.9256 45.1346 89.9256 43.9608Z" fill="#FECACA" fill-opacity="0.25"/>
<path d="M53.4529 79.906H65.4764L55.4568 89.9256H67.4803L63.3472 94.0587L72.0156 102.727L86.6958 88.0469L80.6841 82.0352L100.598 62.1213H88.5745L98.594 52.1017H81.2569L53.4529 79.906ZM81.3824 88.0469L72.0156 97.4137L68.6606 94.0587L72.7937 89.9256L78.0274 84.6919L81.3824 88.0469ZM91.5272 65.8787L78.0274 79.3785L71.2376 86.1683H64.5278L84.8174 65.8787H91.5272ZM89.5233 55.8591L69.2337 76.1487H62.5238L82.8135 55.8591H89.5233Z" fill="#FECACA" fill-opacity="0.25"/>
</g>
<defs>
<clipPath id="clip0_8_187">
<rect width="128" height="128" fill="white"/>
</clipPath>
</defs>
</svg>
