<svg width="236" height="88" viewBox="0 0 236 88" fill="none" xmlns="http://www.w3.org/2000/svg">
<path d="M71.0349 16.2919C58.6311 24.3666 48.0373 34.9266 39.9229 47.3045C39.9229 47.3177 39.9039 47.3264 39.8951 47.3396V47.3601C36.9874 51.7521 34.863 56.615 33.6165 61.7327C33.5491 62.0631 33.3695 62.3601 33.1083 62.5733C32.847 62.7866 32.5201 62.903 32.1829 62.903C31.8459 62.9027 31.5194 62.7861 31.2584 62.5729C30.9975 62.3596 30.8182 62.0628 30.7508 61.7327C29.187 53.921 21.5392 32.5677 7.86144 16.3841C7.80025 16.3068 7.72278 16.2439 7.63455 16.1999C7.54631 16.1559 7.44947 16.1319 7.3509 16.1296C7.12425 16.1461 6.90342 16.2091 6.70211 16.3145C6.5008 16.4199 6.3233 16.5656 6.18062 16.7425L3.17152 19.8525C3.01969 20.0132 2.93234 20.2242 2.92614 20.4451C2.91993 20.6661 2.9953 20.8817 3.13787 21.0506C15.4083 36.5189 27.0146 64.3512 29.01 83.0875C29.0573 83.5672 29.2807 84.0124 29.6371 84.3371C29.9934 84.6619 30.4574 84.8431 30.9395 84.8458C31.3723 84.8495 31.7938 84.7071 32.1357 84.4417C32.4776 84.1762 32.72 83.8032 32.8236 83.3829C35.9585 70.3035 41.4545 53.9795 45.8752 48.0974C46.0115 47.9157 46.1882 47.7682 46.3913 47.6667C46.5944 47.5651 46.8184 47.5122 47.0455 47.5122H47.0704C47.5882 47.5122 60.8359 47.4347 68.118 41.0098C72.2959 37.3249 73.3843 33.3415 75.7892 24.6112C76.272 22.8558 76.803 20.9233 77.4203 18.7744C78.6777 13.6643 81.2166 8.95892 84.7975 5.10254C84.8208 5.08403 84.8379 5.05885 84.8465 5.03035C84.8552 5.00186 84.8549 4.97142 84.8458 4.94309C84.8375 4.91441 84.8211 4.88877 84.7985 4.86928C84.7759 4.8498 84.7481 4.83732 84.7185 4.83337C77.9191 3.28274 60.8783 0.424319 49.686 7.38752C44.2734 10.7521 32.809 20.8209 39.1534 43.1441C47.2642 31.5004 57.5586 21.5423 69.4653 13.8226C69.7927 13.6145 70.1895 13.5449 70.5682 13.6293C70.9469 13.7137 71.2766 13.945 71.4848 14.2725C71.6929 14.5999 71.7625 14.9966 71.6781 15.3754C71.5937 15.7541 71.3624 16.0838 71.0349 16.2919Z" fill="#A8A29E"/>
<path d="M62.048 78.32C59.2533 78.32 57.024 77.6373 55.36 76.272C53.7173 74.8853 52.896 72.6987 52.896 69.712V69.488C52.9387 66.736 53.7813 64.6453 55.424 63.216C57.088 61.7653 59.2853 61.04 62.016 61.04C64.1067 61.04 65.824 61.4453 67.168 62.256C68.512 63.0453 69.504 64.1013 70.144 65.424C70.8053 66.7253 71.136 68.1653 71.136 69.744V70.704C71.136 70.9387 71.0507 71.1413 70.88 71.312C70.7093 71.4827 70.5067 71.568 70.272 71.568H60.736V71.728C60.736 72.368 60.8213 72.8587 60.992 73.2C61.184 73.52 61.5147 73.68 61.984 73.68C62.176 73.68 62.336 73.6267 62.464 73.52C62.592 73.4133 62.7413 73.2747 62.912 73.104C63.104 72.912 63.264 72.7947 63.392 72.752C63.52 72.688 63.712 72.656 63.968 72.656H70.016C70.2293 72.656 70.4 72.72 70.528 72.848C70.6773 72.976 70.7413 73.1467 70.72 73.36C70.6987 73.7653 70.5067 74.256 70.144 74.832C69.8027 75.3867 69.28 75.9307 68.576 76.464C67.872 76.9973 66.976 77.4453 65.888 77.808C64.8 78.1493 63.52 78.32 62.048 78.32ZM57.44 63.6C57.248 63.6 57.1307 63.6533 57.088 63.76C57.0453 63.8453 56.992 63.984 56.928 64.176C56.8853 64.2827 56.8853 64.368 56.928 64.432C56.992 64.496 57.0773 64.56 57.184 64.624C57.2907 64.7307 57.376 64.816 57.44 64.88C57.5253 64.944 57.632 64.9333 57.76 64.848C57.9093 64.7413 58.0053 64.6453 58.048 64.56C58.0907 64.4747 58.08 64.336 58.016 64.144C57.9733 63.952 57.9093 63.8133 57.824 63.728C57.76 63.6427 57.632 63.6 57.44 63.6ZM60.736 67.568H61.696C61.6747 67.5253 61.6533 67.472 61.632 67.408C61.5253 67.024 61.4507 66.6933 61.408 66.416C61.3653 66.1387 61.376 65.8827 61.44 65.648C61.5893 65.5627 61.7813 65.52 62.016 65.52C62.8693 65.52 63.296 66.192 63.296 67.536L61.696 67.568C61.8667 68.1653 61.984 68.6987 62.048 69.168C62.1333 69.6373 62.2933 70.0107 62.528 70.288C62.784 70.544 63.232 70.6827 63.872 70.704C64.6613 70.7253 65.2907 70.672 65.76 70.544C66.2507 70.3947 66.6453 70.128 66.944 69.744C67.2427 69.3387 67.52 68.7627 67.776 68.016C67.9893 67.376 68.0107 66.896 67.84 66.576C67.6693 66.2347 67.36 65.936 66.912 65.68C66.4853 65.424 66.0053 65.0933 65.472 64.688C64.8533 64.2187 64.3413 63.9733 63.936 63.952C63.552 63.9093 63.04 64.1013 62.4 64.528C61.8667 64.912 61.5467 65.2853 61.44 65.648C60.9707 65.904 60.736 66.544 60.736 67.568ZM56.128 65.52C56 65.4773 55.8933 65.4773 55.808 65.52C55.744 65.5627 55.6693 65.6373 55.584 65.744C55.456 65.872 55.3387 65.9787 55.232 66.064C55.1467 66.128 55.1467 66.2453 55.232 66.416C55.3387 66.5867 55.4453 66.6507 55.552 66.608C55.6587 66.544 55.808 66.4907 56 66.448C56.192 66.4053 56.2987 66.2773 56.32 66.064C56.3413 65.936 56.3413 65.8293 56.32 65.744C56.32 65.6587 56.256 65.584 56.128 65.52ZM58.624 65.872C58.368 65.744 58.1653 65.6907 58.016 65.712C57.888 65.7333 57.7387 65.84 57.568 66.032C57.376 66.2453 57.2693 66.4267 57.248 66.576C57.2267 66.704 57.2907 66.8853 57.44 67.12C57.5467 67.3333 57.664 67.4293 57.792 67.408C57.9413 67.3653 58.1333 67.3227 58.368 67.28C58.5813 67.2373 58.752 67.2053 58.88 67.184C59.008 67.1413 59.0827 67.0027 59.104 66.768C59.1253 66.512 59.104 66.3307 59.04 66.224C58.9973 66.096 58.8587 65.9787 58.624 65.872ZM57.248 68.56C57.1413 68.4107 57.0347 68.336 56.928 68.336C56.8213 68.336 56.6827 68.368 56.512 68.432C56.32 68.496 56.192 68.5707 56.128 68.656C56.064 68.72 56.032 68.848 56.032 69.04C56.032 69.2747 56.0427 69.456 56.064 69.584C56.1067 69.712 56.2347 69.808 56.448 69.872C56.6827 69.936 56.8533 69.936 56.96 69.872C57.0667 69.7867 57.1947 69.6373 57.344 69.424C57.472 69.2533 57.5253 69.1147 57.504 69.008C57.4827 68.88 57.3973 68.7307 57.248 68.56ZM58.88 68.88C58.7093 68.8587 58.6027 68.8907 58.56 68.976C58.5173 69.0613 58.4533 69.1893 58.368 69.36C58.304 69.5307 58.2507 69.6693 58.208 69.776C58.1653 69.8613 58.208 69.9573 58.336 70.064C58.4853 70.2133 58.6133 70.288 58.72 70.288C58.8267 70.288 58.976 70.2347 59.168 70.128C59.3387 70.0213 59.4667 69.9253 59.552 69.84C59.6373 69.7547 59.648 69.6053 59.584 69.392C59.5413 69.1787 59.4667 69.0507 59.36 69.008C59.2533 68.944 59.0933 68.9013 58.88 68.88ZM55.968 70.128C55.712 70.064 55.52 70.064 55.392 70.128C55.2853 70.192 55.1573 70.3307 55.008 70.544C54.9013 70.736 54.88 70.8853 54.944 70.992C55.0293 71.0773 55.136 71.2053 55.264 71.376C55.3707 71.5253 55.4667 71.6213 55.552 71.664C55.6373 71.6853 55.7547 71.664 55.904 71.6C56.1813 71.4933 56.32 71.2907 56.32 70.992C56.32 70.7573 56.32 70.576 56.32 70.448C56.32 70.2987 56.2027 70.192 55.968 70.128ZM57.056 72.784C57.056 72.6347 57.056 72.5173 57.056 72.432C57.0773 72.3467 57.024 72.2933 56.896 72.272C56.7467 72.2293 56.64 72.24 56.576 72.304C56.5333 72.3467 56.4693 72.432 56.384 72.56C56.32 72.6453 56.2987 72.72 56.32 72.784C56.3627 72.8267 56.416 72.8907 56.48 72.976C56.5653 73.0827 56.6293 73.1787 56.672 73.264C56.7147 73.328 56.8 73.3387 56.928 73.296C57.056 73.2533 57.1093 73.1893 57.088 73.104C57.0667 73.0187 57.056 72.912 57.056 72.784ZM59.232 72.752C59.04 72.56 58.816 72.528 58.56 72.656C58.3893 72.7627 58.2613 72.848 58.176 72.912C58.112 72.976 58.0907 73.104 58.112 73.296C58.1547 73.488 58.2293 73.5947 58.336 73.616C58.4427 73.6373 58.592 73.6587 58.784 73.68C58.976 73.7013 59.1253 73.7227 59.232 73.744C59.36 73.744 59.4667 73.6587 59.552 73.488C59.6373 73.3173 59.6373 73.1893 59.552 73.104C59.488 72.9973 59.3813 72.88 59.232 72.752ZM65.248 73.616C65.2053 73.5093 65.152 73.4453 65.088 73.424C65.0453 73.4027 64.9707 73.392 64.864 73.392C64.672 73.392 64.5547 73.456 64.512 73.584C64.448 73.7547 64.48 73.8933 64.608 74C64.7147 74.064 64.7893 74.1173 64.832 74.16C64.896 74.2027 64.9813 74.192 65.088 74.128C65.1947 74.0427 65.248 73.968 65.248 73.904C65.2693 73.84 65.2693 73.744 65.248 73.616ZM63.84 75.056C63.8187 74.8 63.7973 74.5973 63.776 74.448C63.776 74.2987 63.648 74.192 63.392 74.128C63.072 74.0427 62.8267 74.0107 62.656 74.032C62.4853 74.032 62.3147 74.1707 62.144 74.448C61.9733 74.704 61.952 74.896 62.08 75.024C62.208 75.152 62.3573 75.3333 62.528 75.568C62.6773 75.76 62.8053 75.8773 62.912 75.92C63.04 75.9627 63.2107 75.9413 63.424 75.856C63.6373 75.7707 63.7653 75.6747 63.808 75.568C63.8507 75.44 63.8613 75.2693 63.84 75.056ZM67.52 74.832C67.4133 74.576 67.3173 74.384 67.232 74.256C67.168 74.1067 66.9867 74.0427 66.688 74.064C66.3467 74.1067 66.0907 74.1707 65.92 74.256C65.7493 74.3413 65.632 74.5547 65.568 74.896C65.504 75.216 65.536 75.44 65.664 75.568C65.8133 75.696 66.0373 75.8453 66.336 76.016C66.6133 76.1867 66.8373 76.304 67.008 76.368C67.2 76.432 67.424 76.3467 67.68 76.112C67.936 75.8987 68 75.7067 67.872 75.536C67.7653 75.3653 67.648 75.1307 67.52 74.832ZM59.968 74.768L59.648 74.576L59.424 74.896L59.648 75.12L59.968 75.152V74.768ZM58.816 75.44C58.6667 75.4187 58.56 75.44 58.496 75.504C58.4533 75.5467 58.4 75.632 58.336 75.76C58.2507 75.888 58.1973 75.9947 58.176 76.08C58.1547 76.1653 58.1973 76.2613 58.304 76.368C58.4533 76.496 58.5707 76.592 58.656 76.656C58.7413 76.6987 58.8693 76.6773 59.04 76.592C59.1893 76.5067 59.2427 76.4107 59.2 76.304C59.1787 76.1973 59.1573 76.0587 59.136 75.888C59.1147 75.76 59.0827 75.664 59.04 75.6C59.0187 75.5147 58.944 75.4613 58.816 75.44ZM82.7535 85.04C80.9402 85.04 79.4255 84.8053 78.2095 84.336C77.0148 83.888 76.0548 83.3333 75.3295 82.672C74.6042 82.032 74.0815 81.392 73.7615 80.752C73.4415 80.1333 73.2708 79.6533 73.2495 79.312C73.2282 79.0773 73.3028 78.8747 73.4735 78.704C73.6655 78.5333 73.8788 78.448 74.1135 78.448H80.3535C80.5882 78.448 80.7695 78.5013 80.8975 78.608C81.0468 78.736 81.1642 78.896 81.2495 79.088C81.3988 79.3653 81.5588 79.568 81.7295 79.696C81.9215 79.824 82.2095 79.888 82.5935 79.888C83.5108 79.888 83.9695 79.2587 83.9695 78V75.888C83.4788 76.3147 82.8815 76.656 82.1775 76.912C81.4735 77.1467 80.6522 77.264 79.7135 77.264C77.7082 77.264 76.1082 76.7307 74.9135 75.664C73.7402 74.576 73.0788 72.6987 72.9295 70.032C72.9082 69.4773 72.9082 68.9333 72.9295 68.4C73.0575 65.8827 73.7188 64.0267 74.9135 62.832C76.1082 61.6373 77.7082 61.04 79.7135 61.04C80.7588 61.04 81.6762 61.2427 82.4655 61.648C83.2762 62.0533 83.9375 62.576 84.4495 63.216V62.224C84.4495 61.9893 84.5348 61.7867 84.7055 61.616C84.8762 61.4453 85.0788 61.36 85.3135 61.36H90.9135C91.1482 61.36 91.3508 61.4453 91.5215 61.616C91.6922 61.7867 91.7775 61.9893 91.7775 62.224L91.8095 77.456C91.8095 79.248 91.4042 80.6987 90.5935 81.808C89.7828 82.9173 88.6948 83.728 87.3295 84.24C85.9642 84.7733 84.4388 85.04 82.7535 85.04ZM78.3695 61.776L78.1135 61.808L78.1455 62.032L78.3055 62.128L78.5295 62L78.3695 61.776ZM82.6255 63.088L82.3375 63.024L82.1455 63.344L82.4015 63.696L82.7215 63.408L82.6255 63.088ZM79.1695 63.664L78.9455 63.792V63.952L79.1055 64.112L79.2975 63.92L79.1695 63.664ZM75.3295 63.664C75.0095 63.6427 74.7855 63.7813 74.6575 64.08C74.5935 64.2293 74.6042 64.336 74.6895 64.4C74.7748 64.4427 74.8815 64.5173 75.0095 64.624C75.1588 64.752 75.3082 64.7627 75.4575 64.656C75.6495 64.5493 75.7242 64.4107 75.6815 64.24C75.6388 64.0693 75.6068 63.9413 75.5855 63.856C75.5855 63.7493 75.5002 63.6853 75.3295 63.664ZM84.4815 64.304C84.3108 64.112 84.1508 64.0053 84.0015 63.984C83.8735 63.9627 83.6922 64.0053 83.4575 64.112C83.2228 64.2187 83.0628 64.336 82.9775 64.464C82.9135 64.5707 82.8922 64.752 82.9135 65.008C82.9348 65.2427 83.0095 65.3707 83.1375 65.392C83.2868 65.4133 83.4682 65.456 83.6815 65.52C83.9375 65.5627 84.1402 65.6267 84.2895 65.712C84.4602 65.776 84.6095 65.6907 84.7375 65.456C84.8868 65.2 84.9295 65.008 84.8655 64.88C84.8015 64.7307 84.6735 64.5387 84.4815 64.304ZM89.1535 64.656C88.9402 64.4853 88.7802 64.3147 88.6735 64.144C88.5882 63.9733 88.4175 63.9627 88.1615 64.112C87.9055 64.2827 87.7562 64.4533 87.7135 64.624C87.6708 64.7947 87.6922 65.0293 87.7775 65.328C87.8415 65.6053 87.9375 65.776 88.0655 65.84C88.2148 65.904 88.4282 65.9467 88.7055 65.968C88.9402 65.9893 89.0895 65.9573 89.1535 65.872C89.2388 65.7653 89.3242 65.6053 89.4095 65.392C89.4948 65.2 89.5055 65.0613 89.4415 64.976C89.3988 64.8907 89.3028 64.784 89.1535 64.656ZM86.2735 64.528C86.1455 64.4213 85.9855 64.4213 85.7935 64.528C85.6655 64.6133 85.6228 64.752 85.6655 64.944C85.7082 65.072 85.8255 65.136 86.0175 65.136C86.1242 65.136 86.2202 65.1467 86.3055 65.168C86.3908 65.1893 86.4548 65.1467 86.4975 65.04C86.5402 64.912 86.5402 64.816 86.4975 64.752C86.4548 64.688 86.3802 64.6133 86.2735 64.528ZM76.8655 64.496C76.7375 64.432 76.6095 64.464 76.4815 64.592C76.3962 64.6773 76.3215 64.752 76.2575 64.816C76.1935 64.8587 76.1935 64.944 76.2575 65.072C76.3215 65.1787 76.3855 65.2107 76.4495 65.168C76.5348 65.1253 76.6308 65.0933 76.7375 65.072C76.8442 65.0507 76.9295 65.04 76.9935 65.04C77.0575 65.04 77.1002 64.9867 77.1215 64.88C77.1428 64.7307 77.0575 64.6027 76.8655 64.496ZM81.6975 64.752L81.3775 64.624L81.1215 64.752L81.1855 65.104L81.4735 65.008L81.6975 64.752ZM78.5615 65.968C78.3268 65.712 78.1242 65.584 77.9535 65.584C77.7828 65.584 77.5375 65.6587 77.2175 65.808C76.9615 65.9147 76.8122 66.0427 76.7695 66.192C76.7268 66.3413 76.7162 66.5547 76.7375 66.832C76.7588 67.1307 76.8015 67.3547 76.8655 67.504C76.9295 67.632 77.1108 67.728 77.4095 67.792C77.6655 67.856 77.8255 67.8133 77.8895 67.664C77.9748 67.5147 78.0815 67.3333 78.2095 67.12C78.3588 66.864 78.4975 66.672 78.6255 66.544C78.7748 66.3947 78.7535 66.2027 78.5615 65.968ZM90.6575 66.384L90.4335 66.224V66.64L90.6255 66.576L90.6575 66.384ZM82.3695 71.696C82.9242 71.696 83.3188 71.5573 83.5535 71.28C83.7882 71.0027 83.9268 70.608 83.9695 70.096C83.9908 69.9253 84.0015 69.6373 84.0015 69.232C84.0015 68.8053 83.9908 68.5173 83.9695 68.368C83.9268 67.856 83.7882 67.4613 83.5535 67.184C83.3188 66.9067 82.9242 66.768 82.3695 66.768C81.7722 66.768 81.3668 66.9387 81.1535 67.28C80.9402 67.6 80.8122 68.048 80.7695 68.624C80.7268 69.0293 80.7268 69.4347 80.7695 69.84C80.8122 70.416 80.9402 70.8747 81.1535 71.216C81.3668 71.536 81.7722 71.696 82.3695 71.696ZM86.2415 67.568C86.2202 67.4187 86.1668 67.344 86.0815 67.344C86.0175 67.3227 85.9108 67.3013 85.7615 67.28C85.5695 67.2587 85.4095 67.2373 85.2815 67.216C85.1748 67.1733 85.0895 67.2373 85.0255 67.408C84.9402 67.5787 84.9402 67.7067 85.0255 67.792C85.1322 67.856 85.2602 67.952 85.4095 68.08C85.5375 68.208 85.6442 68.304 85.7295 68.368C85.8148 68.4107 85.9428 68.3893 86.1135 68.304C86.2628 68.1973 86.3375 68.0907 86.3375 67.984C86.3375 67.8773 86.3055 67.7387 86.2415 67.568ZM80.0655 68.592C79.9802 68.3573 79.8842 68.1973 79.7775 68.112C79.6708 68.0053 79.4788 67.9627 79.2015 67.984C78.9668 68.0053 78.8175 68.08 78.7535 68.208C78.6895 68.3147 78.6255 68.4853 78.5615 68.72C78.4975 68.9333 78.4868 69.0933 78.5295 69.2C78.5722 69.3067 78.6788 69.4133 78.8495 69.52C79.0202 69.6267 79.1588 69.6693 79.2655 69.648C79.3722 69.6267 79.5108 69.552 79.6815 69.424C79.8522 69.2747 79.9802 69.1573 80.0655 69.072C80.1508 68.9653 80.1508 68.8053 80.0655 68.592ZM75.4255 69.488L75.1375 69.744L75.0735 70.16L75.4575 70.064L75.6495 69.808L75.4255 69.488ZM90.4655 71.504C90.4015 71.056 90.2308 70.8107 89.9535 70.768C89.6975 70.7253 89.3455 70.672 88.8975 70.608C88.5562 70.544 88.2895 70.544 88.0975 70.608C87.9268 70.6507 87.7562 70.832 87.5855 71.152C87.3722 71.536 87.2335 71.8453 87.1695 72.08C87.1055 72.3147 87.2228 72.5813 87.5215 72.88C87.8415 73.2213 88.1188 73.3813 88.3535 73.36C88.5882 73.3387 88.9082 73.232 89.3135 73.04C89.7402 72.8267 90.0602 72.6347 90.2735 72.464C90.4868 72.2933 90.5508 71.9733 90.4655 71.504ZM85.7295 71.952C85.6868 71.7173 85.5908 71.6 85.4415 71.6C85.3135 71.6 85.1428 71.5893 84.9295 71.568C84.7162 71.5467 84.5455 71.5253 84.4175 71.504C84.3108 71.4827 84.2042 71.568 84.0975 71.76C83.9908 71.9947 83.9268 72.1867 83.9055 72.336C83.9055 72.464 84.0122 72.624 84.2255 72.816C84.4175 73.008 84.5882 73.1253 84.7375 73.168C84.8868 73.1893 85.0895 73.1253 85.3455 72.976C85.5802 72.848 85.7188 72.7093 85.7615 72.56C85.8042 72.4107 85.7935 72.208 85.7295 71.952ZM77.6015 72.88C77.5588 72.6667 77.5055 72.5067 77.4415 72.4C77.3988 72.2933 77.2708 72.2293 77.0575 72.208C76.8442 72.1867 76.7055 72.24 76.6415 72.368C76.5988 72.4747 76.5348 72.624 76.4495 72.816C76.3855 73.008 76.3322 73.1573 76.2895 73.264C76.2682 73.3707 76.3428 73.488 76.5135 73.616C76.6842 73.7867 76.8335 73.8933 76.9615 73.936C77.0895 73.9573 77.2495 73.904 77.4415 73.776C77.6335 73.648 77.7188 73.52 77.6975 73.392C77.6975 73.264 77.6655 73.0933 77.6015 72.88ZM82.9775 72.944C82.9348 72.8373 82.8815 72.7947 82.8175 72.816C82.7535 72.816 82.6682 72.8267 82.5615 72.848C82.4122 72.8693 82.3268 72.9547 82.3055 73.104C82.2842 73.2107 82.2628 73.296 82.2415 73.36C82.2415 73.424 82.2948 73.4773 82.4015 73.52C82.4868 73.584 82.5508 73.5947 82.5935 73.552C82.6575 73.5093 82.7322 73.4453 82.8175 73.36C82.9028 73.2747 82.9668 73.2107 83.0095 73.168C83.0522 73.104 83.0415 73.0293 82.9775 72.944ZM79.0735 74C78.9455 73.9147 78.8388 73.8933 78.7535 73.936C78.6895 73.9787 78.6042 74.0427 78.4975 74.128C78.3908 74.2347 78.3162 74.32 78.2735 74.384C78.2522 74.448 78.2628 74.544 78.3055 74.672C78.4122 74.9067 78.5828 75.0133 78.8175 74.992C78.9668 74.9707 79.0522 74.928 79.0735 74.864C79.1162 74.8 79.1588 74.704 79.2015 74.576C79.2228 74.4267 79.2335 74.3093 79.2335 74.224C79.2548 74.1387 79.2015 74.064 79.0735 74ZM82.2735 74.128C82.0815 74.064 81.9322 74.1067 81.8255 74.256C81.6762 74.448 81.6655 74.6187 81.7935 74.768C81.8575 74.8747 81.9215 74.9493 81.9855 74.992C82.0495 75.0347 82.1562 75.0347 82.3055 74.992C82.4335 74.9493 82.5082 74.896 82.5295 74.832C82.5508 74.768 82.5615 74.6613 82.5615 74.512C82.5615 74.32 82.4655 74.192 82.2735 74.128ZM85.1215 74.416L84.8015 74.096L84.4175 74.32L84.5455 74.704L84.9295 74.8L85.1215 74.416ZM80.8655 74.384L80.5775 74.48L80.5135 74.8L80.8335 74.832L81.0255 74.64L80.8655 74.384ZM87.4575 75.312C86.9882 75.2907 86.6148 75.3013 86.3375 75.344C86.0815 75.3653 85.8575 75.6 85.6655 76.048C85.4735 76.5387 85.4095 76.9227 85.4735 77.2C85.5588 77.456 85.8042 77.7547 86.2095 78.096C86.5935 78.416 86.9135 78.544 87.1695 78.48C87.4255 78.416 87.7562 78.256 88.1615 78C88.5028 77.7867 88.6628 77.5733 88.6415 77.36C88.6415 77.1253 88.5988 76.816 88.5135 76.432C88.4282 76.0693 88.3215 75.8027 88.1935 75.632C88.0868 75.44 87.8415 75.3333 87.4575 75.312ZM90.8815 78.768C90.7962 78.5547 90.6788 78.4587 90.5295 78.48C90.4015 78.5227 90.2202 78.5547 89.9855 78.576C89.8148 78.5973 89.6762 78.6293 89.5695 78.672C89.4842 78.7147 89.4202 78.832 89.3775 79.024C89.3348 79.2587 89.3242 79.44 89.3455 79.568C89.3668 79.696 89.4735 79.8133 89.6655 79.92C89.9002 80.0267 90.0815 80.0693 90.2095 80.048C90.3375 80.048 90.4975 79.952 90.6895 79.76C90.8602 79.5893 90.9562 79.44 90.9775 79.312C91.0202 79.184 90.9882 79.0027 90.8815 78.768ZM78.6895 79.728L78.4015 79.472L78.0815 79.664L78.2415 79.984H78.5295L78.6895 79.728ZM77.7935 80.944C77.7935 80.7093 77.7295 80.56 77.6015 80.496C77.4735 80.432 77.2922 80.368 77.0575 80.304C76.8868 80.24 76.7482 80.2293 76.6415 80.272C76.5562 80.336 76.4602 80.4533 76.3535 80.624C76.2468 80.752 76.2042 80.8587 76.2255 80.944C76.2468 81.0507 76.3108 81.1787 76.4175 81.328C76.5455 81.4987 76.6415 81.6373 76.7055 81.744C76.7908 81.8507 76.9402 81.872 77.1535 81.808C77.3882 81.7227 77.5482 81.6267 77.6335 81.52C77.7402 81.4133 77.7935 81.2213 77.7935 80.944ZM84.1295 81.296C84.0442 81.2533 83.9695 81.2213 83.9055 81.2C83.8628 81.2 83.8202 81.232 83.7775 81.296C83.6495 81.4453 83.6282 81.584 83.7135 81.712C83.8415 81.9253 83.9802 82.0107 84.1295 81.968C84.2575 81.9253 84.3322 81.872 84.3535 81.808C84.3748 81.744 84.3855 81.6587 84.3855 81.552C84.3855 81.4453 84.3642 81.3813 84.3215 81.36C84.2788 81.3387 84.2148 81.3173 84.1295 81.296ZM86.7215 81.296L86.4015 81.264L86.0815 81.392L86.3375 81.616L86.6255 81.648L86.7215 81.296ZM79.9375 81.712C79.7455 81.648 79.5962 81.616 79.4895 81.616C79.3828 81.6373 79.2655 81.7333 79.1375 81.904C79.0308 82.0747 78.9882 82.2027 79.0095 82.288C79.0308 82.3947 79.1055 82.5333 79.2335 82.704C79.3828 82.896 79.5002 83.0347 79.5855 83.12C79.6708 83.2267 79.8202 83.2373 80.0335 83.152C80.3322 83.0667 80.5562 82.9813 80.7055 82.896C80.8762 82.8107 80.9615 82.608 80.9615 82.288C80.9615 81.9893 80.8548 81.84 80.6415 81.84C80.4495 81.84 80.2148 81.7973 79.9375 81.712ZM83.1055 82.192L82.8815 82L82.6895 82.096V82.288L82.8815 82.384L83.1055 82.192ZM86.6895 82.96L86.2735 83.056L86.3375 83.28H86.5935L86.6895 82.96ZM84.3855 83.696C84.3428 83.5893 84.2788 83.5253 84.1935 83.504C84.1295 83.504 84.0442 83.5147 83.9375 83.536C83.7882 83.5573 83.6708 83.568 83.5855 83.568C83.5215 83.568 83.4682 83.632 83.4255 83.76C83.4042 83.9093 83.4255 84.0053 83.4895 84.048C83.5535 84.0907 83.6495 84.144 83.7775 84.208C83.9482 84.3147 84.1082 84.3147 84.2575 84.208C84.4068 84.0587 84.4495 83.888 84.3855 83.696ZM100.002 78.32C98.786 78.32 97.7087 78.096 96.77 77.648C95.8313 77.2 95.0953 76.592 94.562 75.824C94.05 75.056 93.794 74.192 93.794 73.232C93.794 71.6747 94.4233 70.4587 95.682 69.584C96.962 68.688 98.6687 68.0587 100.802 67.696L104.194 67.12C104.194 66.5653 104.141 66.16 104.034 65.904C103.949 65.648 103.682 65.52 103.234 65.52C102.935 65.52 102.69 65.584 102.498 65.712C102.327 65.8187 102.135 65.9787 101.922 66.192C101.687 66.4267 101.389 66.544 101.026 66.544H95.586C95.3727 66.544 95.1913 66.48 95.042 66.352C94.914 66.224 94.8607 66.0533 94.882 65.84C94.9033 65.4347 95.074 64.9653 95.394 64.432C95.714 63.8773 96.2047 63.344 96.866 62.832C97.5487 62.32 98.4127 61.8933 99.458 61.552C100.525 61.2107 101.805 61.04 103.298 61.04C106.199 61.04 108.354 61.648 109.762 62.864C111.17 64.0587 111.874 65.7547 111.874 67.952V77.136C111.874 77.3707 111.789 77.5733 111.618 77.744C111.447 77.9147 111.245 78 111.01 78H105.41C105.175 78 104.973 77.9147 104.802 77.744C104.631 77.5733 104.546 77.3707 104.546 77.136V76.24C104.077 76.88 103.447 77.392 102.658 77.776C101.89 78.1387 101.005 78.32 100.002 78.32ZM102.626 61.872H102.306L102.146 62.064L102.274 62.352L102.594 62.224L102.626 61.872ZM101.282 62.48C101.09 62.416 100.93 62.3733 100.802 62.352C100.695 62.3093 100.589 62.3627 100.482 62.512C100.354 62.704 100.301 62.8533 100.322 62.96C100.365 63.0667 100.45 63.2053 100.578 63.376C100.685 63.5253 100.781 63.6 100.866 63.6C100.973 63.5787 101.111 63.536 101.282 63.472C101.517 63.408 101.634 63.248 101.634 62.992C101.634 62.7147 101.517 62.544 101.282 62.48ZM106.658 62.736C106.573 62.544 106.413 62.4587 106.178 62.48C105.943 62.5013 105.805 62.6187 105.762 62.832C105.741 62.9813 105.73 63.0987 105.73 63.184C105.73 63.2693 105.794 63.3547 105.922 63.44C106.071 63.504 106.178 63.5253 106.242 63.504C106.327 63.4827 106.434 63.4187 106.562 63.312C106.733 63.1627 106.765 62.9707 106.658 62.736ZM104.738 63.504C104.482 63.504 104.311 63.632 104.226 63.888C104.183 64.016 104.183 64.112 104.226 64.176C104.269 64.2187 104.343 64.2827 104.45 64.368C104.599 64.496 104.759 64.5067 104.93 64.4C105.058 64.3147 105.101 64.1653 105.058 63.952C105.015 63.824 104.983 63.7173 104.962 63.632C104.941 63.5467 104.866 63.504 104.738 63.504ZM97.922 63.632C97.794 63.5467 97.6873 63.5253 97.602 63.568C97.538 63.6107 97.442 63.6853 97.314 63.792C97.2073 63.8987 97.122 63.984 97.058 64.048C97.0153 64.112 97.0153 64.2187 97.058 64.368C97.122 64.5173 97.186 64.624 97.25 64.688C97.3353 64.752 97.4633 64.7733 97.634 64.752C97.8047 64.7307 97.922 64.688 97.986 64.624C98.05 64.56 98.0927 64.4427 98.114 64.272C98.1567 64.1013 98.1673 63.9733 98.146 63.888C98.146 63.8027 98.0713 63.7173 97.922 63.632ZM108.962 64.752L108.674 64.848L108.418 65.04L108.706 65.136L108.994 65.104L108.962 64.752ZM107.618 65.36C107.49 65.2533 107.383 65.1787 107.298 65.136C107.234 65.072 107.127 65.0827 106.978 65.168C106.85 65.2533 106.797 65.3493 106.818 65.456C106.861 65.5413 106.903 65.6587 106.946 65.808C106.989 65.9573 107.021 66.0853 107.042 66.192C107.063 66.2987 107.149 66.352 107.298 66.352C107.49 66.352 107.629 66.3307 107.714 66.288C107.799 66.2453 107.885 66.1387 107.97 65.968C108.013 65.7973 107.991 65.68 107.906 65.616C107.842 65.552 107.746 65.4667 107.618 65.36ZM98.754 65.424L98.402 65.136L98.082 65.392L98.178 65.808L98.53 65.712L98.754 65.424ZM105.698 66.064L105.41 65.68L105.122 66.032L105.154 66.352L105.506 66.448L105.698 66.064ZM110.466 67.152C110.338 67.024 110.231 66.9387 110.146 66.896C110.061 66.8533 109.943 66.8747 109.794 66.96C109.623 67.0453 109.517 67.1413 109.474 67.248C109.453 67.3333 109.453 67.4613 109.474 67.632C109.517 67.8027 109.57 67.9093 109.634 67.952C109.719 67.9733 109.847 67.9947 110.018 68.016C110.167 68.0373 110.274 68.0373 110.338 68.016C110.423 67.9947 110.498 67.9093 110.562 67.76C110.69 67.5253 110.658 67.3227 110.466 67.152ZM107.042 68.24L106.818 68.016L106.53 68.304L106.754 68.656L107.106 68.528L107.042 68.24ZM100.994 68.624C100.845 68.4533 100.653 68.4107 100.418 68.496C100.269 68.5387 100.162 68.592 100.098 68.656C100.055 68.6987 100.034 68.7947 100.034 68.944C100.034 69.0933 100.066 69.1893 100.13 69.232C100.194 69.2747 100.301 69.3173 100.45 69.36C100.599 69.424 100.717 69.4667 100.802 69.488C100.909 69.5093 101.005 69.4453 101.09 69.296C101.197 69.168 101.229 69.0613 101.186 68.976C101.165 68.8907 101.101 68.7733 100.994 68.624ZM105.858 68.656L105.57 68.688L105.41 68.88L105.602 69.136L105.858 68.944V68.656ZM98.626 69.04C98.4553 68.9973 98.3273 69.008 98.242 69.072C98.178 69.1147 98.1033 69.2107 98.018 69.36C97.9113 69.488 97.8367 69.6053 97.794 69.712C97.7727 69.7973 97.8153 69.904 97.922 70.032C98.0287 70.16 98.1247 70.224 98.21 70.224C98.2953 70.2027 98.4233 70.16 98.594 70.096C98.8287 70.0107 98.946 69.8613 98.946 69.648C98.946 69.4773 98.9353 69.3493 98.914 69.264C98.8927 69.1573 98.7967 69.0827 98.626 69.04ZM110.146 70.352C110.018 69.904 109.826 69.648 109.57 69.584C109.335 69.4987 108.983 69.4453 108.514 69.424C108.045 69.4027 107.693 69.4347 107.458 69.52C107.223 69.584 107.031 69.8293 106.882 70.256C106.69 70.768 106.583 71.184 106.562 71.504C106.541 71.8027 106.754 72.112 107.202 72.432C107.607 72.752 107.927 72.816 108.162 72.624C108.397 72.432 108.727 72.1867 109.154 71.888C109.538 71.632 109.826 71.4187 110.018 71.248C110.231 71.0773 110.274 70.7787 110.146 70.352ZM96.354 70.352C96.2047 70.352 96.098 70.3627 96.034 70.384C95.97 70.4053 95.906 70.48 95.842 70.608C95.778 70.7787 95.7247 70.928 95.682 71.056C95.6393 71.1627 95.6927 71.2693 95.842 71.376C96.0127 71.5253 96.1513 71.6107 96.258 71.632C96.386 71.6533 96.546 71.6 96.738 71.472C96.93 71.3653 97.026 71.2587 97.026 71.152C97.026 71.024 96.994 70.8533 96.93 70.64C96.9087 70.4907 96.8447 70.416 96.738 70.416C96.6527 70.3947 96.5247 70.3733 96.354 70.352ZM100.386 70.928C100.173 70.8427 100.002 70.864 99.874 70.992C99.746 71.12 99.7353 71.2907 99.842 71.504C99.9487 71.6747 100.087 71.7493 100.258 71.728C100.407 71.7067 100.514 71.6853 100.578 71.664C100.642 71.6213 100.685 71.5253 100.706 71.376C100.727 71.248 100.706 71.1627 100.642 71.12C100.599 71.056 100.514 70.992 100.386 70.928ZM102.21 73.584C102.829 73.584 103.33 73.3813 103.714 72.976C104.098 72.5707 104.29 71.9413 104.29 71.088L102.402 71.504C101.847 71.632 101.474 71.8027 101.282 72.016C101.09 72.2293 100.994 72.4533 100.994 72.688C100.994 72.9227 101.09 73.136 101.282 73.328C101.495 73.4987 101.805 73.584 102.21 73.584ZM96.418 72.4C96.0553 72.3147 95.778 72.304 95.586 72.368C95.394 72.432 95.202 72.624 95.01 72.944C94.8393 73.2213 94.8393 73.424 95.01 73.552C95.202 73.68 95.4047 73.8613 95.618 74.096C95.7673 74.2667 95.8953 74.384 96.002 74.448C96.13 74.4907 96.3007 74.4693 96.514 74.384C96.834 74.2347 97.09 74.1387 97.282 74.096C97.4953 74.032 97.5913 73.8187 97.57 73.456C97.5273 73.072 97.4207 72.8267 97.25 72.72C97.0793 72.592 96.802 72.4853 96.418 72.4ZM99.81 73.136C99.7033 72.9867 99.5967 72.9333 99.49 72.976C99.362 72.9973 99.266 73.0293 99.202 73.072C99.1593 73.0933 99.138 73.168 99.138 73.296C99.138 73.4027 99.17 73.4667 99.234 73.488C99.3193 73.488 99.4153 73.5093 99.522 73.552C99.65 73.5947 99.746 73.5627 99.81 73.456C99.8953 73.3493 99.8953 73.2427 99.81 73.136ZM107.298 73.264L106.978 73.04L106.754 73.296L106.818 73.584H107.138L107.298 73.264ZM105.794 74.224C105.73 74.096 105.655 74.032 105.57 74.032C105.485 74.032 105.367 74.0427 105.218 74.064C105.026 74.1067 104.909 74.224 104.866 74.416C104.845 74.5867 104.93 74.7253 105.122 74.832C105.25 74.896 105.389 74.864 105.538 74.736C105.645 74.6293 105.73 74.5547 105.794 74.512C105.858 74.448 105.858 74.352 105.794 74.224ZM109.858 74.576C109.837 74.4053 109.73 74.2987 109.538 74.256C109.431 74.2347 109.346 74.224 109.282 74.224C109.218 74.224 109.154 74.2773 109.09 74.384C108.962 74.5973 108.973 74.7787 109.122 74.928C109.207 75.0133 109.282 75.0347 109.346 74.992C109.41 74.9493 109.495 74.9067 109.602 74.864C109.687 74.8213 109.751 74.7893 109.794 74.768C109.837 74.7253 109.858 74.6613 109.858 74.576ZM100.962 75.216C100.877 74.9813 100.77 74.8427 100.642 74.8C100.514 74.736 100.322 74.704 100.066 74.704C99.8527 74.704 99.714 74.7573 99.65 74.864C99.586 74.9707 99.522 75.1307 99.458 75.344C99.394 75.6 99.3407 75.8027 99.298 75.952C99.2553 76.08 99.3407 76.2187 99.554 76.368C99.746 76.496 99.8953 76.5067 100.002 76.4C100.109 76.272 100.258 76.1333 100.45 75.984C100.642 75.8347 100.791 75.728 100.898 75.664C101.026 75.5787 101.047 75.4293 100.962 75.216ZM107.65 74.96C107.522 74.8533 107.405 74.8 107.298 74.8C107.213 74.7787 107.106 74.8213 106.978 74.928C106.743 75.12 106.679 75.3547 106.786 75.632C106.85 75.7813 106.925 75.8667 107.01 75.888C107.095 75.888 107.223 75.888 107.394 75.888C107.607 75.8667 107.746 75.7493 107.81 75.536C107.831 75.3867 107.842 75.2693 107.842 75.184C107.842 75.0987 107.778 75.024 107.65 74.96ZM102.306 76.144L101.954 75.888L101.698 76.112L101.602 76.464L102.018 76.432L102.306 76.144ZM97.89 75.984C97.7193 75.92 97.602 75.9307 97.538 76.016C97.4953 76.1013 97.4207 76.208 97.314 76.336C97.2287 76.4427 97.1647 76.528 97.122 76.592C97.0793 76.656 97.09 76.7413 97.154 76.848C97.2607 77.04 97.442 77.1147 97.698 77.072C97.8687 77.0293 97.9967 76.9973 98.082 76.976C98.1673 76.9333 98.2207 76.8267 98.242 76.656C98.2633 76.464 98.2527 76.3253 98.21 76.24C98.1673 76.1333 98.0607 76.048 97.89 75.984ZM106.882 76.848L106.69 76.528L106.37 76.848L106.562 77.2L106.85 77.04L106.882 76.848ZM109.698 76.784L109.41 76.88L109.25 77.072L109.474 77.232L109.698 77.072V76.784ZM115.46 78C115.226 78 115.023 77.9147 114.852 77.744C114.682 77.5733 114.596 77.3707 114.596 77.136V62.224C114.596 61.9893 114.682 61.7867 114.852 61.616C115.023 61.4453 115.226 61.36 115.46 61.36H121.06C121.295 61.36 121.498 61.4453 121.668 61.616C121.839 61.7867 121.924 61.9893 121.924 62.224V63.28C122.458 62.6613 123.194 62.1387 124.132 61.712C125.071 61.264 126.106 61.04 127.236 61.04C128.324 61.04 129.338 61.296 130.276 61.808C131.215 62.32 131.972 63.1093 132.548 64.176C133.146 65.2427 133.444 66.6187 133.444 68.304V77.136C133.444 77.3707 133.359 77.5733 133.188 77.744C133.018 77.9147 132.815 78 132.58 78H126.468C126.234 78 126.031 77.9147 125.86 77.744C125.69 77.5733 125.604 77.3707 125.604 77.136V68.528C125.604 67.3547 125.071 66.768 124.004 66.768C122.938 66.768 122.404 67.3547 122.404 68.528V77.136C122.404 77.3707 122.319 77.5733 122.148 77.744C121.978 77.9147 121.775 78 121.54 78H115.46ZM117.188 61.936C116.996 61.9147 116.847 61.9253 116.74 61.968C116.655 61.9893 116.57 62.0853 116.484 62.256C116.399 62.4267 116.367 62.5653 116.388 62.672C116.431 62.7573 116.527 62.864 116.676 62.992C116.804 63.1413 116.911 63.2373 116.996 63.28C117.103 63.3227 117.242 63.3013 117.412 63.216C117.604 63.1093 117.722 63.0133 117.764 62.928C117.807 62.8213 117.818 62.672 117.796 62.48C117.754 62.2667 117.69 62.1387 117.604 62.096C117.519 62.032 117.38 61.9787 117.188 61.936ZM118.948 62.768L118.628 62.608L118.372 62.768L118.34 63.184H118.788L118.948 62.768ZM120.132 64.592L119.876 64.4L119.588 64.56L119.716 64.848L120.068 64.944L120.132 64.592ZM121.604 64.816L121.252 64.592L121.028 64.944L121.188 65.232H121.572L121.604 64.816ZM117.508 64.816C117.444 64.7307 117.38 64.688 117.316 64.688C117.274 64.6667 117.188 64.6667 117.06 64.688C116.868 64.7307 116.762 64.816 116.74 64.944C116.719 65.1147 116.794 65.2427 116.964 65.328C117.092 65.392 117.22 65.36 117.348 65.232C117.434 65.1467 117.487 65.0827 117.508 65.04C117.551 64.9973 117.551 64.9227 117.508 64.816ZM125.604 64.752C125.455 64.688 125.327 64.656 125.22 64.656C125.135 64.656 125.05 64.72 124.964 64.848C124.858 65.0187 124.794 65.1573 124.772 65.264C124.751 65.3493 124.804 65.4773 124.932 65.648C125.039 65.776 125.135 65.8293 125.22 65.808C125.327 65.7653 125.466 65.712 125.636 65.648C125.871 65.5627 125.988 65.4027 125.988 65.168C125.988 64.9547 125.86 64.816 125.604 64.752ZM123.076 64.912C122.884 64.848 122.735 64.816 122.628 64.816C122.522 64.7947 122.404 64.8693 122.276 65.04C122.148 65.1893 122.106 65.3173 122.148 65.424C122.191 65.5093 122.266 65.6373 122.372 65.808C122.458 65.9573 122.543 66.0533 122.628 66.096C122.714 66.1173 122.842 66.1067 123.012 66.064C123.183 66.0213 123.3 65.968 123.364 65.904C123.45 65.84 123.492 65.712 123.492 65.52C123.492 65.328 123.46 65.2 123.396 65.136C123.354 65.0507 123.247 64.976 123.076 64.912ZM129.86 65.68C129.647 65.5093 129.476 65.3813 129.348 65.296C129.22 65.2107 129.039 65.232 128.804 65.36C128.548 65.5093 128.431 65.6587 128.452 65.808C128.474 65.9573 128.516 66.1707 128.58 66.448C128.623 66.7253 128.666 66.9493 128.708 67.12C128.751 67.2907 128.911 67.3973 129.188 67.44C129.487 67.4613 129.679 67.408 129.764 67.28C129.871 67.1307 129.988 66.9173 130.116 66.64C130.202 66.4053 130.223 66.2347 130.18 66.128C130.138 66 130.031 65.8507 129.86 65.68ZM120.676 65.968C120.57 65.7973 120.474 65.6587 120.388 65.552C120.324 65.424 120.186 65.392 119.972 65.456C119.759 65.4987 119.642 65.584 119.62 65.712C119.599 65.84 119.578 66.0213 119.556 66.256C119.535 66.5547 119.674 66.768 119.972 66.896C120.122 66.9387 120.228 66.928 120.292 66.864C120.356 66.8 120.442 66.704 120.548 66.576C120.634 66.4693 120.698 66.384 120.74 66.32C120.783 66.2347 120.762 66.1173 120.676 65.968ZM117.22 66.576C116.964 66.512 116.772 66.5867 116.644 66.8C116.538 66.9707 116.463 67.1093 116.42 67.216C116.378 67.3013 116.41 67.4187 116.516 67.568C116.644 67.7173 116.762 67.7707 116.868 67.728C116.975 67.6853 117.114 67.632 117.284 67.568C117.412 67.504 117.487 67.44 117.508 67.376C117.53 67.312 117.54 67.2053 117.54 67.056C117.54 66.9067 117.519 66.8 117.476 66.736C117.434 66.672 117.348 66.6187 117.22 66.576ZM132.388 68.016L132.196 67.92L131.908 68.048L132.068 68.336H132.388V68.016ZM115.844 68.4L115.588 68.176L115.364 68.432L115.492 68.656L115.78 68.72L115.844 68.4ZM120.964 68.944C120.922 68.7093 120.794 68.5707 120.58 68.528C120.346 68.4853 120.175 68.5707 120.068 68.784C119.962 68.9973 119.983 69.1787 120.132 69.328C120.239 69.4347 120.324 69.488 120.388 69.488C120.452 69.4667 120.548 69.4347 120.676 69.392C120.783 69.328 120.858 69.2747 120.9 69.232C120.964 69.168 120.986 69.072 120.964 68.944ZM119.204 69.872C118.991 69.5733 118.799 69.3813 118.628 69.296C118.458 69.2107 118.191 69.2213 117.828 69.328C117.487 69.4133 117.306 69.552 117.284 69.744C117.263 69.936 117.242 70.2027 117.22 70.544C117.199 70.8853 117.199 71.152 117.22 71.344C117.242 71.536 117.412 71.696 117.732 71.824C118.031 71.9307 118.234 71.8987 118.34 71.728C118.468 71.5573 118.628 71.344 118.82 71.088C119.034 70.832 119.194 70.64 119.3 70.512C119.428 70.3627 119.396 70.1493 119.204 69.872ZM129.86 69.904C129.476 69.6053 129.156 69.4133 128.9 69.328C128.644 69.2427 128.324 69.3493 127.94 69.648C127.471 69.9893 127.13 70.288 126.916 70.544C126.724 70.8 126.714 71.2053 126.884 71.76C127.076 72.336 127.322 72.688 127.62 72.816C127.919 72.944 128.378 73.008 128.996 73.008C129.508 73.008 129.839 72.8907 129.988 72.656C130.138 72.4213 130.298 72.0587 130.468 71.568C130.596 71.1413 130.618 70.8213 130.532 70.608C130.447 70.3947 130.223 70.16 129.86 69.904ZM120.9 71.984C120.751 71.9627 120.644 72.016 120.58 72.144C120.516 72.2507 120.452 72.336 120.388 72.4C120.346 72.464 120.367 72.5387 120.452 72.624C120.623 72.7947 120.826 72.816 121.06 72.688C121.167 72.6453 121.22 72.592 121.22 72.528C121.22 72.4427 121.21 72.336 121.188 72.208C121.167 72.1013 121.071 72.0267 120.9 71.984ZM132.836 73.072L132.42 72.976L132.26 73.296L132.356 73.584L132.644 73.424L132.836 73.072ZM120.964 73.552L120.58 73.456V73.84L120.804 74.032L121.06 73.84L120.964 73.552ZM117.38 73.84L117.092 73.68L116.932 73.968L117.124 74.16H117.476L117.38 73.84ZM129.38 74.48L129.188 74.224L128.932 74.48L129.092 74.704L129.284 74.672L129.38 74.48ZM117.892 75.152C117.743 75.024 117.615 74.9387 117.508 74.896C117.423 74.8533 117.295 74.8747 117.124 74.96C116.954 75.0667 116.868 75.1733 116.868 75.28C116.868 75.3867 116.89 75.536 116.932 75.728C116.996 75.92 117.05 76.0693 117.092 76.176C117.135 76.2613 117.252 76.3147 117.444 76.336C117.658 76.3573 117.807 76.336 117.892 76.272C117.999 76.208 118.095 76.08 118.18 75.888C118.266 75.7173 118.276 75.5893 118.212 75.504C118.148 75.3973 118.042 75.28 117.892 75.152ZM121.156 75.504C120.943 75.312 120.719 75.28 120.484 75.408C120.292 75.536 120.132 75.632 120.004 75.696C119.898 75.76 119.876 75.8987 119.94 76.112C119.983 76.368 120.047 76.56 120.132 76.688C120.218 76.7947 120.399 76.8587 120.676 76.88C120.911 76.9013 121.06 76.848 121.124 76.72C121.188 76.592 121.263 76.4107 121.348 76.176C121.434 76.0053 121.455 75.8773 121.412 75.792C121.37 75.7067 121.284 75.6107 121.156 75.504ZM128.324 75.792C128.132 75.7067 127.983 75.7387 127.876 75.888C127.77 76.016 127.78 76.1653 127.908 76.336C128.036 76.528 128.175 76.592 128.324 76.528C128.474 76.4853 128.548 76.3573 128.548 76.144C128.548 75.952 128.474 75.8347 128.324 75.792ZM132.484 76.016C132.356 75.888 132.239 75.8453 132.132 75.888C132.026 75.952 131.94 76.0053 131.876 76.048C131.812 76.0907 131.791 76.176 131.812 76.304C131.834 76.4107 131.876 76.4747 131.94 76.496C132.026 76.5173 132.122 76.5387 132.228 76.56C132.442 76.5813 132.591 76.528 132.676 76.4C132.719 76.2933 132.719 76.2187 132.676 76.176C132.634 76.1333 132.57 76.08 132.484 76.016ZM116.324 76.272L115.908 76.24L115.62 76.496L115.812 76.912L116.26 76.72L116.324 76.272ZM137.183 59.6C136.948 59.6 136.745 59.5147 136.575 59.344C136.404 59.1733 136.319 58.9707 136.319 58.736V54.864C136.319 54.6293 136.404 54.4267 136.575 54.256C136.745 54.0853 136.948 54 137.183 54H142.591C142.825 54 143.028 54.0853 143.199 54.256C143.369 54.4267 143.455 54.6293 143.455 54.864V58.736C143.455 58.9707 143.369 59.1733 143.199 59.344C143.028 59.5147 142.825 59.6 142.591 59.6H137.183ZM138.783 55.952L138.527 56.112L138.591 56.464L139.007 56.528L139.135 56.112L138.783 55.952ZM139.999 56.784L139.775 56.688L139.455 56.816L139.647 57.168L139.935 57.008L139.999 56.784ZM138.015 57.2L137.631 57.296V57.584L137.855 57.776L138.143 57.584L138.015 57.2ZM141.375 57.36C141.247 57.36 141.151 57.36 141.087 57.36C141.023 57.36 140.969 57.4133 140.927 57.52C140.884 57.6267 140.884 57.712 140.927 57.776C140.969 57.8187 141.033 57.872 141.119 57.936C141.204 58.0213 141.279 58.096 141.343 58.16C141.407 58.2027 141.492 58.192 141.599 58.128C141.791 58 141.865 57.8187 141.823 57.584C141.78 57.456 141.727 57.392 141.663 57.392C141.599 57.392 141.503 57.3813 141.375 57.36ZM137.023 78C136.788 78 136.585 77.9147 136.415 77.744C136.244 77.5733 136.159 77.3707 136.159 77.136V62.224C136.159 61.9893 136.244 61.7867 136.415 61.616C136.585 61.4453 136.788 61.36 137.023 61.36H142.751C142.985 61.36 143.188 61.4453 143.359 61.616C143.529 61.7867 143.615 61.9893 143.615 62.224V77.136C143.615 77.3707 143.529 77.5733 143.359 77.744C143.188 77.9147 142.985 78 142.751 78H137.023ZM139.487 63.12L139.167 63.056L139.039 63.408L139.359 63.696L139.711 63.44L139.487 63.12ZM142.431 63.888C142.388 63.6107 142.249 63.4507 142.015 63.408C141.887 63.3867 141.801 63.408 141.759 63.472C141.716 63.536 141.663 63.632 141.599 63.76C141.492 63.952 141.492 64.112 141.599 64.24C141.769 64.4107 141.94 64.4533 142.111 64.368C142.239 64.304 142.324 64.2507 142.367 64.208C142.431 64.144 142.452 64.0373 142.431 63.888ZM138.239 64.176L138.015 64.112L137.727 64.272L137.951 64.56L138.271 64.496L138.239 64.176ZM141.087 64.88C140.873 64.6667 140.681 64.592 140.511 64.656C140.361 64.72 140.159 64.8053 139.903 64.912C139.668 65.0187 139.497 65.1253 139.391 65.232C139.284 65.3173 139.241 65.488 139.263 65.744C139.305 66.0427 139.369 66.256 139.455 66.384C139.54 66.4907 139.732 66.5653 140.031 66.608C140.329 66.672 140.553 66.6827 140.703 66.64C140.852 66.5973 141.001 66.448 141.151 66.192C141.321 65.9147 141.407 65.6907 141.407 65.52C141.407 65.328 141.3 65.1147 141.087 64.88ZM142.655 66.48C142.569 66.416 142.505 66.4053 142.463 66.448C142.42 66.4907 142.367 66.544 142.303 66.608C142.217 66.672 142.153 66.7253 142.111 66.768C142.068 66.8107 142.068 66.8747 142.111 66.96C142.217 67.1733 142.356 67.2693 142.527 67.248C142.697 67.2267 142.804 67.0987 142.847 66.864C142.868 66.6933 142.804 66.5653 142.655 66.48ZM138.271 67.088C138.228 66.8107 138.089 66.6507 137.855 66.608C137.705 66.5867 137.599 66.608 137.535 66.672C137.492 66.7147 137.439 66.8 137.375 66.928C137.311 67.0347 137.3 67.12 137.343 67.184C137.385 67.2267 137.449 67.2907 137.535 67.376C137.599 67.4613 137.652 67.5253 137.695 67.568C137.759 67.5893 137.833 67.5787 137.919 67.536C138.047 67.472 138.143 67.4187 138.207 67.376C138.271 67.312 138.292 67.216 138.271 67.088ZM141.151 67.664L140.927 67.504L140.671 67.568L140.703 67.888L141.023 67.952L141.151 67.664ZM140.351 69.104C140.265 68.976 140.18 68.9227 140.095 68.944C140.009 68.9653 139.892 69.008 139.743 69.072C139.572 69.1147 139.433 69.1467 139.327 69.168C139.241 69.1893 139.199 69.2853 139.199 69.456C139.199 69.648 139.231 69.7867 139.295 69.872C139.359 69.936 139.487 70 139.679 70.064C139.828 70.1067 139.924 70.096 139.967 70.032C140.031 69.9467 140.116 69.84 140.223 69.712C140.308 69.584 140.372 69.488 140.415 69.424C140.479 69.3387 140.457 69.232 140.351 69.104ZM142.879 69.552C142.793 69.3813 142.697 69.2853 142.591 69.264C142.505 69.2427 142.377 69.2427 142.207 69.264C142.036 69.2853 141.919 69.328 141.855 69.392C141.791 69.456 141.737 69.5733 141.695 69.744C141.673 69.9147 141.684 70.0427 141.727 70.128C141.791 70.192 141.897 70.2667 142.047 70.352C142.281 70.48 142.505 70.448 142.719 70.256C142.847 70.128 142.921 70.0213 142.943 69.936C142.985 69.8293 142.964 69.7013 142.879 69.552ZM137.343 69.936L137.055 69.712L136.799 70.064L137.055 70.32L137.343 70.224V69.936ZM139.647 71.056C139.561 70.8427 139.444 70.7467 139.295 70.768C139.06 70.7893 138.921 70.896 138.879 71.088C138.857 71.2587 138.943 71.3973 139.135 71.504C139.305 71.6107 139.465 71.6107 139.615 71.504C139.721 71.3973 139.732 71.248 139.647 71.056ZM137.567 71.568C137.46 71.4827 137.375 71.4187 137.311 71.376C137.247 71.312 137.151 71.3227 137.023 71.408C136.916 71.4933 136.873 71.5787 136.895 71.664C136.916 71.728 136.959 71.8347 137.023 71.984C137.065 72.112 137.097 72.208 137.119 72.272C137.161 72.336 137.247 72.368 137.375 72.368C137.567 72.368 137.705 72.3573 137.791 72.336C137.897 72.3147 137.972 72.2187 138.015 72.048C138.057 71.8987 138.025 71.8027 137.919 71.76C137.833 71.7173 137.716 71.6533 137.567 71.568ZM142.303 71.984C142.239 71.7493 142.153 71.5893 142.047 71.504C141.94 71.4187 141.759 71.3653 141.503 71.344C141.268 71.3227 141.108 71.3653 141.023 71.472C140.937 71.5573 140.852 71.7067 140.767 71.92C140.66 72.176 140.596 72.3787 140.575 72.528C140.575 72.656 140.671 72.7947 140.863 72.944C141.076 73.136 141.257 73.232 141.407 73.232C141.556 73.232 141.748 73.1573 141.983 73.008C142.217 72.8587 142.345 72.72 142.367 72.592C142.388 72.4427 142.367 72.24 142.303 71.984ZM138.943 72.944L138.591 72.912V73.232L138.783 73.488L138.975 73.232L138.943 72.944ZM137.215 73.072L137.023 73.328V73.584L137.311 73.68L137.503 73.36L137.215 73.072ZM141.663 74.192L141.439 73.872L141.151 74.16L141.247 74.512L141.599 74.48L141.663 74.192ZM139.935 74.48C139.807 74.2667 139.689 74.1173 139.583 74.032C139.476 73.9467 139.295 73.936 139.039 74C138.804 74.0427 138.665 74.128 138.623 74.256C138.58 74.384 138.548 74.576 138.527 74.832C138.505 75.0453 138.527 75.1947 138.591 75.28C138.676 75.3653 138.815 75.44 139.007 75.504C139.22 75.6107 139.391 75.6853 139.519 75.728C139.647 75.7707 139.796 75.696 139.967 75.504C140.137 75.312 140.212 75.152 140.191 75.024C140.169 74.8747 140.084 74.6933 139.935 74.48ZM142.847 74.128L142.655 74L142.367 74.16L142.559 74.384L142.847 74.448V74.128ZM141.471 75.088C141.321 75.0667 141.215 75.0987 141.151 75.184C141.108 75.2693 141.055 75.376 140.991 75.504C140.927 75.6107 140.905 75.696 140.927 75.76C140.969 75.824 141.033 75.8987 141.119 75.984C141.225 76.0693 141.3 76.144 141.343 76.208C141.407 76.272 141.492 76.272 141.599 76.208C141.833 76.1013 141.929 75.92 141.887 75.664C141.865 75.4933 141.833 75.3653 141.791 75.28C141.748 75.1947 141.641 75.1307 141.471 75.088ZM155.279 78.32C153.743 78.32 152.431 78.1707 151.343 77.872C150.277 77.552 149.402 77.1573 148.719 76.688C148.058 76.1973 147.567 75.696 147.247 75.184C146.927 74.6507 146.757 74.1707 146.735 73.744C146.714 73.5093 146.778 73.3067 146.927 73.136C147.098 72.9653 147.29 72.88 147.503 72.88H153.199C153.477 72.9013 153.722 72.9973 153.935 73.168C154.17 73.3173 154.405 73.4667 154.639 73.616C154.895 73.7653 155.183 73.84 155.503 73.84C155.674 73.84 155.834 73.7973 155.983 73.712C156.154 73.6267 156.239 73.5093 156.239 73.36C156.239 73.168 156.175 72.9973 156.047 72.848C155.941 72.6987 155.653 72.5493 155.183 72.4C154.735 72.2293 153.978 72.048 152.911 71.856C151.93 71.664 150.991 71.3653 150.095 70.96C149.199 70.5547 148.463 69.9893 147.887 69.264C147.333 68.5387 147.055 67.6213 147.055 66.512C147.055 65.5947 147.365 64.72 147.983 63.888C148.602 63.056 149.509 62.3733 150.703 61.84C151.919 61.3067 153.402 61.04 155.151 61.04C156.922 61.04 158.426 61.296 159.663 61.808C160.901 62.32 161.85 62.928 162.511 63.632C163.173 64.336 163.514 64.9973 163.535 65.616C163.557 65.8507 163.493 66.0533 163.343 66.224C163.194 66.3947 163.023 66.48 162.831 66.48H157.455C157.157 66.48 156.89 66.4053 156.655 66.256C156.421 66.0853 156.186 65.9253 155.951 65.776C155.717 65.6053 155.439 65.52 155.119 65.52C154.97 65.52 154.821 65.5733 154.671 65.68C154.543 65.7653 154.479 65.8827 154.479 66.032C154.479 66.2027 154.543 66.3733 154.671 66.544C154.799 66.6933 155.109 66.8427 155.599 66.992C156.09 67.12 156.89 67.2693 157.999 67.44C159.535 67.6533 160.762 68.048 161.679 68.624C162.597 69.2 163.247 69.8613 163.631 70.608C164.037 71.3547 164.239 72.0907 164.239 72.816C164.239 74.5227 163.461 75.8667 161.903 76.848C160.367 77.8293 158.159 78.32 155.279 78.32ZM154.383 62.064L154.063 62.224L154.031 62.512L154.351 62.8L154.575 62.416L154.383 62.064ZM157.295 62.576C157.125 62.5333 157.007 62.5547 156.943 62.64C156.901 62.7253 156.837 62.8427 156.751 62.992C156.666 63.1413 156.591 63.2587 156.527 63.344C156.463 63.4293 156.485 63.536 156.591 63.664C156.719 63.8133 156.826 63.8667 156.911 63.824C157.018 63.7813 157.157 63.728 157.327 63.664C157.477 63.6 157.594 63.5467 157.679 63.504C157.786 63.44 157.829 63.3227 157.807 63.152C157.786 62.832 157.615 62.64 157.295 62.576ZM152.207 62.672L152.015 62.576L151.919 62.768L152.015 62.992L152.303 62.928L152.207 62.672ZM160.239 63.024C160.047 62.9813 159.909 62.992 159.823 63.056C159.738 63.0987 159.653 63.2053 159.567 63.376C159.418 63.632 159.439 63.8667 159.631 64.08C159.738 64.208 159.834 64.272 159.919 64.272C160.005 64.2507 160.122 64.208 160.271 64.144C160.506 64.0373 160.613 63.8773 160.591 63.664C160.57 63.472 160.549 63.3227 160.527 63.216C160.506 63.1093 160.41 63.0453 160.239 63.024ZM153.519 63.568C153.221 63.376 152.975 63.3227 152.783 63.408C152.613 63.472 152.389 63.6213 152.111 63.856C151.834 64.0907 151.653 64.2933 151.567 64.464C151.503 64.6133 151.535 64.8587 151.663 65.2C151.77 65.4773 151.919 65.6053 152.111 65.584C152.303 65.5413 152.559 65.5093 152.879 65.488C153.199 65.4667 153.455 65.4667 153.647 65.488C153.861 65.5093 154.01 65.36 154.095 65.04C154.181 64.656 154.191 64.368 154.127 64.176C154.063 63.984 153.861 63.7813 153.519 63.568ZM159.151 64.912H158.831L158.735 65.264L159.055 65.36L159.215 65.168L159.151 64.912ZM161.519 65.2L161.199 65.392L161.263 65.776L161.615 65.712L161.711 65.456L161.519 65.2ZM149.903 65.808C149.818 65.7227 149.754 65.648 149.711 65.584C149.669 65.52 149.594 65.52 149.487 65.584C149.274 65.6907 149.189 65.8507 149.231 66.064C149.274 66.2773 149.413 66.4053 149.647 66.448C149.839 66.4693 149.989 66.384 150.095 66.192C150.138 66.0853 150.138 66.0107 150.095 65.968C150.053 65.9253 149.989 65.872 149.903 65.808ZM153.615 68.72C153.487 68.464 153.381 68.2613 153.295 68.112C153.21 67.9627 153.029 67.9093 152.751 67.952C152.431 67.9947 152.218 68.0907 152.111 68.24C152.026 68.368 151.951 68.5813 151.887 68.88C151.845 69.1573 151.877 69.3493 151.983 69.456C152.111 69.5413 152.293 69.648 152.527 69.776C152.762 69.904 152.954 69.9893 153.103 70.032C153.253 70.0533 153.423 69.968 153.615 69.776C153.786 69.6053 153.85 69.456 153.807 69.328C153.786 69.1787 153.722 68.976 153.615 68.72ZM149.871 68.432L149.711 68.24L149.519 68.4L149.487 68.688H149.807L149.871 68.432ZM157.807 68.528C157.679 68.5067 157.605 68.5387 157.583 68.624C157.583 68.688 157.551 68.7733 157.487 68.88C157.423 68.9867 157.434 69.0933 157.519 69.2C157.647 69.3067 157.754 69.3387 157.839 69.296C158.031 69.2107 158.117 69.0933 158.095 68.944C158.074 68.816 158.053 68.72 158.031 68.656C158.01 68.592 157.935 68.5493 157.807 68.528ZM159.951 71.12C159.375 70.9707 158.927 70.9067 158.607 70.928C158.309 70.9493 157.989 71.2053 157.647 71.696C157.327 72.1867 157.199 72.592 157.263 72.912C157.327 73.2107 157.541 73.6053 157.903 74.096C158.202 74.48 158.479 74.608 158.735 74.48C159.013 74.352 159.386 74.2027 159.855 74.032C160.325 73.8613 160.709 73.744 161.007 73.68C161.327 73.5947 161.477 73.3067 161.455 72.816C161.434 72.24 161.306 71.856 161.071 71.664C160.858 71.472 160.485 71.2907 159.951 71.12ZM156.943 71.664C156.922 71.4933 156.805 71.376 156.591 71.312C156.463 71.2907 156.357 71.28 156.271 71.28C156.207 71.28 156.143 71.3333 156.079 71.44C155.973 71.6107 155.994 71.792 156.143 71.984C156.271 72.1333 156.442 72.1653 156.655 72.08C156.869 71.9947 156.965 71.856 156.943 71.664ZM153.903 74.064C153.754 73.936 153.626 73.8507 153.519 73.808C153.413 73.744 153.274 73.7653 153.103 73.872C152.933 73.9787 152.869 74.0853 152.911 74.192C152.975 74.2987 153.029 74.448 153.071 74.64C153.135 74.832 153.167 74.992 153.167 75.12C153.167 75.2267 153.263 75.2907 153.455 75.312C153.69 75.3333 153.861 75.312 153.967 75.248C154.074 75.184 154.17 75.0453 154.255 74.832C154.341 74.64 154.341 74.5013 154.255 74.416C154.191 74.3307 154.074 74.2133 153.903 74.064ZM150.831 75.44C150.661 75.4187 150.533 75.4187 150.447 75.44C150.362 75.44 150.277 75.5147 150.191 75.664C150.127 75.8133 150.127 75.9307 150.191 76.016C150.255 76.08 150.341 76.1653 150.447 76.272C150.597 76.4 150.703 76.5173 150.767 76.624C150.831 76.7093 150.949 76.7093 151.119 76.624C151.29 76.5387 151.365 76.4427 151.343 76.336C151.322 76.208 151.301 76.048 151.279 75.856C151.237 75.6213 151.087 75.4827 150.831 75.44ZM158.767 75.632L158.447 75.472L158.223 75.696L158.351 75.952H158.639L158.767 75.632ZM157.967 76.432L157.711 76.4V76.656L157.903 76.912L158.031 76.624L157.967 76.432ZM167.21 78C166.976 78 166.773 77.9147 166.602 77.744C166.432 77.5733 166.346 77.3707 166.346 77.136V62.224C166.346 61.9893 166.432 61.7867 166.602 61.616C166.773 61.4453 166.976 61.36 167.21 61.36H172.49C172.725 61.36 172.928 61.4453 173.098 61.616C173.269 61.7867 173.354 61.9893 173.354 62.224V63.28C173.717 62.7893 174.282 62.3093 175.05 61.84C175.84 61.3493 176.757 61.0827 177.802 61.04C180.32 60.9547 182.005 61.8293 182.858 63.664C183.349 62.9173 184.042 62.2987 184.938 61.808C185.834 61.296 186.773 61.04 187.754 61.04C188.842 61.04 189.824 61.2853 190.698 61.776C191.594 62.2667 192.309 63.0347 192.842 64.08C193.376 65.1253 193.642 66.4907 193.642 68.176V77.136C193.642 77.3707 193.557 77.5733 193.386 77.744C193.216 77.9147 193.013 78 192.778 78H187.146C186.912 78 186.709 77.9147 186.538 77.744C186.368 77.5733 186.282 77.3707 186.282 77.136V68.336C186.282 67.2907 185.856 66.768 185.002 66.768C184.17 66.768 183.754 67.2907 183.754 68.336V77.136C183.754 77.3707 183.669 77.5733 183.498 77.744C183.328 77.9147 183.125 78 182.89 78H177.258C177.024 78 176.821 77.9147 176.65 77.744C176.48 77.5733 176.394 77.3707 176.394 77.136V68.336C176.394 67.2907 175.968 66.768 175.114 66.768C174.261 66.768 173.834 67.2907 173.834 68.336V77.136C173.834 77.3707 173.749 77.5733 173.578 77.744C173.408 77.9147 173.205 78 172.97 78H167.21ZM175.914 62.096L175.626 62.288L175.69 62.672L176.106 62.64L176.234 62.288L175.914 62.096ZM188.778 62.576L188.49 62.512L188.266 62.672L188.394 62.992L188.714 62.896L188.778 62.576ZM170.826 62.672H170.346L170.122 63.088L170.506 63.248L170.922 63.152L170.826 62.672ZM185.738 63.376C185.61 63.1627 185.472 63.0773 185.322 63.12C185.194 63.1627 185.013 63.216 184.778 63.28C184.586 63.3227 184.458 63.3867 184.394 63.472C184.33 63.536 184.288 63.664 184.266 63.856C184.245 64.048 184.256 64.208 184.298 64.336C184.341 64.4427 184.458 64.528 184.65 64.592C184.885 64.6987 185.066 64.7627 185.194 64.784C185.344 64.784 185.493 64.688 185.642 64.496C185.834 64.2827 185.93 64.1013 185.93 63.952C185.952 63.8027 185.888 63.6107 185.738 63.376ZM181.354 65.072C181.226 64.4533 181.066 64.0053 180.874 63.728C180.682 63.4507 180.277 63.28 179.658 63.216C179.04 63.1307 178.624 63.216 178.41 63.472C178.197 63.728 177.962 64.1333 177.706 64.688C177.493 65.1573 177.418 65.5307 177.482 65.808C177.546 66.0853 177.77 66.4053 178.154 66.768C178.624 67.1947 178.997 67.5147 179.274 67.728C179.573 67.9413 180 67.888 180.554 67.568C181.13 67.248 181.44 66.9173 181.482 66.576C181.525 66.2133 181.482 65.712 181.354 65.072ZM188.202 63.76C188.138 63.632 188.096 63.5253 188.074 63.44C188.053 63.3547 187.968 63.3227 187.818 63.344C187.69 63.3653 187.605 63.4187 187.562 63.504C187.541 63.568 187.509 63.664 187.466 63.792C187.445 63.9413 187.424 64.0693 187.402 64.176C187.381 64.2613 187.445 64.336 187.594 64.4C187.722 64.4853 187.829 64.5173 187.914 64.496C188 64.4533 188.106 64.3787 188.234 64.272C188.32 64.1867 188.352 64.112 188.33 64.048C188.309 63.9627 188.266 63.8667 188.202 63.76ZM172.618 63.664L172.234 63.792L172.394 64.176L172.81 64.304L172.97 63.824L172.618 63.664ZM171.338 63.76L171.05 63.824L171.114 64.208H171.498L171.626 63.888L171.338 63.76ZM174.538 64.752L174.218 64.56L173.962 64.816L174.122 65.072L174.41 65.04L174.538 64.752ZM187.274 64.944L187.05 64.976L187.018 65.232L187.306 65.392L187.274 64.944ZM192.234 65.328L191.882 65.36V65.776L192.298 65.904L192.554 65.552L192.234 65.328ZM188.938 66C188.832 65.8507 188.746 65.7227 188.682 65.616C188.64 65.5093 188.522 65.488 188.33 65.552C188.138 65.5947 188.032 65.68 188.01 65.808C187.989 65.9147 187.968 66.064 187.946 66.256C187.946 66.448 187.946 66.5973 187.946 66.704C187.968 66.8107 188.074 66.896 188.266 66.96C188.458 67.0453 188.597 67.0667 188.682 67.024C188.789 66.96 188.906 66.8533 189.034 66.704C189.141 66.5547 189.173 66.4373 189.13 66.352C189.109 66.2667 189.045 66.1493 188.938 66ZM168.266 66.032C168.181 65.904 168.074 65.8507 167.946 65.872C167.818 65.9147 167.744 66.0107 167.722 66.16C167.722 66.2667 167.712 66.352 167.69 66.416C167.69 66.48 167.744 66.5333 167.85 66.576C167.957 66.6187 168.042 66.6507 168.106 66.672C168.192 66.672 168.277 66.6187 168.362 66.512C168.448 66.4267 168.469 66.352 168.426 66.288C168.384 66.224 168.33 66.1387 168.266 66.032ZM170.794 66.512L170.506 66.416L170.218 66.672L170.442 66.992L170.794 66.864V66.512ZM168.65 67.6L168.362 67.632L168.394 67.952L168.682 68.08L168.938 67.792L168.65 67.6ZM188.074 68.08L187.722 67.856L187.434 67.984V68.304L187.786 68.464L188.074 68.08ZM173.066 68.56L172.874 68.336L172.618 68.528L172.746 68.816L172.97 68.784L173.066 68.56ZM182.218 68.944C182.09 68.8373 181.973 68.784 181.866 68.784C181.781 68.7627 181.664 68.8053 181.514 68.912C181.322 69.04 181.173 69.1467 181.066 69.232C180.96 69.3173 180.938 69.4667 181.002 69.68C181.066 69.8933 181.162 70 181.29 70C181.44 70 181.632 70 181.866 70C182.058 70 182.208 70 182.314 70C182.442 69.9787 182.538 69.872 182.602 69.68C182.666 69.488 182.656 69.3493 182.57 69.264C182.506 69.1787 182.389 69.072 182.218 68.944ZM192.138 70.064C191.989 69.552 191.765 69.2747 191.466 69.232C191.168 69.168 190.752 69.136 190.218 69.136C189.749 69.136 189.397 69.1893 189.162 69.296C188.949 69.4027 188.768 69.68 188.618 70.128C188.426 70.6613 188.309 71.088 188.266 71.408C188.224 71.728 188.426 72.0587 188.874 72.4C189.45 72.848 189.92 73.1467 190.282 73.296C190.645 73.424 191.125 73.2853 191.722 72.88C192.298 72.4747 192.565 72.08 192.522 71.696C192.48 71.2907 192.352 70.7467 192.138 70.064ZM179.882 69.36C179.733 69.36 179.616 69.3707 179.53 69.392C179.466 69.4133 179.402 69.4987 179.338 69.648C179.253 69.8827 179.306 70.0853 179.498 70.256C179.605 70.3413 179.69 70.3627 179.754 70.32C179.818 70.2773 179.914 70.2133 180.042 70.128C180.213 70.0213 180.288 69.8933 180.266 69.744C180.224 69.616 180.181 69.52 180.138 69.456C180.096 69.392 180.01 69.36 179.882 69.36ZM172.49 70.032L172.234 70.128V70.352L172.458 70.48L172.618 70.256L172.49 70.032ZM177.898 70.672C177.77 70.5867 177.674 70.5653 177.61 70.608C177.546 70.6293 177.45 70.6827 177.322 70.768C177.194 70.8747 177.173 71.0347 177.258 71.248C177.301 71.376 177.344 71.472 177.386 71.536C177.429 71.5787 177.514 71.6 177.642 71.6C177.77 71.6 177.845 71.568 177.866 71.504C177.909 71.44 177.952 71.344 177.994 71.216C178.016 71.088 178.037 70.9813 178.058 70.896C178.08 70.8107 178.026 70.736 177.898 70.672ZM171.978 72.976C171.978 72.6773 171.925 72.4747 171.818 72.368C171.712 72.24 171.509 72.1227 171.21 72.016C170.912 71.9307 170.688 71.9093 170.538 71.952C170.389 71.9947 170.218 72.1333 170.026 72.368C169.877 72.6027 169.834 72.7947 169.898 72.944C169.984 73.072 170.112 73.2533 170.282 73.488C170.432 73.7013 170.56 73.8507 170.666 73.936C170.794 74 170.986 73.9893 171.242 73.904C171.52 73.8187 171.712 73.7227 171.818 73.616C171.925 73.488 171.978 73.2747 171.978 72.976ZM181.546 72.88C181.525 72.6667 181.418 72.5387 181.226 72.496C181.077 72.4747 180.949 72.5493 180.842 72.72C180.778 72.8267 180.736 72.912 180.714 72.976C180.693 73.04 180.714 73.1147 180.778 73.2C180.949 73.392 181.13 73.4453 181.322 73.36C181.45 73.296 181.514 73.232 181.514 73.168C181.536 73.104 181.546 73.008 181.546 72.88ZM179.402 73.776C179.189 73.6053 179.008 73.5093 178.858 73.488C178.73 73.4453 178.549 73.4987 178.314 73.648C178.058 73.84 177.866 74 177.738 74.128C177.61 74.256 177.589 74.4693 177.674 74.768C177.76 75.0667 177.898 75.216 178.09 75.216C178.282 75.216 178.528 75.2267 178.826 75.248C179.061 75.248 179.232 75.216 179.338 75.152C179.445 75.088 179.53 74.9493 179.594 74.736C179.68 74.5013 179.712 74.32 179.69 74.192C179.69 74.064 179.594 73.9253 179.402 73.776ZM182.41 73.968C182.261 73.7973 182.09 73.7547 181.898 73.84C181.706 73.904 181.621 74.0533 181.642 74.288C181.664 74.4587 181.77 74.576 181.962 74.64C182.09 74.6613 182.186 74.672 182.25 74.672C182.336 74.672 182.41 74.6187 182.474 74.512C182.581 74.3413 182.56 74.16 182.41 73.968ZM190.442 73.904L190.058 74.096L189.866 74.416L190.186 74.512L190.57 74.416L190.442 73.904ZM172.266 75.12C172.138 75.056 172.042 75.0667 171.978 75.152C171.936 75.216 171.872 75.3013 171.786 75.408C171.701 75.4933 171.626 75.568 171.562 75.632C171.52 75.696 171.53 75.7813 171.594 75.888C171.68 76.0373 171.754 76.1333 171.818 76.176C171.882 76.2187 172 76.2293 172.17 76.208C172.298 76.1653 172.352 76.1013 172.33 76.016C172.33 75.9307 172.341 75.8133 172.362 75.664C172.384 75.5147 172.405 75.3973 172.426 75.312C172.448 75.2267 172.394 75.1627 172.266 75.12ZM169.706 75.664C169.642 75.4293 169.525 75.3227 169.354 75.344C169.205 75.3653 169.002 75.376 168.746 75.376C168.554 75.376 168.405 75.3973 168.298 75.44C168.213 75.4827 168.138 75.5893 168.074 75.76C168.01 75.952 168 76.1013 168.042 76.208C168.106 76.2933 168.213 76.3893 168.362 76.496C168.554 76.624 168.704 76.72 168.81 76.784C168.917 76.8267 169.056 76.784 169.226 76.656C169.461 76.4853 169.621 76.3467 169.706 76.24C169.792 76.112 169.792 75.92 169.706 75.664ZM191.754 75.888C191.605 75.696 191.413 75.6427 191.178 75.728C191.05 75.7707 190.986 75.8347 190.986 75.92C190.986 75.984 190.986 76.08 190.986 76.208C190.986 76.4213 191.061 76.5493 191.21 76.592C191.36 76.6347 191.466 76.6667 191.53 76.688C191.616 76.688 191.701 76.6347 191.786 76.528C191.936 76.2933 191.925 76.08 191.754 75.888ZM178.09 76.304L177.802 76.016L177.546 76.272L177.642 76.56H177.93L178.09 76.304ZM202.426 78.32C201.359 78.32 200.346 78.064 199.386 77.552C198.447 77.04 197.679 76.2507 197.082 75.184C196.506 74.1173 196.218 72.7413 196.218 71.056V62.224C196.218 61.9893 196.303 61.7867 196.474 61.616C196.644 61.4453 196.847 61.36 197.082 61.36H203.194C203.428 61.36 203.631 61.4453 203.802 61.616C203.972 61.7867 204.058 61.9893 204.058 62.224V70.832C204.058 72.0053 204.591 72.592 205.658 72.592C206.724 72.592 207.258 72.0053 207.258 70.832V62.224C207.258 61.9893 207.343 61.7867 207.514 61.616C207.684 61.4453 207.887 61.36 208.122 61.36H214.202C214.436 61.36 214.639 61.4453 214.81 61.616C214.98 61.7867 215.066 61.9893 215.066 62.224V77.136C215.066 77.3707 214.98 77.5733 214.81 77.744C214.639 77.9147 214.436 78 214.202 78H208.602C208.367 78 208.164 77.9147 207.994 77.744C207.823 77.5733 207.738 77.3707 207.738 77.136V76.08C207.204 76.8693 206.468 77.4453 205.53 77.808C204.591 78.1493 203.556 78.32 202.426 78.32ZM202.362 62.128C202.148 62.1067 201.999 62.1387 201.914 62.224C201.85 62.3093 201.786 62.448 201.722 62.64C201.636 62.8107 201.615 62.9387 201.658 63.024C201.7 63.1093 201.786 63.216 201.914 63.344C202.063 63.472 202.18 63.568 202.266 63.632C202.372 63.6747 202.511 63.6533 202.682 63.568C202.874 63.4613 202.97 63.3547 202.97 63.248C202.991 63.12 202.97 62.96 202.906 62.768C202.863 62.5547 202.81 62.4053 202.746 62.32C202.703 62.2133 202.575 62.1493 202.362 62.128ZM209.178 62.416L208.858 62.288L208.602 62.48L208.762 62.704L208.986 62.736L209.178 62.416ZM212.378 63.504C212.1 63.184 211.855 63.0347 211.642 63.056C211.428 63.056 211.13 63.1307 210.746 63.28C210.255 63.4507 209.86 63.5893 209.562 63.696C209.284 63.7813 209.156 64.0693 209.178 64.56C209.199 65.1147 209.327 65.4773 209.562 65.648C209.818 65.8187 210.212 65.9787 210.746 66.128C211.194 66.256 211.503 66.2347 211.674 66.064C211.866 65.8933 212.09 65.6053 212.346 65.2C212.58 64.8587 212.708 64.5813 212.73 64.368C212.751 64.1333 212.634 63.8453 212.378 63.504ZM200.41 63.824C200.154 63.568 199.93 63.44 199.738 63.44C199.567 63.44 199.322 63.5147 199.002 63.664C198.682 63.8133 198.458 63.9627 198.33 64.112C198.223 64.2613 198.191 64.5067 198.234 64.848C198.276 65.1893 198.372 65.424 198.522 65.552C198.671 65.6587 198.916 65.744 199.258 65.808C199.556 65.872 199.759 65.8507 199.866 65.744C199.994 65.616 200.132 65.4133 200.282 65.136C200.452 64.8587 200.57 64.6347 200.634 64.464C200.698 64.2933 200.623 64.08 200.41 63.824ZM208.634 63.664L208.314 63.568L208.058 63.696L208.154 63.952L208.506 64.048L208.634 63.664ZM213.178 66.384L212.954 66.288L212.858 66.544L212.986 66.8L213.178 66.576V66.384ZM202.586 66.896C202.5 66.7467 202.394 66.6827 202.266 66.704C202.116 66.7467 202.042 66.864 202.042 67.056C202.042 67.1627 202.031 67.2587 202.01 67.344C202.01 67.408 202.074 67.4613 202.202 67.504C202.351 67.568 202.458 67.6 202.522 67.6C202.607 67.5787 202.692 67.504 202.778 67.376C202.863 67.2907 202.874 67.216 202.81 67.152C202.746 67.088 202.671 67.0027 202.586 66.896ZM213.594 67.856C213.594 67.7067 213.583 67.6 213.562 67.536C213.562 67.4507 213.498 67.3973 213.37 67.376C213.22 67.3333 213.103 67.3227 213.017 67.344C212.932 67.344 212.847 67.408 212.762 67.536C212.676 67.664 212.655 67.7707 212.698 67.856C212.74 67.92 212.804 68.016 212.89 68.144C212.975 68.2507 213.05 68.3253 213.114 68.368C213.178 68.3893 213.274 68.3787 213.402 68.336C213.53 68.2933 213.594 68.24 213.594 68.176C213.594 68.0907 213.594 67.984 213.594 67.856ZM209.082 67.408C208.911 67.3227 208.783 67.344 208.698 67.472C208.634 67.536 208.612 67.5893 208.634 67.632C208.655 67.6747 208.687 67.7387 208.73 67.824C208.794 67.9307 208.836 68.0267 208.858 68.112C208.879 68.1973 208.943 68.2293 209.05 68.208C209.178 68.1653 209.231 68.112 209.21 68.048C209.188 67.9627 209.188 67.856 209.21 67.728C209.231 67.5573 209.188 67.4507 209.082 67.408ZM198.458 67.856C198.372 67.7493 198.287 67.696 198.202 67.696C198.138 67.6747 198.031 67.6747 197.882 67.696C197.711 67.7387 197.615 67.8773 197.594 68.112C197.572 68.24 197.658 68.3467 197.85 68.432C197.999 68.496 198.116 68.4747 198.202 68.368C198.308 68.2613 198.394 68.1867 198.458 68.144C198.522 68.08 198.522 67.984 198.458 67.856ZM211.097 68.848C211.034 68.7413 210.98 68.6667 210.938 68.624C210.895 68.56 210.81 68.5493 210.682 68.592C210.49 68.656 210.394 68.8053 210.394 69.04C210.394 69.2107 210.5 69.328 210.714 69.392C210.863 69.4347 210.991 69.3813 211.097 69.232C211.183 69.104 211.183 68.976 211.097 68.848ZM203.226 68.848L202.906 68.72L202.65 68.912L202.842 69.136L203.194 69.264L203.226 68.848ZM199.962 69.84C199.94 69.6053 199.855 69.4773 199.706 69.456C199.556 69.4347 199.364 69.4027 199.13 69.36C198.959 69.296 198.82 69.2747 198.714 69.296C198.628 69.3173 198.532 69.4027 198.426 69.552C198.319 69.7227 198.255 69.872 198.234 70C198.212 70.1067 198.276 70.2347 198.426 70.384C198.554 70.5547 198.671 70.6507 198.778 70.672C198.906 70.6933 199.076 70.6613 199.29 70.576C199.524 70.4907 199.695 70.416 199.802 70.352C199.93 70.2667 199.983 70.096 199.962 69.84ZM213.434 69.84C213.284 69.7333 213.156 69.6907 213.05 69.712C212.964 69.7333 212.847 69.7973 212.698 69.904C212.57 69.9893 212.495 70.0747 212.474 70.16C212.474 70.2453 212.495 70.3627 212.538 70.512C212.58 70.6827 212.623 70.8 212.666 70.864C212.73 70.928 212.836 70.96 212.986 70.96C213.242 70.96 213.423 70.832 213.53 70.576C213.594 70.4053 213.626 70.2773 213.626 70.192C213.647 70.0853 213.583 69.968 213.434 69.84ZM201.914 70.864C201.871 70.7573 201.828 70.672 201.786 70.608C201.743 70.544 201.668 70.5227 201.562 70.544C201.391 70.5653 201.263 70.5867 201.178 70.608C201.092 70.6293 201.028 70.7253 200.986 70.896C200.964 71.0667 200.975 71.1947 201.018 71.28C201.082 71.344 201.199 71.4187 201.37 71.504C201.498 71.568 201.583 71.568 201.626 71.504C201.69 71.44 201.775 71.3653 201.882 71.28C201.988 71.1733 201.999 71.0347 201.914 70.864ZM210.426 71.216L210.074 71.376L210.17 71.76L210.554 71.824L210.586 71.504L210.426 71.216ZM199.066 72.368C198.938 72.176 198.778 72.112 198.586 72.176C198.351 72.24 198.234 72.368 198.234 72.56C198.234 72.7947 198.34 72.9547 198.554 73.04C198.66 73.0827 198.735 73.072 198.778 73.008C198.82 72.944 198.874 72.8693 198.938 72.784C199.002 72.6987 199.055 72.6347 199.098 72.592C199.14 72.528 199.13 72.4533 199.066 72.368ZM210.714 73.296C210.564 72.976 210.436 72.72 210.33 72.528C210.223 72.336 209.988 72.2613 209.626 72.304C209.263 72.3467 209.071 72.4853 209.05 72.72C209.028 72.9333 208.986 73.2213 208.922 73.584C208.858 73.904 208.804 74.16 208.762 74.352C208.719 74.544 208.847 74.7253 209.146 74.896C209.466 75.0667 209.711 75.12 209.882 75.056C210.074 74.992 210.308 74.832 210.586 74.576C210.82 74.3627 210.927 74.1707 210.906 74C210.906 73.8293 210.842 73.5947 210.714 73.296ZM212.698 72.4C212.527 72.3787 212.399 72.3893 212.314 72.432C212.228 72.4533 212.154 72.5387 212.09 72.688C212.026 72.816 212.015 72.9227 212.058 73.008C212.122 73.072 212.207 73.1573 212.314 73.264C212.442 73.3707 212.538 73.456 212.602 73.52C212.687 73.584 212.794 73.584 212.922 73.52C213.114 73.4133 213.242 73.3173 213.306 73.232C213.37 73.1467 213.391 73.008 213.37 72.816C213.327 72.624 213.252 72.5173 213.146 72.496C213.039 72.4533 212.89 72.4213 212.698 72.4ZM201.754 73.52C201.647 73.2213 201.572 72.9867 201.53 72.816C201.508 72.624 201.338 72.528 201.018 72.528C200.719 72.528 200.548 72.624 200.506 72.816C200.463 72.9867 200.399 73.2213 200.314 73.52C200.25 73.7333 200.239 73.8933 200.282 74C200.346 74.0853 200.463 74.192 200.634 74.32C200.804 74.448 200.943 74.512 201.05 74.512C201.156 74.4907 201.295 74.4267 201.466 74.32C201.636 74.192 201.743 74.0747 201.786 73.968C201.828 73.8613 201.818 73.712 201.754 73.52ZM205.178 73.968L204.89 73.776L204.698 74.064L204.794 74.416L205.114 74.256L205.178 73.968ZM204.57 75.152C204.484 75.1093 204.41 75.1093 204.345 75.152C204.303 75.1733 204.25 75.2267 204.186 75.312C204.1 75.3973 204.036 75.472 203.994 75.536C203.951 75.5787 203.962 75.6533 204.026 75.76C204.09 75.888 204.154 75.9733 204.218 76.016C204.282 76.0587 204.378 76.0693 204.506 76.048C204.634 76.0267 204.708 75.984 204.73 75.92C204.751 75.8347 204.772 75.7173 204.794 75.568C204.815 75.376 204.74 75.2373 204.57 75.152ZM207.002 75.568C206.959 75.3973 206.874 75.312 206.746 75.312C206.639 75.2907 206.49 75.2693 206.298 75.248C206.106 75.2267 205.946 75.2053 205.818 75.184C205.69 75.1413 205.583 75.2053 205.498 75.376C205.412 75.5893 205.391 75.76 205.434 75.888C205.476 75.9947 205.572 76.1227 205.722 76.272C205.871 76.4 205.988 76.432 206.074 76.368C206.159 76.2827 206.287 76.1973 206.458 76.112C206.628 76.0267 206.767 75.9627 206.874 75.92C206.98 75.8773 207.023 75.76 207.002 75.568ZM203.514 76.112C203.428 76.0053 203.343 75.9627 203.258 75.984C203.194 76.0053 203.098 76.0373 202.97 76.08C202.82 76.1227 202.703 76.1653 202.618 76.208C202.554 76.2293 202.522 76.3147 202.522 76.464C202.522 76.6133 202.564 76.7093 202.65 76.752C202.735 76.7733 202.842 76.7947 202.97 76.816C203.14 76.88 203.268 76.9227 203.354 76.944C203.439 76.9653 203.535 76.912 203.642 76.784C203.727 76.656 203.748 76.5493 203.706 76.464C203.684 76.3573 203.62 76.24 203.514 76.112ZM201.402 76.336C201.316 76.1653 201.167 76.1013 200.954 76.144C200.804 76.1653 200.698 76.1973 200.634 76.24C200.57 76.2827 200.527 76.368 200.506 76.496C200.484 76.624 200.516 76.6987 200.602 76.72C200.687 76.7413 200.783 76.7733 200.89 76.816C200.975 76.8587 201.05 76.8907 201.114 76.912C201.178 76.9333 201.242 76.9013 201.306 76.816C201.455 76.6453 201.487 76.4853 201.402 76.336ZM209.978 77.04L209.754 76.72L209.498 76.944L209.466 77.168L209.722 77.232L209.978 77.04ZM225.748 78.32C224.212 78.32 222.9 78.1707 221.812 77.872C220.745 77.552 219.871 77.1573 219.188 76.688C218.527 76.1973 218.036 75.696 217.716 75.184C217.396 74.6507 217.225 74.1707 217.204 73.744C217.183 73.5093 217.247 73.3067 217.396 73.136C217.567 72.9653 217.759 72.88 217.972 72.88H223.668C223.945 72.9013 224.191 72.9973 224.404 73.168C224.639 73.3173 224.873 73.4667 225.108 73.616C225.364 73.7653 225.652 73.84 225.972 73.84C226.143 73.84 226.303 73.7973 226.452 73.712C226.623 73.6267 226.708 73.5093 226.708 73.36C226.708 73.168 226.644 72.9973 226.516 72.848C226.409 72.6987 226.121 72.5493 225.652 72.4C225.204 72.2293 224.447 72.048 223.38 71.856C222.399 71.664 221.46 71.3653 220.564 70.96C219.668 70.5547 218.932 69.9893 218.356 69.264C217.801 68.5387 217.524 67.6213 217.524 66.512C217.524 65.5947 217.833 64.72 218.452 63.888C219.071 63.056 219.977 62.3733 221.172 61.84C222.388 61.3067 223.871 61.04 225.62 61.04C227.391 61.04 228.895 61.296 230.132 61.808C231.369 62.32 232.319 62.928 232.98 63.632C233.641 64.336 233.983 64.9973 234.004 65.616C234.025 65.8507 233.961 66.0533 233.812 66.224C233.663 66.3947 233.492 66.48 233.3 66.48H227.924C227.625 66.48 227.359 66.4053 227.124 66.256C226.889 66.0853 226.655 65.9253 226.42 65.776C226.185 65.6053 225.908 65.52 225.588 65.52C225.439 65.52 225.289 65.5733 225.14 65.68C225.012 65.7653 224.948 65.8827 224.948 66.032C224.948 66.2027 225.012 66.3733 225.14 66.544C225.268 66.6933 225.577 66.8427 226.068 66.992C226.559 67.12 227.359 67.2693 228.468 67.44C230.004 67.6533 231.231 68.048 232.148 68.624C233.065 69.2 233.716 69.8613 234.1 70.608C234.505 71.3547 234.708 72.0907 234.708 72.816C234.708 74.5227 233.929 75.8667 232.372 76.848C230.836 77.8293 228.628 78.32 225.748 78.32ZM224.852 62.064L224.532 62.224L224.5 62.512L224.82 62.8L225.044 62.416L224.852 62.064ZM227.764 62.576C227.593 62.5333 227.476 62.5547 227.412 62.64C227.369 62.7253 227.305 62.8427 227.22 62.992C227.135 63.1413 227.06 63.2587 226.996 63.344C226.932 63.4293 226.953 63.536 227.06 63.664C227.188 63.8133 227.295 63.8667 227.38 63.824C227.487 63.7813 227.625 63.728 227.796 63.664C227.945 63.6 228.063 63.5467 228.148 63.504C228.255 63.44 228.297 63.3227 228.276 63.152C228.255 62.832 228.084 62.64 227.764 62.576ZM222.676 62.672L222.484 62.576L222.388 62.768L222.484 62.992L222.772 62.928L222.676 62.672ZM230.708 63.024C230.516 62.9813 230.377 62.992 230.292 63.056C230.207 63.0987 230.121 63.2053 230.036 63.376C229.887 63.632 229.908 63.8667 230.1 64.08C230.207 64.208 230.303 64.272 230.388 64.272C230.473 64.2507 230.591 64.208 230.74 64.144C230.975 64.0373 231.081 63.8773 231.06 63.664C231.039 63.472 231.017 63.3227 230.996 63.216C230.975 63.1093 230.879 63.0453 230.708 63.024ZM223.988 63.568C223.689 63.376 223.444 63.3227 223.252 63.408C223.081 63.472 222.857 63.6213 222.58 63.856C222.303 64.0907 222.121 64.2933 222.036 64.464C221.972 64.6133 222.004 64.8587 222.132 65.2C222.239 65.4773 222.388 65.6053 222.58 65.584C222.772 65.5413 223.028 65.5093 223.348 65.488C223.668 65.4667 223.924 65.4667 224.116 65.488C224.329 65.5093 224.479 65.36 224.564 65.04C224.649 64.656 224.66 64.368 224.596 64.176C224.532 63.984 224.329 63.7813 223.988 63.568ZM229.62 64.912H229.3L229.204 65.264L229.524 65.36L229.684 65.168L229.62 64.912ZM231.988 65.2L231.668 65.392L231.732 65.776L232.084 65.712L232.18 65.456L231.988 65.2ZM220.372 65.808C220.287 65.7227 220.223 65.648 220.18 65.584C220.137 65.52 220.063 65.52 219.956 65.584C219.743 65.6907 219.657 65.8507 219.7 66.064C219.743 66.2773 219.881 66.4053 220.116 66.448C220.308 66.4693 220.457 66.384 220.564 66.192C220.607 66.0853 220.607 66.0107 220.564 65.968C220.521 65.9253 220.457 65.872 220.372 65.808ZM224.084 68.72C223.956 68.464 223.849 68.2613 223.764 68.112C223.679 67.9627 223.497 67.9093 223.22 67.952C222.9 67.9947 222.687 68.0907 222.58 68.24C222.495 68.368 222.42 68.5813 222.356 68.88C222.313 69.1573 222.345 69.3493 222.452 69.456C222.58 69.5413 222.761 69.648 222.996 69.776C223.231 69.904 223.423 69.9893 223.572 70.032C223.721 70.0533 223.892 69.968 224.084 69.776C224.255 69.6053 224.319 69.456 224.276 69.328C224.255 69.1787 224.191 68.976 224.084 68.72ZM220.34 68.432L220.18 68.24L219.988 68.4L219.956 68.688H220.276L220.34 68.432ZM228.276 68.528C228.148 68.5067 228.073 68.5387 228.052 68.624C228.052 68.688 228.02 68.7733 227.956 68.88C227.892 68.9867 227.903 69.0933 227.988 69.2C228.116 69.3067 228.223 69.3387 228.308 69.296C228.5 69.2107 228.585 69.0933 228.564 68.944C228.543 68.816 228.521 68.72 228.5 68.656C228.479 68.592 228.404 68.5493 228.276 68.528ZM230.42 71.12C229.844 70.9707 229.396 70.9067 229.076 70.928C228.777 70.9493 228.457 71.2053 228.116 71.696C227.796 72.1867 227.668 72.592 227.732 72.912C227.796 73.2107 228.009 73.6053 228.372 74.096C228.671 74.48 228.948 74.608 229.204 74.48C229.481 74.352 229.855 74.2027 230.324 74.032C230.793 73.8613 231.177 73.744 231.476 73.68C231.796 73.5947 231.945 73.3067 231.924 72.816C231.903 72.24 231.775 71.856 231.54 71.664C231.327 71.472 230.953 71.2907 230.42 71.12ZM227.412 71.664C227.391 71.4933 227.273 71.376 227.06 71.312C226.932 71.2907 226.825 71.28 226.74 71.28C226.676 71.28 226.612 71.3333 226.548 71.44C226.441 71.6107 226.463 71.792 226.612 71.984C226.74 72.1333 226.911 72.1653 227.124 72.08C227.337 71.9947 227.433 71.856 227.412 71.664ZM224.372 74.064C224.223 73.936 224.095 73.8507 223.988 73.808C223.881 73.744 223.743 73.7653 223.572 73.872C223.401 73.9787 223.337 74.0853 223.38 74.192C223.444 74.2987 223.497 74.448 223.54 74.64C223.604 74.832 223.636 74.992 223.636 75.12C223.636 75.2267 223.732 75.2907 223.924 75.312C224.159 75.3333 224.329 75.312 224.436 75.248C224.543 75.184 224.639 75.0453 224.724 74.832C224.809 74.64 224.809 74.5013 224.724 74.416C224.66 74.3307 224.543 74.2133 224.372 74.064ZM221.3 75.44C221.129 75.4187 221.001 75.4187 220.916 75.44C220.831 75.44 220.745 75.5147 220.66 75.664C220.596 75.8133 220.596 75.9307 220.66 76.016C220.724 76.08 220.809 76.1653 220.916 76.272C221.065 76.4 221.172 76.5173 221.236 76.624C221.3 76.7093 221.417 76.7093 221.588 76.624C221.759 76.5387 221.833 76.4427 221.812 76.336C221.791 76.208 221.769 76.048 221.748 75.856C221.705 75.6213 221.556 75.4827 221.3 75.44ZM229.236 75.632L228.916 75.472L228.692 75.696L228.82 75.952H229.108L229.236 75.632ZM228.436 76.432L228.18 76.4V76.656L228.372 76.912L228.5 76.624L228.436 76.432Z" fill="#A8A29E"/>
</svg>
