<svg width="64" height="64" viewBox="0 0 64 64" fill="none" xmlns="http://www.w3.org/2000/svg">
<path fill-rule="evenodd" clip-rule="evenodd" d="M21.1824 2.21875H42.9324C45.923 2.21875 48.3699 4.6658 48.3699 7.65625V38.9219C48.3699 41.1649 46.5348 43 44.2918 43H43.68L52.2441 62.0312H49.2536L48.0301 59.3125H16.0168L14.7933 62.0312H11.8027L20.4347 43H19.8231C17.5801 43 15.7449 41.1649 15.7449 38.9219V7.65625C15.7449 4.6658 18.1918 2.21875 21.1824 2.21875ZM29.3387 4.9375C28.5911 4.9375 27.9793 5.54904 27.9793 6.29688H22.5418C21.0465 6.29688 19.8231 7.5204 19.8231 9.01562V22.6094C19.8231 23.3572 20.4347 23.9688 21.1824 23.9688H42.9324C43.68 23.9688 44.2918 23.3572 44.2918 22.6094V9.01562C44.2918 7.5204 43.0684 6.29688 41.5731 6.29688H36.1356C36.1356 5.54904 35.5238 4.9375 34.7762 4.9375H29.3387ZM21.8621 34.8438C20.7066 34.8438 19.8231 35.7274 19.8231 36.8828C19.8231 38.0382 20.7066 38.9219 21.8621 38.9219C23.0176 38.9219 23.9012 38.0382 23.9012 36.8828C23.9012 35.7274 23.0176 34.8438 21.8621 34.8438ZM42.2527 34.8438C41.0973 34.8438 40.2137 35.7274 40.2137 36.8828C40.2137 38.0382 41.0973 38.9219 42.2527 38.9219C43.4082 38.9219 44.2918 38.0382 44.2918 36.8828C44.2918 35.7274 43.4082 34.8438 42.2527 34.8438ZM23.4253 43L22.202 45.7188H41.9129L40.6895 43H23.4253ZM20.9785 48.4375L19.755 51.1562H44.4277L43.2043 48.4375H20.9785ZM18.4637 53.875L17.2402 56.5938H46.8746L45.6512 53.875H18.4637Z" fill="#EF4444"/>
</svg>
